G04 #@! TF.GenerationSoftware,KiCad,Pcbnew,8.0.5*
G04 #@! TF.CreationDate,2024-10-05T11:22:00+02:00*
G04 #@! TF.ProjectId,DRV2605-breakout,44525632-3630-4352-9d62-7265616b6f75,rev?*
G04 #@! TF.SameCoordinates,Original*
G04 #@! TF.FileFunction,Copper,L2,Bot*
G04 #@! TF.FilePolarity,Positive*
%FSLAX46Y46*%
G04 Gerber Fmt 4.6, Leading zero omitted, Abs format (unit mm)*
G04 Created by KiCad (PCBNEW 8.0.5) date 2024-10-05 11:22:00*
%MOMM*%
%LPD*%
G01*
G04 APERTURE LIST*
G04 #@! TA.AperFunction,ComponentPad*
%ADD10C,1.700000*%
G04 #@! TD*
G04 #@! TA.AperFunction,ComponentPad*
%ADD11O,1.700000X1.700000*%
G04 #@! TD*
G04 #@! TA.AperFunction,ViaPad*
%ADD12C,0.600000*%
G04 #@! TD*
G04 #@! TA.AperFunction,Conductor*
%ADD13C,0.300000*%
G04 #@! TD*
G04 APERTURE END LIST*
D10*
X133000000Y-66000000D03*
D11*
X133000000Y-68540000D03*
X133000000Y-71080000D03*
X133000000Y-73620000D03*
X133000000Y-76160000D03*
X133000000Y-78700000D03*
X133000000Y-81240000D03*
X133000000Y-83780000D03*
D10*
X128750000Y-66000000D03*
D11*
X128750000Y-68540000D03*
D12*
X122759140Y-75770733D03*
X129750000Y-73750000D03*
X127250000Y-73750000D03*
X130000000Y-77500000D03*
X130500000Y-79750000D03*
X120375000Y-79250000D03*
X120375000Y-81000000D03*
X129750000Y-83780000D03*
X126125000Y-79000000D03*
X118974659Y-70112607D03*
X118875000Y-73000000D03*
X130750000Y-82000000D03*
X123625000Y-77500000D03*
X126875000Y-76250000D03*
X126705761Y-78000000D03*
D13*
X118974659Y-70112607D02*
X118875000Y-70212266D01*
X118875000Y-70212266D02*
X118875000Y-73000000D01*
X126125000Y-79000000D02*
X126250000Y-79125000D01*
X126250000Y-79125000D02*
X126250000Y-82000000D01*
X126250000Y-82000000D02*
X128030000Y-83780000D01*
X128030000Y-83780000D02*
X129750000Y-83780000D01*
X128250000Y-76250000D02*
X126875000Y-76250000D01*
X128080761Y-78000000D02*
X126705761Y-78000000D01*
X120375000Y-79250000D02*
X120375000Y-81000000D01*
X128250000Y-76250000D02*
X128750000Y-75750000D01*
X128750000Y-75750000D02*
X128750000Y-68540000D01*
X128080761Y-78000000D02*
X130750000Y-75330761D01*
X130750000Y-75330761D02*
X130750000Y-67000000D01*
X130750000Y-67000000D02*
X129750000Y-66000000D01*
X129750000Y-66000000D02*
X128750000Y-66000000D01*
G04 #@! TA.AperFunction,Conductor*
G36*
X130060355Y-69270098D02*
G01*
X130095769Y-69330327D01*
X130099500Y-69360517D01*
X130099500Y-75009953D01*
X130079815Y-75076992D01*
X130063181Y-75097634D01*
X129612181Y-75548634D01*
X129550858Y-75582119D01*
X129481166Y-75577135D01*
X129425233Y-75535263D01*
X129400816Y-75469799D01*
X129400500Y-75460953D01*
X129400500Y-69797722D01*
X129420185Y-69730683D01*
X129453377Y-69696147D01*
X129504429Y-69660399D01*
X129621401Y-69578495D01*
X129788495Y-69411401D01*
X129873925Y-69289393D01*
X129928502Y-69245769D01*
X129998000Y-69238575D01*
X130060355Y-69270098D01*
G37*
G04 #@! TD.AperFunction*
G04 #@! TA.AperFunction,Conductor*
G36*
X134692539Y-64270185D02*
G01*
X134738294Y-64322989D01*
X134749500Y-64374500D01*
X134749500Y-85375500D01*
X134729815Y-85442539D01*
X134677011Y-85488294D01*
X134625500Y-85499500D01*
X101874500Y-85499500D01*
X101807461Y-85479815D01*
X101761706Y-85427011D01*
X101750500Y-85375500D01*
X101750500Y-79249996D01*
X119569435Y-79249996D01*
X119569435Y-79250003D01*
X119589630Y-79429249D01*
X119589631Y-79429254D01*
X119649211Y-79599524D01*
X119705493Y-79689094D01*
X119724500Y-79755067D01*
X119724500Y-80494931D01*
X119705494Y-80560903D01*
X119649211Y-80650477D01*
X119649209Y-80650481D01*
X119589633Y-80820737D01*
X119589630Y-80820750D01*
X119569435Y-80999996D01*
X119569435Y-81000003D01*
X119589630Y-81179249D01*
X119589631Y-81179254D01*
X119649211Y-81349523D01*
X119701659Y-81432993D01*
X119745184Y-81502262D01*
X119872738Y-81629816D01*
X119951319Y-81679192D01*
X119993864Y-81705925D01*
X120025478Y-81725789D01*
X120195745Y-81785368D01*
X120195750Y-81785369D01*
X120374996Y-81805565D01*
X120375000Y-81805565D01*
X120375004Y-81805565D01*
X120554249Y-81785369D01*
X120554252Y-81785368D01*
X120554255Y-81785368D01*
X120724522Y-81725789D01*
X120877262Y-81629816D01*
X121004816Y-81502262D01*
X121100789Y-81349522D01*
X121160368Y-81179255D01*
X121160369Y-81179249D01*
X121180565Y-81000003D01*
X121180565Y-80999996D01*
X121160369Y-80820750D01*
X121160366Y-80820737D01*
X121100790Y-80650481D01*
X121100789Y-80650478D01*
X121045459Y-80562420D01*
X121044506Y-80560903D01*
X121025500Y-80494931D01*
X121025500Y-79755067D01*
X121044507Y-79689094D01*
X121100788Y-79599524D01*
X121100789Y-79599522D01*
X121160368Y-79429255D01*
X121180565Y-79250000D01*
X121178145Y-79228523D01*
X121160369Y-79070750D01*
X121160368Y-79070745D01*
X121135612Y-78999996D01*
X125319435Y-78999996D01*
X125319435Y-79000003D01*
X125339630Y-79179249D01*
X125339631Y-79179254D01*
X125399211Y-79349523D01*
X125495184Y-79502262D01*
X125563181Y-79570259D01*
X125596666Y-79631582D01*
X125599500Y-79657940D01*
X125599500Y-82064069D01*
X125599500Y-82064071D01*
X125599499Y-82064071D01*
X125624497Y-82189738D01*
X125624499Y-82189744D01*
X125673535Y-82308127D01*
X125744723Y-82414669D01*
X125744726Y-82414673D01*
X125744727Y-82414674D01*
X127524724Y-84194669D01*
X127573710Y-84243655D01*
X127615332Y-84285277D01*
X127721866Y-84356461D01*
X127721872Y-84356464D01*
X127721873Y-84356465D01*
X127840256Y-84405501D01*
X127840260Y-84405501D01*
X127840261Y-84405502D01*
X127965928Y-84430500D01*
X127965931Y-84430500D01*
X129244932Y-84430500D01*
X129310904Y-84449506D01*
X129400477Y-84505789D01*
X129400481Y-84505790D01*
X129570737Y-84565366D01*
X129570743Y-84565367D01*
X129570745Y-84565368D01*
X129570746Y-84565368D01*
X129570750Y-84565369D01*
X129749996Y-84585565D01*
X129750000Y-84585565D01*
X129750004Y-84585565D01*
X129929249Y-84565369D01*
X129929252Y-84565368D01*
X129929255Y-84565368D01*
X130099522Y-84505789D01*
X130252262Y-84409816D01*
X130379816Y-84282262D01*
X130475789Y-84129522D01*
X130535368Y-83959255D01*
X130555565Y-83780000D01*
X130535368Y-83600745D01*
X130475789Y-83430478D01*
X130379816Y-83277738D01*
X130252262Y-83150184D01*
X130189096Y-83110494D01*
X130099523Y-83054211D01*
X129929254Y-82994631D01*
X129929249Y-82994630D01*
X129750004Y-82974435D01*
X129749996Y-82974435D01*
X129570750Y-82994630D01*
X129570737Y-82994633D01*
X129400481Y-83054209D01*
X129400477Y-83054210D01*
X129310904Y-83110494D01*
X129244932Y-83129500D01*
X128350807Y-83129500D01*
X128283768Y-83109815D01*
X128263126Y-83093181D01*
X126936819Y-81766873D01*
X126903334Y-81705550D01*
X126900500Y-81679192D01*
X126900500Y-79228523D01*
X126907459Y-79187567D01*
X126910368Y-79179255D01*
X126912126Y-79163655D01*
X126930565Y-79000003D01*
X126930565Y-78999997D01*
X126916643Y-78876440D01*
X126928697Y-78807618D01*
X126976046Y-78756239D01*
X126998906Y-78745515D01*
X127055283Y-78725789D01*
X127144857Y-78669505D01*
X127210829Y-78650500D01*
X128144832Y-78650500D01*
X128229376Y-78633682D01*
X128270505Y-78625501D01*
X128388888Y-78576465D01*
X128398752Y-78569873D01*
X128405344Y-78565470D01*
X128467093Y-78524211D01*
X128495430Y-78505277D01*
X131255277Y-75745430D01*
X131326465Y-75638888D01*
X131375501Y-75520505D01*
X131386615Y-75464632D01*
X131400500Y-75394830D01*
X131400500Y-73672949D01*
X131416718Y-73617714D01*
X131402931Y-73591482D01*
X131400500Y-73567050D01*
X131400500Y-71132949D01*
X131416718Y-71077714D01*
X131402931Y-71051482D01*
X131400500Y-71027050D01*
X131400500Y-68592949D01*
X131416148Y-68539654D01*
X131631678Y-68539654D01*
X131643477Y-68558014D01*
X131648028Y-68582141D01*
X131664936Y-68775403D01*
X131664938Y-68775413D01*
X131726094Y-69003655D01*
X131726096Y-69003659D01*
X131726097Y-69003663D01*
X131825965Y-69217830D01*
X131825967Y-69217834D01*
X131902573Y-69327238D01*
X131961501Y-69411396D01*
X131961506Y-69411402D01*
X132128597Y-69578493D01*
X132128603Y-69578498D01*
X132314158Y-69708425D01*
X132357783Y-69763002D01*
X132364977Y-69832500D01*
X132333454Y-69894855D01*
X132314158Y-69911575D01*
X132128597Y-70041505D01*
X131961505Y-70208597D01*
X131825965Y-70402169D01*
X131825964Y-70402171D01*
X131726098Y-70616335D01*
X131726094Y-70616344D01*
X131664938Y-70844586D01*
X131664936Y-70844596D01*
X131648028Y-71037858D01*
X131631678Y-71079654D01*
X131643477Y-71098014D01*
X131648028Y-71122141D01*
X131664936Y-71315403D01*
X131664938Y-71315413D01*
X131726094Y-71543655D01*
X131726096Y-71543659D01*
X131726097Y-71543663D01*
X131825965Y-71757830D01*
X131825967Y-71757834D01*
X131961501Y-71951395D01*
X131961506Y-71951402D01*
X132128597Y-72118493D01*
X132128603Y-72118498D01*
X132314158Y-72248425D01*
X132357783Y-72303002D01*
X132364977Y-72372500D01*
X132333454Y-72434855D01*
X132314158Y-72451575D01*
X132128597Y-72581505D01*
X131961505Y-72748597D01*
X131825965Y-72942169D01*
X131825964Y-72942171D01*
X131726098Y-73156335D01*
X131726094Y-73156344D01*
X131664938Y-73384586D01*
X131664936Y-73384596D01*
X131648028Y-73577858D01*
X131631678Y-73619654D01*
X131643477Y-73638014D01*
X131648028Y-73662141D01*
X131664936Y-73855403D01*
X131664938Y-73855413D01*
X131726094Y-74083655D01*
X131726096Y-74083659D01*
X131726097Y-74083663D01*
X131825965Y-74297830D01*
X131825967Y-74297834D01*
X131961501Y-74491395D01*
X131961506Y-74491402D01*
X132128597Y-74658493D01*
X132128603Y-74658498D01*
X132314158Y-74788425D01*
X132357783Y-74843002D01*
X132364977Y-74912500D01*
X132333454Y-74974855D01*
X132314158Y-74991575D01*
X132128597Y-75121505D01*
X131961505Y-75288597D01*
X131825965Y-75482169D01*
X131825964Y-75482171D01*
X131726098Y-75696335D01*
X131726094Y-75696344D01*
X131664938Y-75924586D01*
X131664936Y-75924596D01*
X131644341Y-76159999D01*
X131644341Y-76160000D01*
X131664936Y-76395403D01*
X131664938Y-76395413D01*
X131726094Y-76623655D01*
X131726096Y-76623659D01*
X131726097Y-76623663D01*
X131786064Y-76752262D01*
X131825965Y-76837830D01*
X131825967Y-76837834D01*
X131961501Y-77031395D01*
X131961506Y-77031402D01*
X132128597Y-77198493D01*
X132128603Y-77198498D01*
X132314158Y-77328425D01*
X132357783Y-77383002D01*
X132364977Y-77452500D01*
X132333454Y-77514855D01*
X132314158Y-77531575D01*
X132128597Y-77661505D01*
X131961505Y-77828597D01*
X131825965Y-78022169D01*
X131825964Y-78022171D01*
X131726098Y-78236335D01*
X131726094Y-78236344D01*
X131664938Y-78464586D01*
X131664936Y-78464596D01*
X131644341Y-78699999D01*
X131644341Y-78700000D01*
X131664936Y-78935403D01*
X131664938Y-78935413D01*
X131726094Y-79163655D01*
X131726096Y-79163659D01*
X131726097Y-79163663D01*
X131733368Y-79179255D01*
X131825965Y-79377830D01*
X131825967Y-79377834D01*
X131861973Y-79429255D01*
X131960705Y-79570259D01*
X131961501Y-79571395D01*
X131961506Y-79571402D01*
X132128597Y-79738493D01*
X132128603Y-79738498D01*
X132314594Y-79868730D01*
X132358219Y-79923307D01*
X132365413Y-79992805D01*
X132333890Y-80055160D01*
X132314595Y-80071880D01*
X132128922Y-80201890D01*
X132128920Y-80201891D01*
X131961891Y-80368920D01*
X131961886Y-80368926D01*
X131826400Y-80562420D01*
X131826399Y-80562422D01*
X131726570Y-80776507D01*
X131726567Y-80776513D01*
X131669364Y-80989999D01*
X131669364Y-80990000D01*
X132566988Y-80990000D01*
X132534075Y-81047007D01*
X132500000Y-81174174D01*
X132500000Y-81305826D01*
X132534075Y-81432993D01*
X132566988Y-81490000D01*
X131669364Y-81490000D01*
X131726567Y-81703486D01*
X131726570Y-81703492D01*
X131826399Y-81917578D01*
X131961894Y-82111082D01*
X132128917Y-82278105D01*
X132314595Y-82408119D01*
X132358219Y-82462696D01*
X132365412Y-82532195D01*
X132333890Y-82594549D01*
X132314595Y-82611269D01*
X132128594Y-82741508D01*
X131961505Y-82908597D01*
X131825965Y-83102169D01*
X131825964Y-83102171D01*
X131726098Y-83316335D01*
X131726094Y-83316344D01*
X131664938Y-83544586D01*
X131664936Y-83544596D01*
X131644341Y-83779999D01*
X131644341Y-83780000D01*
X131664936Y-84015403D01*
X131664938Y-84015413D01*
X131726094Y-84243655D01*
X131726096Y-84243659D01*
X131726097Y-84243663D01*
X131744096Y-84282262D01*
X131825965Y-84457830D01*
X131825967Y-84457834D01*
X131915406Y-84585565D01*
X131961505Y-84651401D01*
X132128599Y-84818495D01*
X132225384Y-84886265D01*
X132322165Y-84954032D01*
X132322167Y-84954033D01*
X132322170Y-84954035D01*
X132536337Y-85053903D01*
X132764592Y-85115063D01*
X132952918Y-85131539D01*
X132999999Y-85135659D01*
X133000000Y-85135659D01*
X133000001Y-85135659D01*
X133039234Y-85132226D01*
X133235408Y-85115063D01*
X133463663Y-85053903D01*
X133677830Y-84954035D01*
X133871401Y-84818495D01*
X134038495Y-84651401D01*
X134174035Y-84457830D01*
X134273903Y-84243663D01*
X134335063Y-84015408D01*
X134355659Y-83780000D01*
X134335063Y-83544592D01*
X134273903Y-83316337D01*
X134174035Y-83102171D01*
X134167741Y-83093181D01*
X134038494Y-82908597D01*
X133871402Y-82741506D01*
X133871401Y-82741505D01*
X133685405Y-82611269D01*
X133641781Y-82556692D01*
X133634588Y-82487193D01*
X133666110Y-82424839D01*
X133685405Y-82408119D01*
X133871082Y-82278105D01*
X134038105Y-82111082D01*
X134173600Y-81917578D01*
X134273429Y-81703492D01*
X134273432Y-81703486D01*
X134330636Y-81490000D01*
X133433012Y-81490000D01*
X133465925Y-81432993D01*
X133500000Y-81305826D01*
X133500000Y-81174174D01*
X133465925Y-81047007D01*
X133433012Y-80990000D01*
X134330636Y-80990000D01*
X134330635Y-80989999D01*
X134273432Y-80776513D01*
X134273429Y-80776507D01*
X134173600Y-80562422D01*
X134173599Y-80562420D01*
X134038113Y-80368926D01*
X134038108Y-80368920D01*
X133871078Y-80201890D01*
X133685405Y-80071879D01*
X133641780Y-80017302D01*
X133634588Y-79947804D01*
X133666110Y-79885449D01*
X133685406Y-79868730D01*
X133871401Y-79738495D01*
X134038495Y-79571401D01*
X134174035Y-79377830D01*
X134273903Y-79163663D01*
X134335063Y-78935408D01*
X134355659Y-78700000D01*
X134335063Y-78464592D01*
X134273903Y-78236337D01*
X134174035Y-78022171D01*
X134038495Y-77828599D01*
X134038494Y-77828597D01*
X133871402Y-77661506D01*
X133871396Y-77661501D01*
X133685842Y-77531575D01*
X133642217Y-77476998D01*
X133635023Y-77407500D01*
X133666546Y-77345145D01*
X133685842Y-77328425D01*
X133766926Y-77271649D01*
X133871401Y-77198495D01*
X134038495Y-77031401D01*
X134174035Y-76837830D01*
X134273903Y-76623663D01*
X134335063Y-76395408D01*
X134355659Y-76160000D01*
X134335063Y-75924592D01*
X134273903Y-75696337D01*
X134174035Y-75482171D01*
X134161755Y-75464632D01*
X134038494Y-75288597D01*
X133871402Y-75121506D01*
X133871396Y-75121501D01*
X133685842Y-74991575D01*
X133642217Y-74936998D01*
X133635023Y-74867500D01*
X133666546Y-74805145D01*
X133685842Y-74788425D01*
X133708026Y-74772891D01*
X133871401Y-74658495D01*
X134038495Y-74491401D01*
X134174035Y-74297830D01*
X134273903Y-74083663D01*
X134335063Y-73855408D01*
X134355659Y-73620000D01*
X134335063Y-73384592D01*
X134273903Y-73156337D01*
X134174035Y-72942171D01*
X134089016Y-72820750D01*
X134038494Y-72748597D01*
X133871402Y-72581506D01*
X133871396Y-72581501D01*
X133685842Y-72451575D01*
X133642217Y-72396998D01*
X133635023Y-72327500D01*
X133666546Y-72265145D01*
X133685842Y-72248425D01*
X133708026Y-72232891D01*
X133871401Y-72118495D01*
X134038495Y-71951401D01*
X134174035Y-71757830D01*
X134273903Y-71543663D01*
X134335063Y-71315408D01*
X134355659Y-71080000D01*
X134335063Y-70844592D01*
X134273903Y-70616337D01*
X134174035Y-70402171D01*
X134167252Y-70392483D01*
X134038494Y-70208597D01*
X133871402Y-70041506D01*
X133871396Y-70041501D01*
X133685842Y-69911575D01*
X133642217Y-69856998D01*
X133635023Y-69787500D01*
X133666546Y-69725145D01*
X133685842Y-69708425D01*
X133708026Y-69692891D01*
X133871401Y-69578495D01*
X134038495Y-69411401D01*
X134174035Y-69217830D01*
X134273903Y-69003663D01*
X134335063Y-68775408D01*
X134355659Y-68540000D01*
X134335063Y-68304592D01*
X134273903Y-68076337D01*
X134174035Y-67862171D01*
X134160066Y-67842220D01*
X134038494Y-67668597D01*
X133871402Y-67501506D01*
X133871396Y-67501501D01*
X133685842Y-67371575D01*
X133642217Y-67316998D01*
X133635023Y-67247500D01*
X133666546Y-67185145D01*
X133685842Y-67168425D01*
X133708026Y-67152891D01*
X133871401Y-67038495D01*
X134038495Y-66871401D01*
X134174035Y-66677830D01*
X134273903Y-66463663D01*
X134335063Y-66235408D01*
X134355659Y-66000000D01*
X134335063Y-65764592D01*
X134273903Y-65536337D01*
X134174035Y-65322171D01*
X134038495Y-65128599D01*
X134038494Y-65128597D01*
X133871402Y-64961506D01*
X133871395Y-64961501D01*
X133677834Y-64825967D01*
X133677830Y-64825965D01*
X133677828Y-64825964D01*
X133463663Y-64726097D01*
X133463659Y-64726096D01*
X133463655Y-64726094D01*
X133235413Y-64664938D01*
X133235403Y-64664936D01*
X133000001Y-64644341D01*
X132999999Y-64644341D01*
X132764596Y-64664936D01*
X132764586Y-64664938D01*
X132536344Y-64726094D01*
X132536335Y-64726098D01*
X132322171Y-64825964D01*
X132322169Y-64825965D01*
X132128597Y-64961505D01*
X131961505Y-65128597D01*
X131825965Y-65322169D01*
X131825964Y-65322171D01*
X131726098Y-65536335D01*
X131726094Y-65536344D01*
X131664938Y-65764586D01*
X131664936Y-65764596D01*
X131644341Y-65999999D01*
X131644341Y-66000000D01*
X131664936Y-66235403D01*
X131664938Y-66235413D01*
X131726094Y-66463655D01*
X131726096Y-66463659D01*
X131726097Y-66463663D01*
X131825965Y-66677830D01*
X131825967Y-66677834D01*
X131961501Y-66871395D01*
X131961506Y-66871402D01*
X132128597Y-67038493D01*
X132128603Y-67038498D01*
X132314158Y-67168425D01*
X132357783Y-67223002D01*
X132364977Y-67292500D01*
X132333454Y-67354855D01*
X132314158Y-67371575D01*
X132128597Y-67501505D01*
X131961505Y-67668597D01*
X131825965Y-67862169D01*
X131825964Y-67862171D01*
X131726098Y-68076335D01*
X131726094Y-68076344D01*
X131664938Y-68304586D01*
X131664936Y-68304596D01*
X131648028Y-68497858D01*
X131631678Y-68539654D01*
X131416148Y-68539654D01*
X131416718Y-68537714D01*
X131402931Y-68511482D01*
X131400500Y-68487050D01*
X131400500Y-66935928D01*
X131375502Y-66810260D01*
X131375500Y-66810254D01*
X131355189Y-66761221D01*
X131355187Y-66761216D01*
X131326468Y-66691878D01*
X131326462Y-66691868D01*
X131255278Y-66585332D01*
X131255272Y-66585325D01*
X130164673Y-65494726D01*
X130058124Y-65423533D01*
X129995067Y-65397414D01*
X129940663Y-65353572D01*
X129930137Y-65335256D01*
X129924037Y-65322175D01*
X129924036Y-65322174D01*
X129924035Y-65322171D01*
X129788495Y-65128599D01*
X129788494Y-65128597D01*
X129621402Y-64961506D01*
X129621395Y-64961501D01*
X129427834Y-64825967D01*
X129427830Y-64825965D01*
X129427828Y-64825964D01*
X129213663Y-64726097D01*
X129213659Y-64726096D01*
X129213655Y-64726094D01*
X128985413Y-64664938D01*
X128985403Y-64664936D01*
X128750001Y-64644341D01*
X128749999Y-64644341D01*
X128514596Y-64664936D01*
X128514586Y-64664938D01*
X128286344Y-64726094D01*
X128286335Y-64726098D01*
X128072171Y-64825964D01*
X128072169Y-64825965D01*
X127878597Y-64961505D01*
X127711505Y-65128597D01*
X127575965Y-65322169D01*
X127575964Y-65322171D01*
X127476098Y-65536335D01*
X127476094Y-65536344D01*
X127414938Y-65764586D01*
X127414936Y-65764596D01*
X127394341Y-65999999D01*
X127394341Y-66000000D01*
X127414936Y-66235403D01*
X127414938Y-66235413D01*
X127476094Y-66463655D01*
X127476096Y-66463659D01*
X127476097Y-66463663D01*
X127575965Y-66677830D01*
X127575967Y-66677834D01*
X127711501Y-66871395D01*
X127711506Y-66871402D01*
X127878597Y-67038493D01*
X127878603Y-67038498D01*
X128064158Y-67168425D01*
X128107783Y-67223002D01*
X128114977Y-67292500D01*
X128083454Y-67354855D01*
X128064158Y-67371575D01*
X127878597Y-67501505D01*
X127711505Y-67668597D01*
X127575965Y-67862169D01*
X127575964Y-67862171D01*
X127476098Y-68076335D01*
X127476094Y-68076344D01*
X127414938Y-68304586D01*
X127414936Y-68304596D01*
X127394341Y-68539999D01*
X127394341Y-68540000D01*
X127414936Y-68775403D01*
X127414938Y-68775413D01*
X127476094Y-69003655D01*
X127476096Y-69003659D01*
X127476097Y-69003663D01*
X127575965Y-69217830D01*
X127575967Y-69217834D01*
X127652573Y-69327238D01*
X127711501Y-69411396D01*
X127711506Y-69411402D01*
X127878597Y-69578493D01*
X127878603Y-69578498D01*
X128046623Y-69696147D01*
X128090248Y-69750724D01*
X128099500Y-69797722D01*
X128099500Y-75429192D01*
X128079815Y-75496231D01*
X128063181Y-75516873D01*
X128016873Y-75563181D01*
X127955550Y-75596666D01*
X127929192Y-75599500D01*
X127380068Y-75599500D01*
X127314096Y-75580494D01*
X127224522Y-75524210D01*
X127224518Y-75524209D01*
X127054262Y-75464633D01*
X127054249Y-75464630D01*
X126875004Y-75444435D01*
X126874996Y-75444435D01*
X126695750Y-75464630D01*
X126695745Y-75464631D01*
X126525476Y-75524211D01*
X126372737Y-75620184D01*
X126245184Y-75747737D01*
X126149211Y-75900476D01*
X126089631Y-76070745D01*
X126089630Y-76070750D01*
X126069435Y-76249996D01*
X126069435Y-76250003D01*
X126089630Y-76429249D01*
X126089631Y-76429254D01*
X126149211Y-76599523D01*
X126164380Y-76623664D01*
X126245184Y-76752262D01*
X126372738Y-76879816D01*
X126525478Y-76975789D01*
X126528799Y-76976951D01*
X126532790Y-76978348D01*
X126589566Y-77019068D01*
X126615315Y-77084021D01*
X126601860Y-77152583D01*
X126553473Y-77202986D01*
X126532792Y-77212431D01*
X126356241Y-77274209D01*
X126203498Y-77370184D01*
X126075945Y-77497737D01*
X125979972Y-77650476D01*
X125920392Y-77820745D01*
X125920391Y-77820750D01*
X125900196Y-77999996D01*
X125900196Y-78000003D01*
X125914117Y-78123560D01*
X125902062Y-78192382D01*
X125854713Y-78243761D01*
X125831851Y-78254485D01*
X125775478Y-78274210D01*
X125622737Y-78370184D01*
X125495184Y-78497737D01*
X125399211Y-78650476D01*
X125339631Y-78820745D01*
X125339630Y-78820750D01*
X125319435Y-78999996D01*
X121135612Y-78999996D01*
X121113013Y-78935413D01*
X121100789Y-78900478D01*
X121004816Y-78747738D01*
X120877262Y-78620184D01*
X120807684Y-78576465D01*
X120724523Y-78524211D01*
X120554254Y-78464631D01*
X120554249Y-78464630D01*
X120375004Y-78444435D01*
X120374996Y-78444435D01*
X120195750Y-78464630D01*
X120195745Y-78464631D01*
X120025476Y-78524211D01*
X119872737Y-78620184D01*
X119745184Y-78747737D01*
X119649211Y-78900476D01*
X119589631Y-79070745D01*
X119589630Y-79070750D01*
X119569435Y-79249996D01*
X101750500Y-79249996D01*
X101750500Y-72999996D01*
X118069435Y-72999996D01*
X118069435Y-73000003D01*
X118089630Y-73179249D01*
X118089631Y-73179254D01*
X118149211Y-73349523D01*
X118171249Y-73384596D01*
X118245184Y-73502262D01*
X118372738Y-73629816D01*
X118525478Y-73725789D01*
X118695745Y-73785368D01*
X118695750Y-73785369D01*
X118874996Y-73805565D01*
X118875000Y-73805565D01*
X118875004Y-73805565D01*
X119054249Y-73785369D01*
X119054252Y-73785368D01*
X119054255Y-73785368D01*
X119224522Y-73725789D01*
X119377262Y-73629816D01*
X119504816Y-73502262D01*
X119600789Y-73349522D01*
X119660368Y-73179255D01*
X119660369Y-73179249D01*
X119680565Y-73000003D01*
X119680565Y-72999996D01*
X119660369Y-72820750D01*
X119660366Y-72820737D01*
X119600790Y-72650481D01*
X119600789Y-72650478D01*
X119557451Y-72581506D01*
X119544506Y-72560903D01*
X119525500Y-72494931D01*
X119525500Y-70745206D01*
X119545185Y-70678167D01*
X119561819Y-70657525D01*
X119604475Y-70614869D01*
X119700448Y-70462129D01*
X119760027Y-70291862D01*
X119760028Y-70291853D01*
X119780224Y-70112610D01*
X119780224Y-70112603D01*
X119760028Y-69933357D01*
X119760027Y-69933352D01*
X119746556Y-69894855D01*
X119700448Y-69763085D01*
X119680088Y-69730683D01*
X119604474Y-69610344D01*
X119476921Y-69482791D01*
X119324182Y-69386818D01*
X119153913Y-69327238D01*
X119153908Y-69327237D01*
X118974663Y-69307042D01*
X118974655Y-69307042D01*
X118795409Y-69327237D01*
X118795404Y-69327238D01*
X118625135Y-69386818D01*
X118472396Y-69482791D01*
X118344843Y-69610344D01*
X118248870Y-69763083D01*
X118189290Y-69933352D01*
X118189289Y-69933357D01*
X118169094Y-70112603D01*
X118169094Y-70112610D01*
X118189289Y-70291853D01*
X118189291Y-70291863D01*
X118217541Y-70372595D01*
X118224500Y-70413550D01*
X118224500Y-72494931D01*
X118205494Y-72560903D01*
X118149211Y-72650477D01*
X118149209Y-72650481D01*
X118089633Y-72820737D01*
X118089630Y-72820750D01*
X118069435Y-72999996D01*
X101750500Y-72999996D01*
X101750500Y-64374500D01*
X101770185Y-64307461D01*
X101822989Y-64261706D01*
X101874500Y-64250500D01*
X134625500Y-64250500D01*
X134692539Y-64270185D01*
G37*
G04 #@! TD.AperFunction*
M02*
