%TF.GenerationSoftware,KiCad,Pcbnew,8.0.5*%
%TF.CreationDate,2024-10-05T11:22:09+02:00*%
%TF.ProjectId,DRV2605-breakout,44525632-3630-4352-9d62-7265616b6f75,rev?*%
%TF.SameCoordinates,Original*%
%TF.FileFunction,Drillmap*%
%TF.FilePolarity,Positive*%
%FSLAX45Y45*%
G04 Gerber Fmt 4.5, Leading zero omitted, Abs format (unit mm)*
G04 Created by KiCad (PCBNEW 8.0.5) date 2024-10-05 11:22:09*
%MOMM*%
%LPD*%
G01*
G04 APERTURE LIST*
%ADD10C,0.050000*%
%ADD11C,0.200000*%
%ADD12C,0.100000*%
G04 APERTURE END LIST*
D10*
X10175000Y-8600000D02*
G75*
G02*
X10125000Y-8550000I0J50000D01*
G01*
X13525000Y-8550000D02*
G75*
G02*
X13475000Y-8600000I-50000J0D01*
G01*
X10125000Y-6425000D02*
G75*
G02*
X10175000Y-6375000I50000J0D01*
G01*
X13475000Y-6375000D02*
G75*
G02*
X13525000Y-6425000I0J-50000D01*
G01*
X10125000Y-8550000D02*
X10125000Y-6425000D01*
X13525000Y-6425000D02*
X13525000Y-8550000D01*
X13475000Y-8600000D02*
X10175000Y-8600000D01*
X10175000Y-6375000D02*
X13475000Y-6375000D01*
D11*
D12*
X11872500Y-7285000D02*
X11902500Y-7315000D01*
X11902500Y-7285000D02*
X11872500Y-7315000D01*
X11882466Y-6996261D02*
X11912466Y-7026261D01*
X11912466Y-6996261D02*
X11882466Y-7026261D01*
X12022500Y-7910000D02*
X12052500Y-7940000D01*
X12052500Y-7910000D02*
X12022500Y-7940000D01*
X12022500Y-8085000D02*
X12052500Y-8115000D01*
X12052500Y-8085000D02*
X12022500Y-8115000D01*
X12260914Y-7562073D02*
X12290914Y-7592073D01*
X12290914Y-7562073D02*
X12260914Y-7592073D01*
X12347500Y-7735000D02*
X12377500Y-7765000D01*
X12377500Y-7735000D02*
X12347500Y-7765000D01*
X12597500Y-7885000D02*
X12627500Y-7915000D01*
X12627500Y-7885000D02*
X12597500Y-7915000D01*
X12655576Y-7785000D02*
X12685576Y-7815000D01*
X12685576Y-7785000D02*
X12655576Y-7815000D01*
X12672500Y-7610000D02*
X12702500Y-7640000D01*
X12702500Y-7610000D02*
X12672500Y-7640000D01*
X12710000Y-7360000D02*
X12740000Y-7390000D01*
X12740000Y-7360000D02*
X12710000Y-7390000D01*
X12960000Y-7360000D02*
X12990000Y-7390000D01*
X12990000Y-7360000D02*
X12960000Y-7390000D01*
X12960000Y-8363000D02*
X12990000Y-8393000D01*
X12990000Y-8363000D02*
X12960000Y-8393000D01*
X12985000Y-7735000D02*
X13015000Y-7765000D01*
X13015000Y-7735000D02*
X12985000Y-7765000D01*
X13035000Y-7960000D02*
X13065000Y-7990000D01*
X13065000Y-7960000D02*
X13035000Y-7990000D01*
X13060000Y-8185000D02*
X13090000Y-8215000D01*
X13090000Y-8185000D02*
X13060000Y-8215000D01*
X12925000Y-6600000D02*
G75*
G02*
X12825000Y-6600000I-50000J0D01*
G01*
X12825000Y-6600000D02*
G75*
G02*
X12925000Y-6600000I50000J0D01*
G01*
X12925000Y-6854000D02*
G75*
G02*
X12825000Y-6854000I-50000J0D01*
G01*
X12825000Y-6854000D02*
G75*
G02*
X12925000Y-6854000I50000J0D01*
G01*
X13350000Y-6600000D02*
G75*
G02*
X13250000Y-6600000I-50000J0D01*
G01*
X13250000Y-6600000D02*
G75*
G02*
X13350000Y-6600000I50000J0D01*
G01*
X13350000Y-6854000D02*
G75*
G02*
X13250000Y-6854000I-50000J0D01*
G01*
X13250000Y-6854000D02*
G75*
G02*
X13350000Y-6854000I50000J0D01*
G01*
X13350000Y-7108000D02*
G75*
G02*
X13250000Y-7108000I-50000J0D01*
G01*
X13250000Y-7108000D02*
G75*
G02*
X13350000Y-7108000I50000J0D01*
G01*
X13350000Y-7362000D02*
G75*
G02*
X13250000Y-7362000I-50000J0D01*
G01*
X13250000Y-7362000D02*
G75*
G02*
X13350000Y-7362000I50000J0D01*
G01*
X13350000Y-7616000D02*
G75*
G02*
X13250000Y-7616000I-50000J0D01*
G01*
X13250000Y-7616000D02*
G75*
G02*
X13350000Y-7616000I50000J0D01*
G01*
X13350000Y-7870000D02*
G75*
G02*
X13250000Y-7870000I-50000J0D01*
G01*
X13250000Y-7870000D02*
G75*
G02*
X13350000Y-7870000I50000J0D01*
G01*
X13350000Y-8124000D02*
G75*
G02*
X13250000Y-8124000I-50000J0D01*
G01*
X13250000Y-8124000D02*
G75*
G02*
X13350000Y-8124000I50000J0D01*
G01*
X13350000Y-8378000D02*
G75*
G02*
X13250000Y-8378000I-50000J0D01*
G01*
X13250000Y-8378000D02*
G75*
G02*
X13350000Y-8378000I50000J0D01*
G01*
D11*
X10383277Y-8913984D02*
X10383277Y-8713984D01*
X10383277Y-8713984D02*
X10430896Y-8713984D01*
X10430896Y-8713984D02*
X10459467Y-8723508D01*
X10459467Y-8723508D02*
X10478515Y-8742555D01*
X10478515Y-8742555D02*
X10488039Y-8761603D01*
X10488039Y-8761603D02*
X10497563Y-8799698D01*
X10497563Y-8799698D02*
X10497563Y-8828270D01*
X10497563Y-8828270D02*
X10488039Y-8866365D01*
X10488039Y-8866365D02*
X10478515Y-8885412D01*
X10478515Y-8885412D02*
X10459467Y-8904460D01*
X10459467Y-8904460D02*
X10430896Y-8913984D01*
X10430896Y-8913984D02*
X10383277Y-8913984D01*
X10583277Y-8913984D02*
X10583277Y-8780650D01*
X10583277Y-8818746D02*
X10592801Y-8799698D01*
X10592801Y-8799698D02*
X10602324Y-8790174D01*
X10602324Y-8790174D02*
X10621372Y-8780650D01*
X10621372Y-8780650D02*
X10640420Y-8780650D01*
X10707086Y-8913984D02*
X10707086Y-8780650D01*
X10707086Y-8713984D02*
X10697563Y-8723508D01*
X10697563Y-8723508D02*
X10707086Y-8733031D01*
X10707086Y-8733031D02*
X10716610Y-8723508D01*
X10716610Y-8723508D02*
X10707086Y-8713984D01*
X10707086Y-8713984D02*
X10707086Y-8733031D01*
X10830896Y-8913984D02*
X10811848Y-8904460D01*
X10811848Y-8904460D02*
X10802324Y-8885412D01*
X10802324Y-8885412D02*
X10802324Y-8713984D01*
X10935658Y-8913984D02*
X10916610Y-8904460D01*
X10916610Y-8904460D02*
X10907086Y-8885412D01*
X10907086Y-8885412D02*
X10907086Y-8713984D01*
X11164229Y-8913984D02*
X11164229Y-8713984D01*
X11164229Y-8713984D02*
X11230896Y-8856841D01*
X11230896Y-8856841D02*
X11297562Y-8713984D01*
X11297562Y-8713984D02*
X11297562Y-8913984D01*
X11478515Y-8913984D02*
X11478515Y-8809222D01*
X11478515Y-8809222D02*
X11468991Y-8790174D01*
X11468991Y-8790174D02*
X11449943Y-8780650D01*
X11449943Y-8780650D02*
X11411848Y-8780650D01*
X11411848Y-8780650D02*
X11392801Y-8790174D01*
X11478515Y-8904460D02*
X11459467Y-8913984D01*
X11459467Y-8913984D02*
X11411848Y-8913984D01*
X11411848Y-8913984D02*
X11392801Y-8904460D01*
X11392801Y-8904460D02*
X11383277Y-8885412D01*
X11383277Y-8885412D02*
X11383277Y-8866365D01*
X11383277Y-8866365D02*
X11392801Y-8847317D01*
X11392801Y-8847317D02*
X11411848Y-8837793D01*
X11411848Y-8837793D02*
X11459467Y-8837793D01*
X11459467Y-8837793D02*
X11478515Y-8828270D01*
X11573753Y-8780650D02*
X11573753Y-8980650D01*
X11573753Y-8790174D02*
X11592801Y-8780650D01*
X11592801Y-8780650D02*
X11630896Y-8780650D01*
X11630896Y-8780650D02*
X11649943Y-8790174D01*
X11649943Y-8790174D02*
X11659467Y-8799698D01*
X11659467Y-8799698D02*
X11668991Y-8818746D01*
X11668991Y-8818746D02*
X11668991Y-8875889D01*
X11668991Y-8875889D02*
X11659467Y-8894936D01*
X11659467Y-8894936D02*
X11649943Y-8904460D01*
X11649943Y-8904460D02*
X11630896Y-8913984D01*
X11630896Y-8913984D02*
X11592801Y-8913984D01*
X11592801Y-8913984D02*
X11573753Y-8904460D01*
X11754705Y-8894936D02*
X11764229Y-8904460D01*
X11764229Y-8904460D02*
X11754705Y-8913984D01*
X11754705Y-8913984D02*
X11745182Y-8904460D01*
X11745182Y-8904460D02*
X11754705Y-8894936D01*
X11754705Y-8894936D02*
X11754705Y-8913984D01*
X11754705Y-8790174D02*
X11764229Y-8799698D01*
X11764229Y-8799698D02*
X11754705Y-8809222D01*
X11754705Y-8809222D02*
X11745182Y-8799698D01*
X11745182Y-8799698D02*
X11754705Y-8790174D01*
X11754705Y-8790174D02*
X11754705Y-8809222D01*
D12*
X10092500Y-9227500D02*
X10122500Y-9257500D01*
X10122500Y-9227500D02*
X10092500Y-9257500D01*
D11*
X10421372Y-9133984D02*
X10440420Y-9133984D01*
X10440420Y-9133984D02*
X10459467Y-9143508D01*
X10459467Y-9143508D02*
X10468991Y-9153031D01*
X10468991Y-9153031D02*
X10478515Y-9172079D01*
X10478515Y-9172079D02*
X10488039Y-9210174D01*
X10488039Y-9210174D02*
X10488039Y-9257793D01*
X10488039Y-9257793D02*
X10478515Y-9295889D01*
X10478515Y-9295889D02*
X10468991Y-9314936D01*
X10468991Y-9314936D02*
X10459467Y-9324460D01*
X10459467Y-9324460D02*
X10440420Y-9333984D01*
X10440420Y-9333984D02*
X10421372Y-9333984D01*
X10421372Y-9333984D02*
X10402324Y-9324460D01*
X10402324Y-9324460D02*
X10392801Y-9314936D01*
X10392801Y-9314936D02*
X10383277Y-9295889D01*
X10383277Y-9295889D02*
X10373753Y-9257793D01*
X10373753Y-9257793D02*
X10373753Y-9210174D01*
X10373753Y-9210174D02*
X10383277Y-9172079D01*
X10383277Y-9172079D02*
X10392801Y-9153031D01*
X10392801Y-9153031D02*
X10402324Y-9143508D01*
X10402324Y-9143508D02*
X10421372Y-9133984D01*
X10573753Y-9314936D02*
X10583277Y-9324460D01*
X10583277Y-9324460D02*
X10573753Y-9333984D01*
X10573753Y-9333984D02*
X10564229Y-9324460D01*
X10564229Y-9324460D02*
X10573753Y-9314936D01*
X10573753Y-9314936D02*
X10573753Y-9333984D01*
X10649944Y-9133984D02*
X10773753Y-9133984D01*
X10773753Y-9133984D02*
X10707086Y-9210174D01*
X10707086Y-9210174D02*
X10735658Y-9210174D01*
X10735658Y-9210174D02*
X10754705Y-9219698D01*
X10754705Y-9219698D02*
X10764229Y-9229222D01*
X10764229Y-9229222D02*
X10773753Y-9248270D01*
X10773753Y-9248270D02*
X10773753Y-9295889D01*
X10773753Y-9295889D02*
X10764229Y-9314936D01*
X10764229Y-9314936D02*
X10754705Y-9324460D01*
X10754705Y-9324460D02*
X10735658Y-9333984D01*
X10735658Y-9333984D02*
X10678515Y-9333984D01*
X10678515Y-9333984D02*
X10659467Y-9324460D01*
X10659467Y-9324460D02*
X10649944Y-9314936D01*
X10897563Y-9133984D02*
X10916610Y-9133984D01*
X10916610Y-9133984D02*
X10935658Y-9143508D01*
X10935658Y-9143508D02*
X10945182Y-9153031D01*
X10945182Y-9153031D02*
X10954705Y-9172079D01*
X10954705Y-9172079D02*
X10964229Y-9210174D01*
X10964229Y-9210174D02*
X10964229Y-9257793D01*
X10964229Y-9257793D02*
X10954705Y-9295889D01*
X10954705Y-9295889D02*
X10945182Y-9314936D01*
X10945182Y-9314936D02*
X10935658Y-9324460D01*
X10935658Y-9324460D02*
X10916610Y-9333984D01*
X10916610Y-9333984D02*
X10897563Y-9333984D01*
X10897563Y-9333984D02*
X10878515Y-9324460D01*
X10878515Y-9324460D02*
X10868991Y-9314936D01*
X10868991Y-9314936D02*
X10859467Y-9295889D01*
X10859467Y-9295889D02*
X10849944Y-9257793D01*
X10849944Y-9257793D02*
X10849944Y-9210174D01*
X10849944Y-9210174D02*
X10859467Y-9172079D01*
X10859467Y-9172079D02*
X10868991Y-9153031D01*
X10868991Y-9153031D02*
X10878515Y-9143508D01*
X10878515Y-9143508D02*
X10897563Y-9133984D01*
X11088039Y-9133984D02*
X11107086Y-9133984D01*
X11107086Y-9133984D02*
X11126134Y-9143508D01*
X11126134Y-9143508D02*
X11135658Y-9153031D01*
X11135658Y-9153031D02*
X11145182Y-9172079D01*
X11145182Y-9172079D02*
X11154705Y-9210174D01*
X11154705Y-9210174D02*
X11154705Y-9257793D01*
X11154705Y-9257793D02*
X11145182Y-9295889D01*
X11145182Y-9295889D02*
X11135658Y-9314936D01*
X11135658Y-9314936D02*
X11126134Y-9324460D01*
X11126134Y-9324460D02*
X11107086Y-9333984D01*
X11107086Y-9333984D02*
X11088039Y-9333984D01*
X11088039Y-9333984D02*
X11068991Y-9324460D01*
X11068991Y-9324460D02*
X11059467Y-9314936D01*
X11059467Y-9314936D02*
X11049944Y-9295889D01*
X11049944Y-9295889D02*
X11040420Y-9257793D01*
X11040420Y-9257793D02*
X11040420Y-9210174D01*
X11040420Y-9210174D02*
X11049944Y-9172079D01*
X11049944Y-9172079D02*
X11059467Y-9153031D01*
X11059467Y-9153031D02*
X11068991Y-9143508D01*
X11068991Y-9143508D02*
X11088039Y-9133984D01*
X11240420Y-9333984D02*
X11240420Y-9200650D01*
X11240420Y-9219698D02*
X11249943Y-9210174D01*
X11249943Y-9210174D02*
X11268991Y-9200650D01*
X11268991Y-9200650D02*
X11297563Y-9200650D01*
X11297563Y-9200650D02*
X11316610Y-9210174D01*
X11316610Y-9210174D02*
X11326134Y-9229222D01*
X11326134Y-9229222D02*
X11326134Y-9333984D01*
X11326134Y-9229222D02*
X11335658Y-9210174D01*
X11335658Y-9210174D02*
X11354705Y-9200650D01*
X11354705Y-9200650D02*
X11383277Y-9200650D01*
X11383277Y-9200650D02*
X11402324Y-9210174D01*
X11402324Y-9210174D02*
X11411848Y-9229222D01*
X11411848Y-9229222D02*
X11411848Y-9333984D01*
X11507086Y-9333984D02*
X11507086Y-9200650D01*
X11507086Y-9219698D02*
X11516610Y-9210174D01*
X11516610Y-9210174D02*
X11535658Y-9200650D01*
X11535658Y-9200650D02*
X11564229Y-9200650D01*
X11564229Y-9200650D02*
X11583277Y-9210174D01*
X11583277Y-9210174D02*
X11592801Y-9229222D01*
X11592801Y-9229222D02*
X11592801Y-9333984D01*
X11592801Y-9229222D02*
X11602324Y-9210174D01*
X11602324Y-9210174D02*
X11621372Y-9200650D01*
X11621372Y-9200650D02*
X11649943Y-9200650D01*
X11649943Y-9200650D02*
X11668991Y-9210174D01*
X11668991Y-9210174D02*
X11678515Y-9229222D01*
X11678515Y-9229222D02*
X11678515Y-9333984D01*
X12068991Y-9124460D02*
X11897563Y-9381603D01*
X12326134Y-9133984D02*
X12345182Y-9133984D01*
X12345182Y-9133984D02*
X12364229Y-9143508D01*
X12364229Y-9143508D02*
X12373753Y-9153031D01*
X12373753Y-9153031D02*
X12383277Y-9172079D01*
X12383277Y-9172079D02*
X12392801Y-9210174D01*
X12392801Y-9210174D02*
X12392801Y-9257793D01*
X12392801Y-9257793D02*
X12383277Y-9295889D01*
X12383277Y-9295889D02*
X12373753Y-9314936D01*
X12373753Y-9314936D02*
X12364229Y-9324460D01*
X12364229Y-9324460D02*
X12345182Y-9333984D01*
X12345182Y-9333984D02*
X12326134Y-9333984D01*
X12326134Y-9333984D02*
X12307086Y-9324460D01*
X12307086Y-9324460D02*
X12297563Y-9314936D01*
X12297563Y-9314936D02*
X12288039Y-9295889D01*
X12288039Y-9295889D02*
X12278515Y-9257793D01*
X12278515Y-9257793D02*
X12278515Y-9210174D01*
X12278515Y-9210174D02*
X12288039Y-9172079D01*
X12288039Y-9172079D02*
X12297563Y-9153031D01*
X12297563Y-9153031D02*
X12307086Y-9143508D01*
X12307086Y-9143508D02*
X12326134Y-9133984D01*
X12478515Y-9314936D02*
X12488039Y-9324460D01*
X12488039Y-9324460D02*
X12478515Y-9333984D01*
X12478515Y-9333984D02*
X12468991Y-9324460D01*
X12468991Y-9324460D02*
X12478515Y-9314936D01*
X12478515Y-9314936D02*
X12478515Y-9333984D01*
X12611848Y-9133984D02*
X12630896Y-9133984D01*
X12630896Y-9133984D02*
X12649944Y-9143508D01*
X12649944Y-9143508D02*
X12659467Y-9153031D01*
X12659467Y-9153031D02*
X12668991Y-9172079D01*
X12668991Y-9172079D02*
X12678515Y-9210174D01*
X12678515Y-9210174D02*
X12678515Y-9257793D01*
X12678515Y-9257793D02*
X12668991Y-9295889D01*
X12668991Y-9295889D02*
X12659467Y-9314936D01*
X12659467Y-9314936D02*
X12649944Y-9324460D01*
X12649944Y-9324460D02*
X12630896Y-9333984D01*
X12630896Y-9333984D02*
X12611848Y-9333984D01*
X12611848Y-9333984D02*
X12592801Y-9324460D01*
X12592801Y-9324460D02*
X12583277Y-9314936D01*
X12583277Y-9314936D02*
X12573753Y-9295889D01*
X12573753Y-9295889D02*
X12564229Y-9257793D01*
X12564229Y-9257793D02*
X12564229Y-9210174D01*
X12564229Y-9210174D02*
X12573753Y-9172079D01*
X12573753Y-9172079D02*
X12583277Y-9153031D01*
X12583277Y-9153031D02*
X12592801Y-9143508D01*
X12592801Y-9143508D02*
X12611848Y-9133984D01*
X12868991Y-9333984D02*
X12754706Y-9333984D01*
X12811848Y-9333984D02*
X12811848Y-9133984D01*
X12811848Y-9133984D02*
X12792801Y-9162555D01*
X12792801Y-9162555D02*
X12773753Y-9181603D01*
X12773753Y-9181603D02*
X12754706Y-9191127D01*
X13059467Y-9333984D02*
X12945182Y-9333984D01*
X13002325Y-9333984D02*
X13002325Y-9133984D01*
X13002325Y-9133984D02*
X12983277Y-9162555D01*
X12983277Y-9162555D02*
X12964229Y-9181603D01*
X12964229Y-9181603D02*
X12945182Y-9191127D01*
X13173753Y-9219698D02*
X13154706Y-9210174D01*
X13154706Y-9210174D02*
X13145182Y-9200650D01*
X13145182Y-9200650D02*
X13135658Y-9181603D01*
X13135658Y-9181603D02*
X13135658Y-9172079D01*
X13135658Y-9172079D02*
X13145182Y-9153031D01*
X13145182Y-9153031D02*
X13154706Y-9143508D01*
X13154706Y-9143508D02*
X13173753Y-9133984D01*
X13173753Y-9133984D02*
X13211848Y-9133984D01*
X13211848Y-9133984D02*
X13230896Y-9143508D01*
X13230896Y-9143508D02*
X13240420Y-9153031D01*
X13240420Y-9153031D02*
X13249944Y-9172079D01*
X13249944Y-9172079D02*
X13249944Y-9181603D01*
X13249944Y-9181603D02*
X13240420Y-9200650D01*
X13240420Y-9200650D02*
X13230896Y-9210174D01*
X13230896Y-9210174D02*
X13211848Y-9219698D01*
X13211848Y-9219698D02*
X13173753Y-9219698D01*
X13173753Y-9219698D02*
X13154706Y-9229222D01*
X13154706Y-9229222D02*
X13145182Y-9238746D01*
X13145182Y-9238746D02*
X13135658Y-9257793D01*
X13135658Y-9257793D02*
X13135658Y-9295889D01*
X13135658Y-9295889D02*
X13145182Y-9314936D01*
X13145182Y-9314936D02*
X13154706Y-9324460D01*
X13154706Y-9324460D02*
X13173753Y-9333984D01*
X13173753Y-9333984D02*
X13211848Y-9333984D01*
X13211848Y-9333984D02*
X13230896Y-9324460D01*
X13230896Y-9324460D02*
X13240420Y-9314936D01*
X13240420Y-9314936D02*
X13249944Y-9295889D01*
X13249944Y-9295889D02*
X13249944Y-9257793D01*
X13249944Y-9257793D02*
X13240420Y-9238746D01*
X13240420Y-9238746D02*
X13230896Y-9229222D01*
X13230896Y-9229222D02*
X13211848Y-9219698D01*
X13326134Y-9133984D02*
X13326134Y-9172079D01*
X13402325Y-9133984D02*
X13402325Y-9172079D01*
X13697563Y-9410174D02*
X13688039Y-9400650D01*
X13688039Y-9400650D02*
X13668991Y-9372079D01*
X13668991Y-9372079D02*
X13659468Y-9353031D01*
X13659468Y-9353031D02*
X13649944Y-9324460D01*
X13649944Y-9324460D02*
X13640420Y-9276841D01*
X13640420Y-9276841D02*
X13640420Y-9238746D01*
X13640420Y-9238746D02*
X13649944Y-9191127D01*
X13649944Y-9191127D02*
X13659468Y-9162555D01*
X13659468Y-9162555D02*
X13668991Y-9143508D01*
X13668991Y-9143508D02*
X13688039Y-9114936D01*
X13688039Y-9114936D02*
X13697563Y-9105412D01*
X13878515Y-9333984D02*
X13764229Y-9333984D01*
X13821372Y-9333984D02*
X13821372Y-9133984D01*
X13821372Y-9133984D02*
X13802325Y-9162555D01*
X13802325Y-9162555D02*
X13783277Y-9181603D01*
X13783277Y-9181603D02*
X13764229Y-9191127D01*
X14059468Y-9133984D02*
X13964229Y-9133984D01*
X13964229Y-9133984D02*
X13954706Y-9229222D01*
X13954706Y-9229222D02*
X13964229Y-9219698D01*
X13964229Y-9219698D02*
X13983277Y-9210174D01*
X13983277Y-9210174D02*
X14030896Y-9210174D01*
X14030896Y-9210174D02*
X14049944Y-9219698D01*
X14049944Y-9219698D02*
X14059468Y-9229222D01*
X14059468Y-9229222D02*
X14068991Y-9248270D01*
X14068991Y-9248270D02*
X14068991Y-9295889D01*
X14068991Y-9295889D02*
X14059468Y-9314936D01*
X14059468Y-9314936D02*
X14049944Y-9324460D01*
X14049944Y-9324460D02*
X14030896Y-9333984D01*
X14030896Y-9333984D02*
X13983277Y-9333984D01*
X13983277Y-9333984D02*
X13964229Y-9324460D01*
X13964229Y-9324460D02*
X13954706Y-9314936D01*
X14307087Y-9333984D02*
X14307087Y-9133984D01*
X14392801Y-9333984D02*
X14392801Y-9229222D01*
X14392801Y-9229222D02*
X14383277Y-9210174D01*
X14383277Y-9210174D02*
X14364230Y-9200650D01*
X14364230Y-9200650D02*
X14335658Y-9200650D01*
X14335658Y-9200650D02*
X14316610Y-9210174D01*
X14316610Y-9210174D02*
X14307087Y-9219698D01*
X14516610Y-9333984D02*
X14497563Y-9324460D01*
X14497563Y-9324460D02*
X14488039Y-9314936D01*
X14488039Y-9314936D02*
X14478515Y-9295889D01*
X14478515Y-9295889D02*
X14478515Y-9238746D01*
X14478515Y-9238746D02*
X14488039Y-9219698D01*
X14488039Y-9219698D02*
X14497563Y-9210174D01*
X14497563Y-9210174D02*
X14516610Y-9200650D01*
X14516610Y-9200650D02*
X14545182Y-9200650D01*
X14545182Y-9200650D02*
X14564230Y-9210174D01*
X14564230Y-9210174D02*
X14573753Y-9219698D01*
X14573753Y-9219698D02*
X14583277Y-9238746D01*
X14583277Y-9238746D02*
X14583277Y-9295889D01*
X14583277Y-9295889D02*
X14573753Y-9314936D01*
X14573753Y-9314936D02*
X14564230Y-9324460D01*
X14564230Y-9324460D02*
X14545182Y-9333984D01*
X14545182Y-9333984D02*
X14516610Y-9333984D01*
X14697563Y-9333984D02*
X14678515Y-9324460D01*
X14678515Y-9324460D02*
X14668991Y-9305412D01*
X14668991Y-9305412D02*
X14668991Y-9133984D01*
X14849944Y-9324460D02*
X14830896Y-9333984D01*
X14830896Y-9333984D02*
X14792801Y-9333984D01*
X14792801Y-9333984D02*
X14773753Y-9324460D01*
X14773753Y-9324460D02*
X14764230Y-9305412D01*
X14764230Y-9305412D02*
X14764230Y-9229222D01*
X14764230Y-9229222D02*
X14773753Y-9210174D01*
X14773753Y-9210174D02*
X14792801Y-9200650D01*
X14792801Y-9200650D02*
X14830896Y-9200650D01*
X14830896Y-9200650D02*
X14849944Y-9210174D01*
X14849944Y-9210174D02*
X14859468Y-9229222D01*
X14859468Y-9229222D02*
X14859468Y-9248270D01*
X14859468Y-9248270D02*
X14764230Y-9267317D01*
X14935658Y-9324460D02*
X14954706Y-9333984D01*
X14954706Y-9333984D02*
X14992801Y-9333984D01*
X14992801Y-9333984D02*
X15011849Y-9324460D01*
X15011849Y-9324460D02*
X15021372Y-9305412D01*
X15021372Y-9305412D02*
X15021372Y-9295889D01*
X15021372Y-9295889D02*
X15011849Y-9276841D01*
X15011849Y-9276841D02*
X14992801Y-9267317D01*
X14992801Y-9267317D02*
X14964230Y-9267317D01*
X14964230Y-9267317D02*
X14945182Y-9257793D01*
X14945182Y-9257793D02*
X14935658Y-9238746D01*
X14935658Y-9238746D02*
X14935658Y-9229222D01*
X14935658Y-9229222D02*
X14945182Y-9210174D01*
X14945182Y-9210174D02*
X14964230Y-9200650D01*
X14964230Y-9200650D02*
X14992801Y-9200650D01*
X14992801Y-9200650D02*
X15011849Y-9210174D01*
X15088039Y-9410174D02*
X15097563Y-9400650D01*
X15097563Y-9400650D02*
X15116611Y-9372079D01*
X15116611Y-9372079D02*
X15126134Y-9353031D01*
X15126134Y-9353031D02*
X15135658Y-9324460D01*
X15135658Y-9324460D02*
X15145182Y-9276841D01*
X15145182Y-9276841D02*
X15145182Y-9238746D01*
X15145182Y-9238746D02*
X15135658Y-9191127D01*
X15135658Y-9191127D02*
X15126134Y-9162555D01*
X15126134Y-9162555D02*
X15116611Y-9143508D01*
X15116611Y-9143508D02*
X15097563Y-9114936D01*
X15097563Y-9114936D02*
X15088039Y-9105412D01*
D12*
X10122500Y-9506500D02*
G75*
G02*
X10022500Y-9506500I-50000J0D01*
G01*
X10022500Y-9506500D02*
G75*
G02*
X10122500Y-9506500I50000J0D01*
G01*
D11*
X10488039Y-9597984D02*
X10373753Y-9597984D01*
X10430896Y-9597984D02*
X10430896Y-9397984D01*
X10430896Y-9397984D02*
X10411848Y-9426555D01*
X10411848Y-9426555D02*
X10392801Y-9445603D01*
X10392801Y-9445603D02*
X10373753Y-9455127D01*
X10573753Y-9578936D02*
X10583277Y-9588460D01*
X10583277Y-9588460D02*
X10573753Y-9597984D01*
X10573753Y-9597984D02*
X10564229Y-9588460D01*
X10564229Y-9588460D02*
X10573753Y-9578936D01*
X10573753Y-9578936D02*
X10573753Y-9597984D01*
X10707086Y-9397984D02*
X10726134Y-9397984D01*
X10726134Y-9397984D02*
X10745182Y-9407508D01*
X10745182Y-9407508D02*
X10754705Y-9417031D01*
X10754705Y-9417031D02*
X10764229Y-9436079D01*
X10764229Y-9436079D02*
X10773753Y-9474174D01*
X10773753Y-9474174D02*
X10773753Y-9521793D01*
X10773753Y-9521793D02*
X10764229Y-9559889D01*
X10764229Y-9559889D02*
X10754705Y-9578936D01*
X10754705Y-9578936D02*
X10745182Y-9588460D01*
X10745182Y-9588460D02*
X10726134Y-9597984D01*
X10726134Y-9597984D02*
X10707086Y-9597984D01*
X10707086Y-9597984D02*
X10688039Y-9588460D01*
X10688039Y-9588460D02*
X10678515Y-9578936D01*
X10678515Y-9578936D02*
X10668991Y-9559889D01*
X10668991Y-9559889D02*
X10659467Y-9521793D01*
X10659467Y-9521793D02*
X10659467Y-9474174D01*
X10659467Y-9474174D02*
X10668991Y-9436079D01*
X10668991Y-9436079D02*
X10678515Y-9417031D01*
X10678515Y-9417031D02*
X10688039Y-9407508D01*
X10688039Y-9407508D02*
X10707086Y-9397984D01*
X10897563Y-9397984D02*
X10916610Y-9397984D01*
X10916610Y-9397984D02*
X10935658Y-9407508D01*
X10935658Y-9407508D02*
X10945182Y-9417031D01*
X10945182Y-9417031D02*
X10954705Y-9436079D01*
X10954705Y-9436079D02*
X10964229Y-9474174D01*
X10964229Y-9474174D02*
X10964229Y-9521793D01*
X10964229Y-9521793D02*
X10954705Y-9559889D01*
X10954705Y-9559889D02*
X10945182Y-9578936D01*
X10945182Y-9578936D02*
X10935658Y-9588460D01*
X10935658Y-9588460D02*
X10916610Y-9597984D01*
X10916610Y-9597984D02*
X10897563Y-9597984D01*
X10897563Y-9597984D02*
X10878515Y-9588460D01*
X10878515Y-9588460D02*
X10868991Y-9578936D01*
X10868991Y-9578936D02*
X10859467Y-9559889D01*
X10859467Y-9559889D02*
X10849944Y-9521793D01*
X10849944Y-9521793D02*
X10849944Y-9474174D01*
X10849944Y-9474174D02*
X10859467Y-9436079D01*
X10859467Y-9436079D02*
X10868991Y-9417031D01*
X10868991Y-9417031D02*
X10878515Y-9407508D01*
X10878515Y-9407508D02*
X10897563Y-9397984D01*
X11088039Y-9397984D02*
X11107086Y-9397984D01*
X11107086Y-9397984D02*
X11126134Y-9407508D01*
X11126134Y-9407508D02*
X11135658Y-9417031D01*
X11135658Y-9417031D02*
X11145182Y-9436079D01*
X11145182Y-9436079D02*
X11154705Y-9474174D01*
X11154705Y-9474174D02*
X11154705Y-9521793D01*
X11154705Y-9521793D02*
X11145182Y-9559889D01*
X11145182Y-9559889D02*
X11135658Y-9578936D01*
X11135658Y-9578936D02*
X11126134Y-9588460D01*
X11126134Y-9588460D02*
X11107086Y-9597984D01*
X11107086Y-9597984D02*
X11088039Y-9597984D01*
X11088039Y-9597984D02*
X11068991Y-9588460D01*
X11068991Y-9588460D02*
X11059467Y-9578936D01*
X11059467Y-9578936D02*
X11049944Y-9559889D01*
X11049944Y-9559889D02*
X11040420Y-9521793D01*
X11040420Y-9521793D02*
X11040420Y-9474174D01*
X11040420Y-9474174D02*
X11049944Y-9436079D01*
X11049944Y-9436079D02*
X11059467Y-9417031D01*
X11059467Y-9417031D02*
X11068991Y-9407508D01*
X11068991Y-9407508D02*
X11088039Y-9397984D01*
X11240420Y-9597984D02*
X11240420Y-9464650D01*
X11240420Y-9483698D02*
X11249943Y-9474174D01*
X11249943Y-9474174D02*
X11268991Y-9464650D01*
X11268991Y-9464650D02*
X11297563Y-9464650D01*
X11297563Y-9464650D02*
X11316610Y-9474174D01*
X11316610Y-9474174D02*
X11326134Y-9493222D01*
X11326134Y-9493222D02*
X11326134Y-9597984D01*
X11326134Y-9493222D02*
X11335658Y-9474174D01*
X11335658Y-9474174D02*
X11354705Y-9464650D01*
X11354705Y-9464650D02*
X11383277Y-9464650D01*
X11383277Y-9464650D02*
X11402324Y-9474174D01*
X11402324Y-9474174D02*
X11411848Y-9493222D01*
X11411848Y-9493222D02*
X11411848Y-9597984D01*
X11507086Y-9597984D02*
X11507086Y-9464650D01*
X11507086Y-9483698D02*
X11516610Y-9474174D01*
X11516610Y-9474174D02*
X11535658Y-9464650D01*
X11535658Y-9464650D02*
X11564229Y-9464650D01*
X11564229Y-9464650D02*
X11583277Y-9474174D01*
X11583277Y-9474174D02*
X11592801Y-9493222D01*
X11592801Y-9493222D02*
X11592801Y-9597984D01*
X11592801Y-9493222D02*
X11602324Y-9474174D01*
X11602324Y-9474174D02*
X11621372Y-9464650D01*
X11621372Y-9464650D02*
X11649943Y-9464650D01*
X11649943Y-9464650D02*
X11668991Y-9474174D01*
X11668991Y-9474174D02*
X11678515Y-9493222D01*
X11678515Y-9493222D02*
X11678515Y-9597984D01*
X12068991Y-9388460D02*
X11897563Y-9645603D01*
X12326134Y-9397984D02*
X12345182Y-9397984D01*
X12345182Y-9397984D02*
X12364229Y-9407508D01*
X12364229Y-9407508D02*
X12373753Y-9417031D01*
X12373753Y-9417031D02*
X12383277Y-9436079D01*
X12383277Y-9436079D02*
X12392801Y-9474174D01*
X12392801Y-9474174D02*
X12392801Y-9521793D01*
X12392801Y-9521793D02*
X12383277Y-9559889D01*
X12383277Y-9559889D02*
X12373753Y-9578936D01*
X12373753Y-9578936D02*
X12364229Y-9588460D01*
X12364229Y-9588460D02*
X12345182Y-9597984D01*
X12345182Y-9597984D02*
X12326134Y-9597984D01*
X12326134Y-9597984D02*
X12307086Y-9588460D01*
X12307086Y-9588460D02*
X12297563Y-9578936D01*
X12297563Y-9578936D02*
X12288039Y-9559889D01*
X12288039Y-9559889D02*
X12278515Y-9521793D01*
X12278515Y-9521793D02*
X12278515Y-9474174D01*
X12278515Y-9474174D02*
X12288039Y-9436079D01*
X12288039Y-9436079D02*
X12297563Y-9417031D01*
X12297563Y-9417031D02*
X12307086Y-9407508D01*
X12307086Y-9407508D02*
X12326134Y-9397984D01*
X12478515Y-9578936D02*
X12488039Y-9588460D01*
X12488039Y-9588460D02*
X12478515Y-9597984D01*
X12478515Y-9597984D02*
X12468991Y-9588460D01*
X12468991Y-9588460D02*
X12478515Y-9578936D01*
X12478515Y-9578936D02*
X12478515Y-9597984D01*
X12611848Y-9397984D02*
X12630896Y-9397984D01*
X12630896Y-9397984D02*
X12649944Y-9407508D01*
X12649944Y-9407508D02*
X12659467Y-9417031D01*
X12659467Y-9417031D02*
X12668991Y-9436079D01*
X12668991Y-9436079D02*
X12678515Y-9474174D01*
X12678515Y-9474174D02*
X12678515Y-9521793D01*
X12678515Y-9521793D02*
X12668991Y-9559889D01*
X12668991Y-9559889D02*
X12659467Y-9578936D01*
X12659467Y-9578936D02*
X12649944Y-9588460D01*
X12649944Y-9588460D02*
X12630896Y-9597984D01*
X12630896Y-9597984D02*
X12611848Y-9597984D01*
X12611848Y-9597984D02*
X12592801Y-9588460D01*
X12592801Y-9588460D02*
X12583277Y-9578936D01*
X12583277Y-9578936D02*
X12573753Y-9559889D01*
X12573753Y-9559889D02*
X12564229Y-9521793D01*
X12564229Y-9521793D02*
X12564229Y-9474174D01*
X12564229Y-9474174D02*
X12573753Y-9436079D01*
X12573753Y-9436079D02*
X12583277Y-9417031D01*
X12583277Y-9417031D02*
X12592801Y-9407508D01*
X12592801Y-9407508D02*
X12611848Y-9397984D01*
X12745182Y-9397984D02*
X12868991Y-9397984D01*
X12868991Y-9397984D02*
X12802325Y-9474174D01*
X12802325Y-9474174D02*
X12830896Y-9474174D01*
X12830896Y-9474174D02*
X12849944Y-9483698D01*
X12849944Y-9483698D02*
X12859467Y-9493222D01*
X12859467Y-9493222D02*
X12868991Y-9512270D01*
X12868991Y-9512270D02*
X12868991Y-9559889D01*
X12868991Y-9559889D02*
X12859467Y-9578936D01*
X12859467Y-9578936D02*
X12849944Y-9588460D01*
X12849944Y-9588460D02*
X12830896Y-9597984D01*
X12830896Y-9597984D02*
X12773753Y-9597984D01*
X12773753Y-9597984D02*
X12754706Y-9588460D01*
X12754706Y-9588460D02*
X12745182Y-9578936D01*
X12964229Y-9597984D02*
X13002325Y-9597984D01*
X13002325Y-9597984D02*
X13021372Y-9588460D01*
X13021372Y-9588460D02*
X13030896Y-9578936D01*
X13030896Y-9578936D02*
X13049944Y-9550365D01*
X13049944Y-9550365D02*
X13059467Y-9512270D01*
X13059467Y-9512270D02*
X13059467Y-9436079D01*
X13059467Y-9436079D02*
X13049944Y-9417031D01*
X13049944Y-9417031D02*
X13040420Y-9407508D01*
X13040420Y-9407508D02*
X13021372Y-9397984D01*
X13021372Y-9397984D02*
X12983277Y-9397984D01*
X12983277Y-9397984D02*
X12964229Y-9407508D01*
X12964229Y-9407508D02*
X12954706Y-9417031D01*
X12954706Y-9417031D02*
X12945182Y-9436079D01*
X12945182Y-9436079D02*
X12945182Y-9483698D01*
X12945182Y-9483698D02*
X12954706Y-9502746D01*
X12954706Y-9502746D02*
X12964229Y-9512270D01*
X12964229Y-9512270D02*
X12983277Y-9521793D01*
X12983277Y-9521793D02*
X13021372Y-9521793D01*
X13021372Y-9521793D02*
X13040420Y-9512270D01*
X13040420Y-9512270D02*
X13049944Y-9502746D01*
X13049944Y-9502746D02*
X13059467Y-9483698D01*
X13230896Y-9464650D02*
X13230896Y-9597984D01*
X13183277Y-9388460D02*
X13135658Y-9531317D01*
X13135658Y-9531317D02*
X13259467Y-9531317D01*
X13326134Y-9397984D02*
X13326134Y-9436079D01*
X13402325Y-9397984D02*
X13402325Y-9436079D01*
X13697563Y-9674174D02*
X13688039Y-9664650D01*
X13688039Y-9664650D02*
X13668991Y-9636079D01*
X13668991Y-9636079D02*
X13659468Y-9617031D01*
X13659468Y-9617031D02*
X13649944Y-9588460D01*
X13649944Y-9588460D02*
X13640420Y-9540841D01*
X13640420Y-9540841D02*
X13640420Y-9502746D01*
X13640420Y-9502746D02*
X13649944Y-9455127D01*
X13649944Y-9455127D02*
X13659468Y-9426555D01*
X13659468Y-9426555D02*
X13668991Y-9407508D01*
X13668991Y-9407508D02*
X13688039Y-9378936D01*
X13688039Y-9378936D02*
X13697563Y-9369412D01*
X13878515Y-9597984D02*
X13764229Y-9597984D01*
X13821372Y-9597984D02*
X13821372Y-9397984D01*
X13821372Y-9397984D02*
X13802325Y-9426555D01*
X13802325Y-9426555D02*
X13783277Y-9445603D01*
X13783277Y-9445603D02*
X13764229Y-9455127D01*
X14002325Y-9397984D02*
X14021372Y-9397984D01*
X14021372Y-9397984D02*
X14040420Y-9407508D01*
X14040420Y-9407508D02*
X14049944Y-9417031D01*
X14049944Y-9417031D02*
X14059468Y-9436079D01*
X14059468Y-9436079D02*
X14068991Y-9474174D01*
X14068991Y-9474174D02*
X14068991Y-9521793D01*
X14068991Y-9521793D02*
X14059468Y-9559889D01*
X14059468Y-9559889D02*
X14049944Y-9578936D01*
X14049944Y-9578936D02*
X14040420Y-9588460D01*
X14040420Y-9588460D02*
X14021372Y-9597984D01*
X14021372Y-9597984D02*
X14002325Y-9597984D01*
X14002325Y-9597984D02*
X13983277Y-9588460D01*
X13983277Y-9588460D02*
X13973753Y-9578936D01*
X13973753Y-9578936D02*
X13964229Y-9559889D01*
X13964229Y-9559889D02*
X13954706Y-9521793D01*
X13954706Y-9521793D02*
X13954706Y-9474174D01*
X13954706Y-9474174D02*
X13964229Y-9436079D01*
X13964229Y-9436079D02*
X13973753Y-9417031D01*
X13973753Y-9417031D02*
X13983277Y-9407508D01*
X13983277Y-9407508D02*
X14002325Y-9397984D01*
X14307087Y-9597984D02*
X14307087Y-9397984D01*
X14392801Y-9597984D02*
X14392801Y-9493222D01*
X14392801Y-9493222D02*
X14383277Y-9474174D01*
X14383277Y-9474174D02*
X14364230Y-9464650D01*
X14364230Y-9464650D02*
X14335658Y-9464650D01*
X14335658Y-9464650D02*
X14316610Y-9474174D01*
X14316610Y-9474174D02*
X14307087Y-9483698D01*
X14516610Y-9597984D02*
X14497563Y-9588460D01*
X14497563Y-9588460D02*
X14488039Y-9578936D01*
X14488039Y-9578936D02*
X14478515Y-9559889D01*
X14478515Y-9559889D02*
X14478515Y-9502746D01*
X14478515Y-9502746D02*
X14488039Y-9483698D01*
X14488039Y-9483698D02*
X14497563Y-9474174D01*
X14497563Y-9474174D02*
X14516610Y-9464650D01*
X14516610Y-9464650D02*
X14545182Y-9464650D01*
X14545182Y-9464650D02*
X14564230Y-9474174D01*
X14564230Y-9474174D02*
X14573753Y-9483698D01*
X14573753Y-9483698D02*
X14583277Y-9502746D01*
X14583277Y-9502746D02*
X14583277Y-9559889D01*
X14583277Y-9559889D02*
X14573753Y-9578936D01*
X14573753Y-9578936D02*
X14564230Y-9588460D01*
X14564230Y-9588460D02*
X14545182Y-9597984D01*
X14545182Y-9597984D02*
X14516610Y-9597984D01*
X14697563Y-9597984D02*
X14678515Y-9588460D01*
X14678515Y-9588460D02*
X14668991Y-9569412D01*
X14668991Y-9569412D02*
X14668991Y-9397984D01*
X14849944Y-9588460D02*
X14830896Y-9597984D01*
X14830896Y-9597984D02*
X14792801Y-9597984D01*
X14792801Y-9597984D02*
X14773753Y-9588460D01*
X14773753Y-9588460D02*
X14764230Y-9569412D01*
X14764230Y-9569412D02*
X14764230Y-9493222D01*
X14764230Y-9493222D02*
X14773753Y-9474174D01*
X14773753Y-9474174D02*
X14792801Y-9464650D01*
X14792801Y-9464650D02*
X14830896Y-9464650D01*
X14830896Y-9464650D02*
X14849944Y-9474174D01*
X14849944Y-9474174D02*
X14859468Y-9493222D01*
X14859468Y-9493222D02*
X14859468Y-9512270D01*
X14859468Y-9512270D02*
X14764230Y-9531317D01*
X14935658Y-9588460D02*
X14954706Y-9597984D01*
X14954706Y-9597984D02*
X14992801Y-9597984D01*
X14992801Y-9597984D02*
X15011849Y-9588460D01*
X15011849Y-9588460D02*
X15021372Y-9569412D01*
X15021372Y-9569412D02*
X15021372Y-9559889D01*
X15021372Y-9559889D02*
X15011849Y-9540841D01*
X15011849Y-9540841D02*
X14992801Y-9531317D01*
X14992801Y-9531317D02*
X14964230Y-9531317D01*
X14964230Y-9531317D02*
X14945182Y-9521793D01*
X14945182Y-9521793D02*
X14935658Y-9502746D01*
X14935658Y-9502746D02*
X14935658Y-9493222D01*
X14935658Y-9493222D02*
X14945182Y-9474174D01*
X14945182Y-9474174D02*
X14964230Y-9464650D01*
X14964230Y-9464650D02*
X14992801Y-9464650D01*
X14992801Y-9464650D02*
X15011849Y-9474174D01*
X15088039Y-9674174D02*
X15097563Y-9664650D01*
X15097563Y-9664650D02*
X15116611Y-9636079D01*
X15116611Y-9636079D02*
X15126134Y-9617031D01*
X15126134Y-9617031D02*
X15135658Y-9588460D01*
X15135658Y-9588460D02*
X15145182Y-9540841D01*
X15145182Y-9540841D02*
X15145182Y-9502746D01*
X15145182Y-9502746D02*
X15135658Y-9455127D01*
X15135658Y-9455127D02*
X15126134Y-9426555D01*
X15126134Y-9426555D02*
X15116611Y-9407508D01*
X15116611Y-9407508D02*
X15097563Y-9378936D01*
X15097563Y-9378936D02*
X15088039Y-9369412D01*
M02*
