M48
; DRILL file {KiCad 8.0.5} date 2024-10-05T11:22:09+0200
; FORMAT={-:-/ absolute / metric / decimal}
; #@! TF.CreationDate,2024-10-05T11:22:09+02:00
; #@! TF.GenerationSoftware,Kicad,Pcbnew,8.0.5
; #@! TF.FileFunction,Plated,1,2,PTH
FMAT,2
METRIC
; #@! TA.AperFunction,Plated,PTH,ViaDrill
T1C0.300
; #@! TA.AperFunction,Plated,PTH,ComponentDrill
T2C1.000
%
G90
G05
T1
X118.875Y-73.0
X118.975Y-70.113
X120.375Y-79.25
X120.375Y-81.0
X122.759Y-75.771
X123.625Y-77.5
X126.125Y-79.0
X126.706Y-78.0
X126.875Y-76.25
X127.25Y-73.75
X129.75Y-73.75
X129.75Y-83.78
X130.0Y-77.5
X130.5Y-79.75
X130.75Y-82.0
T2
X128.75Y-66.0
X128.75Y-68.54
X133.0Y-66.0
X133.0Y-68.54
X133.0Y-71.08
X133.0Y-73.62
X133.0Y-76.16
X133.0Y-78.7
X133.0Y-81.24
X133.0Y-83.78
M30
