%TF.GenerationSoftware,KiCad,Pcbnew,8.0.5*%
%TF.CreationDate,2024-10-05T11:22:09+02:00*%
%TF.ProjectId,DRV2605-breakout,44525632-3630-4352-9d62-7265616b6f75,rev?*%
%TF.SameCoordinates,Original*%
%TF.FileFunction,Drillmap*%
%TF.FilePolarity,Positive*%
%FSLAX45Y45*%
G04 Gerber Fmt 4.5, Leading zero omitted, Abs format (unit mm)*
G04 Created by KiCad (PCBNEW 8.0.5) date 2024-10-05 11:22:09*
%MOMM*%
%LPD*%
G01*
G04 APERTURE LIST*
%ADD10C,0.050000*%
%ADD11C,0.200000*%
G04 APERTURE END LIST*
D10*
X10175000Y-8600000D02*
G75*
G02*
X10125000Y-8550000I0J50000D01*
G01*
X13525000Y-8550000D02*
G75*
G02*
X13475000Y-8600000I-50000J0D01*
G01*
X10125000Y-6425000D02*
G75*
G02*
X10175000Y-6375000I50000J0D01*
G01*
X13475000Y-6375000D02*
G75*
G02*
X13525000Y-6425000I0J-50000D01*
G01*
X10125000Y-8550000D02*
X10125000Y-6425000D01*
X13525000Y-6425000D02*
X13525000Y-8550000D01*
X13475000Y-8600000D02*
X10175000Y-8600000D01*
X10175000Y-6375000D02*
X13475000Y-6375000D01*
D11*
X10383277Y-8913984D02*
X10383277Y-8713984D01*
X10383277Y-8713984D02*
X10430896Y-8713984D01*
X10430896Y-8713984D02*
X10459467Y-8723508D01*
X10459467Y-8723508D02*
X10478515Y-8742555D01*
X10478515Y-8742555D02*
X10488039Y-8761603D01*
X10488039Y-8761603D02*
X10497563Y-8799698D01*
X10497563Y-8799698D02*
X10497563Y-8828270D01*
X10497563Y-8828270D02*
X10488039Y-8866365D01*
X10488039Y-8866365D02*
X10478515Y-8885412D01*
X10478515Y-8885412D02*
X10459467Y-8904460D01*
X10459467Y-8904460D02*
X10430896Y-8913984D01*
X10430896Y-8913984D02*
X10383277Y-8913984D01*
X10583277Y-8913984D02*
X10583277Y-8780650D01*
X10583277Y-8818746D02*
X10592801Y-8799698D01*
X10592801Y-8799698D02*
X10602324Y-8790174D01*
X10602324Y-8790174D02*
X10621372Y-8780650D01*
X10621372Y-8780650D02*
X10640420Y-8780650D01*
X10707086Y-8913984D02*
X10707086Y-8780650D01*
X10707086Y-8713984D02*
X10697563Y-8723508D01*
X10697563Y-8723508D02*
X10707086Y-8733031D01*
X10707086Y-8733031D02*
X10716610Y-8723508D01*
X10716610Y-8723508D02*
X10707086Y-8713984D01*
X10707086Y-8713984D02*
X10707086Y-8733031D01*
X10830896Y-8913984D02*
X10811848Y-8904460D01*
X10811848Y-8904460D02*
X10802324Y-8885412D01*
X10802324Y-8885412D02*
X10802324Y-8713984D01*
X10935658Y-8913984D02*
X10916610Y-8904460D01*
X10916610Y-8904460D02*
X10907086Y-8885412D01*
X10907086Y-8885412D02*
X10907086Y-8713984D01*
X11164229Y-8913984D02*
X11164229Y-8713984D01*
X11164229Y-8713984D02*
X11230896Y-8856841D01*
X11230896Y-8856841D02*
X11297562Y-8713984D01*
X11297562Y-8713984D02*
X11297562Y-8913984D01*
X11478515Y-8913984D02*
X11478515Y-8809222D01*
X11478515Y-8809222D02*
X11468991Y-8790174D01*
X11468991Y-8790174D02*
X11449943Y-8780650D01*
X11449943Y-8780650D02*
X11411848Y-8780650D01*
X11411848Y-8780650D02*
X11392801Y-8790174D01*
X11478515Y-8904460D02*
X11459467Y-8913984D01*
X11459467Y-8913984D02*
X11411848Y-8913984D01*
X11411848Y-8913984D02*
X11392801Y-8904460D01*
X11392801Y-8904460D02*
X11383277Y-8885412D01*
X11383277Y-8885412D02*
X11383277Y-8866365D01*
X11383277Y-8866365D02*
X11392801Y-8847317D01*
X11392801Y-8847317D02*
X11411848Y-8837793D01*
X11411848Y-8837793D02*
X11459467Y-8837793D01*
X11459467Y-8837793D02*
X11478515Y-8828270D01*
X11573753Y-8780650D02*
X11573753Y-8980650D01*
X11573753Y-8790174D02*
X11592801Y-8780650D01*
X11592801Y-8780650D02*
X11630896Y-8780650D01*
X11630896Y-8780650D02*
X11649943Y-8790174D01*
X11649943Y-8790174D02*
X11659467Y-8799698D01*
X11659467Y-8799698D02*
X11668991Y-8818746D01*
X11668991Y-8818746D02*
X11668991Y-8875889D01*
X11668991Y-8875889D02*
X11659467Y-8894936D01*
X11659467Y-8894936D02*
X11649943Y-8904460D01*
X11649943Y-8904460D02*
X11630896Y-8913984D01*
X11630896Y-8913984D02*
X11592801Y-8913984D01*
X11592801Y-8913984D02*
X11573753Y-8904460D01*
X11754705Y-8894936D02*
X11764229Y-8904460D01*
X11764229Y-8904460D02*
X11754705Y-8913984D01*
X11754705Y-8913984D02*
X11745182Y-8904460D01*
X11745182Y-8904460D02*
X11754705Y-8894936D01*
X11754705Y-8894936D02*
X11754705Y-8913984D01*
X11754705Y-8790174D02*
X11764229Y-8799698D01*
X11764229Y-8799698D02*
X11754705Y-8809222D01*
X11754705Y-8809222D02*
X11745182Y-8799698D01*
X11745182Y-8799698D02*
X11754705Y-8790174D01*
X11754705Y-8790174D02*
X11754705Y-8809222D01*
M02*
