G04 #@! TF.GenerationSoftware,KiCad,Pcbnew,8.0.5*
G04 #@! TF.CreationDate,2024-10-05T11:22:00+02:00*
G04 #@! TF.ProjectId,DRV2605-breakout,44525632-3630-4352-9d62-7265616b6f75,rev?*
G04 #@! TF.SameCoordinates,Original*
G04 #@! TF.FileFunction,Copper,L1,Top*
G04 #@! TF.FilePolarity,Positive*
%FSLAX46Y46*%
G04 Gerber Fmt 4.6, Leading zero omitted, Abs format (unit mm)*
G04 Created by KiCad (PCBNEW 8.0.5) date 2024-10-05 11:22:00*
%MOMM*%
%LPD*%
G01*
G04 APERTURE LIST*
G04 Aperture macros list*
%AMRoundRect*
0 Rectangle with rounded corners*
0 $1 Rounding radius*
0 $2 $3 $4 $5 $6 $7 $8 $9 X,Y pos of 4 corners*
0 Add a 4 corners polygon primitive as box body*
4,1,4,$2,$3,$4,$5,$6,$7,$8,$9,$2,$3,0*
0 Add four circle primitives for the rounded corners*
1,1,$1+$1,$2,$3*
1,1,$1+$1,$4,$5*
1,1,$1+$1,$6,$7*
1,1,$1+$1,$8,$9*
0 Add four rect primitives between the rounded corners*
20,1,$1+$1,$2,$3,$4,$5,0*
20,1,$1+$1,$4,$5,$6,$7,0*
20,1,$1+$1,$6,$7,$8,$9,0*
20,1,$1+$1,$8,$9,$2,$3,0*%
G04 Aperture macros list end*
G04 #@! TA.AperFunction,SMDPad,CuDef*
%ADD10RoundRect,0.075000X-0.650000X-0.075000X0.650000X-0.075000X0.650000X0.075000X-0.650000X0.075000X0*%
G04 #@! TD*
G04 #@! TA.AperFunction,SMDPad,CuDef*
%ADD11RoundRect,0.237500X-0.250000X-0.237500X0.250000X-0.237500X0.250000X0.237500X-0.250000X0.237500X0*%
G04 #@! TD*
G04 #@! TA.AperFunction,SMDPad,CuDef*
%ADD12RoundRect,0.237500X0.250000X0.237500X-0.250000X0.237500X-0.250000X-0.237500X0.250000X-0.237500X0*%
G04 #@! TD*
G04 #@! TA.AperFunction,ComponentPad*
%ADD13C,1.700000*%
G04 #@! TD*
G04 #@! TA.AperFunction,ComponentPad*
%ADD14O,1.700000X1.700000*%
G04 #@! TD*
G04 #@! TA.AperFunction,SMDPad,CuDef*
%ADD15RoundRect,0.237500X0.300000X0.237500X-0.300000X0.237500X-0.300000X-0.237500X0.300000X-0.237500X0*%
G04 #@! TD*
G04 #@! TA.AperFunction,SMDPad,CuDef*
%ADD16RoundRect,0.237500X-0.300000X-0.237500X0.300000X-0.237500X0.300000X0.237500X-0.300000X0.237500X0*%
G04 #@! TD*
G04 #@! TA.AperFunction,ViaPad*
%ADD17C,0.600000*%
G04 #@! TD*
G04 #@! TA.AperFunction,Conductor*
%ADD18C,0.300000*%
G04 #@! TD*
G04 APERTURE END LIST*
D10*
X120475000Y-76500000D03*
X120475000Y-77000000D03*
X120475000Y-77500000D03*
X120475000Y-78000000D03*
X120475000Y-78500000D03*
X124875000Y-78500000D03*
X124875000Y-78000000D03*
X124875000Y-77500000D03*
X124875000Y-77000000D03*
X124875000Y-76500000D03*
D11*
X123625000Y-73000000D03*
X125450000Y-73000000D03*
D12*
X121875000Y-73000000D03*
X120050000Y-73000000D03*
D13*
X133000000Y-66000000D03*
D14*
X133000000Y-68540000D03*
X133000000Y-71080000D03*
X133000000Y-73620000D03*
X133000000Y-76160000D03*
X133000000Y-78700000D03*
X133000000Y-81240000D03*
X133000000Y-83780000D03*
D13*
X128750000Y-66000000D03*
D14*
X128750000Y-68540000D03*
D15*
X125375000Y-74750000D03*
X123650000Y-74750000D03*
D16*
X120150000Y-74750000D03*
X121875000Y-74750000D03*
D17*
X122759140Y-75770733D03*
X129750000Y-73750000D03*
X127250000Y-73750000D03*
X130000000Y-77500000D03*
X130500000Y-79750000D03*
X120375000Y-79250000D03*
X120375000Y-81000000D03*
X129750000Y-83780000D03*
X126125000Y-79000000D03*
X118974659Y-70112607D03*
X118875000Y-73000000D03*
X130750000Y-82000000D03*
X123625000Y-77500000D03*
X126875000Y-76250000D03*
X126705761Y-78000000D03*
D18*
X118974659Y-70150341D02*
X118045000Y-71080000D01*
X118974659Y-70112607D02*
X118974659Y-70150341D01*
X125375000Y-71580000D02*
X125000000Y-71580000D01*
X125000000Y-71580000D02*
X123625000Y-71580000D01*
X133000000Y-73620000D02*
X130960000Y-71580000D01*
X130960000Y-71580000D02*
X125000000Y-71580000D01*
X133000000Y-78700000D02*
X130700000Y-81000000D01*
X130700000Y-81000000D02*
X120375000Y-81000000D01*
X120475000Y-78000000D02*
X119125000Y-78000000D01*
X128750000Y-80000000D02*
X132590000Y-76160000D01*
X118625000Y-79500000D02*
X119125000Y-80000000D01*
X119125000Y-78000000D02*
X118625000Y-78500000D01*
X132590000Y-76160000D02*
X133000000Y-76160000D01*
X118625000Y-78500000D02*
X118625000Y-79500000D01*
X119125000Y-80000000D02*
X128750000Y-80000000D01*
X133000000Y-71080000D02*
X118045000Y-71080000D01*
X123650000Y-74750000D02*
X123650000Y-74879873D01*
X123650000Y-74879873D02*
X122759140Y-75770733D01*
X121875000Y-74750000D02*
X121875000Y-74886593D01*
X121875000Y-74886593D02*
X122759140Y-75770733D01*
X120475000Y-78500000D02*
X119625000Y-78500000D01*
X119375000Y-79000000D02*
X119625000Y-79250000D01*
X119625000Y-78500000D02*
X119375000Y-78750000D01*
X119375000Y-78750000D02*
X119375000Y-79000000D01*
X119625000Y-79250000D02*
X120375000Y-79250000D01*
X120050000Y-73000000D02*
X118875000Y-73000000D01*
X125450000Y-73000000D02*
X125450000Y-71655000D01*
X125450000Y-71655000D02*
X125375000Y-71580000D01*
X123625000Y-73000000D02*
X121875000Y-73000000D01*
X125375000Y-74750000D02*
X123625000Y-73000000D01*
X123625000Y-71580000D02*
X118252106Y-71580000D01*
X117125000Y-72000000D02*
X117125000Y-76207106D01*
X118417894Y-77500000D02*
X120475000Y-77500000D01*
X118045000Y-71080000D02*
X117125000Y-72000000D01*
X117125000Y-76207106D02*
X118417894Y-77500000D01*
X118252106Y-71580000D02*
X117728553Y-72103553D01*
X117728553Y-72103553D02*
X117728553Y-76103553D01*
X117728553Y-76103553D02*
X118625000Y-77000000D01*
X118625000Y-77000000D02*
X120475000Y-77000000D01*
X126125000Y-77000000D02*
X124875000Y-77000000D01*
X126875000Y-76250000D02*
X126125000Y-77000000D01*
X126705761Y-78000000D02*
X124875000Y-78000000D01*
X124875000Y-76500000D02*
X125625000Y-76500000D01*
X125625000Y-76500000D02*
X125875000Y-76250000D01*
X125875000Y-75750000D02*
X125375000Y-75250000D01*
X125875000Y-76250000D02*
X125875000Y-75750000D01*
X125375000Y-75250000D02*
X125375000Y-74750000D01*
X124875000Y-78500000D02*
X123125000Y-78500000D01*
X123125000Y-78500000D02*
X122875000Y-78250000D01*
X122875000Y-78250000D02*
X122875000Y-76750000D01*
X122875000Y-76750000D02*
X123125000Y-76500000D01*
X123125000Y-76500000D02*
X124875000Y-76500000D01*
X124875000Y-77500000D02*
X123625000Y-77500000D01*
X120475000Y-76500000D02*
X119625000Y-76500000D01*
X119625000Y-76500000D02*
X119125000Y-76000000D01*
X119125000Y-76000000D02*
X119125000Y-75000000D01*
X119125000Y-75000000D02*
X119375000Y-74750000D01*
X119375000Y-74750000D02*
X120150000Y-74750000D01*
X129750000Y-83780000D02*
X133000000Y-83780000D01*
X124875000Y-78500000D02*
X125625000Y-78500000D01*
X125625000Y-78500000D02*
X126125000Y-79000000D01*
X133000000Y-66000000D02*
X128750000Y-66000000D01*
X132875000Y-68500000D02*
X128625000Y-68500000D01*
G04 #@! TA.AperFunction,Conductor*
G36*
X131636938Y-78135519D02*
G01*
X131692872Y-78177391D01*
X131717289Y-78242855D01*
X131713380Y-78283793D01*
X131664939Y-78464583D01*
X131664936Y-78464596D01*
X131644341Y-78699999D01*
X131644341Y-78700000D01*
X131664936Y-78935403D01*
X131664939Y-78935416D01*
X131684384Y-79007989D01*
X131682721Y-79077839D01*
X131652290Y-79127762D01*
X130466873Y-80313181D01*
X130405550Y-80346666D01*
X130379192Y-80349500D01*
X129619808Y-80349500D01*
X129552769Y-80329815D01*
X129507014Y-80277011D01*
X129497070Y-80207853D01*
X129526095Y-80144297D01*
X129532127Y-80137819D01*
X130005277Y-79664669D01*
X131505926Y-78164018D01*
X131567247Y-78130535D01*
X131636938Y-78135519D01*
G37*
G04 #@! TD.AperFunction*
G04 #@! TA.AperFunction,Conductor*
G36*
X123843039Y-74519685D02*
G01*
X123888794Y-74572489D01*
X123900000Y-74624000D01*
X123900000Y-74876000D01*
X123880315Y-74943039D01*
X123827511Y-74988794D01*
X123776000Y-75000000D01*
X122125000Y-75000000D01*
X122125000Y-75724999D01*
X122224140Y-75724999D01*
X122224154Y-75724998D01*
X122325152Y-75714680D01*
X122488800Y-75660453D01*
X122488811Y-75660448D01*
X122635534Y-75569947D01*
X122635538Y-75569944D01*
X122674819Y-75530664D01*
X122736142Y-75497179D01*
X122805834Y-75502163D01*
X122850181Y-75530664D01*
X122889461Y-75569944D01*
X122889465Y-75569947D01*
X123005485Y-75641510D01*
X123052210Y-75693458D01*
X123063431Y-75762420D01*
X123035588Y-75826502D01*
X122977519Y-75865358D01*
X122964582Y-75868665D01*
X122935258Y-75874498D01*
X122935255Y-75874499D01*
X122816870Y-75923535D01*
X122710331Y-75994722D01*
X122710324Y-75994728D01*
X122369726Y-76335326D01*
X122369723Y-76335331D01*
X122329579Y-76395413D01*
X122321959Y-76406817D01*
X122321957Y-76406819D01*
X122298539Y-76441864D01*
X122298533Y-76441875D01*
X122249499Y-76560255D01*
X122249497Y-76560261D01*
X122224500Y-76685928D01*
X122224500Y-76685931D01*
X122224500Y-78314069D01*
X122224500Y-78314071D01*
X122224499Y-78314071D01*
X122239064Y-78387286D01*
X122244511Y-78414669D01*
X122249499Y-78439744D01*
X122298535Y-78558127D01*
X122369723Y-78664669D01*
X122369726Y-78664673D01*
X122710327Y-79005274D01*
X122710330Y-79005276D01*
X122789428Y-79058127D01*
X122816873Y-79076465D01*
X122869888Y-79098424D01*
X122900100Y-79110939D01*
X122954504Y-79154780D01*
X122976569Y-79221074D01*
X122959290Y-79288773D01*
X122908153Y-79336384D01*
X122852648Y-79349500D01*
X121382435Y-79349500D01*
X121315396Y-79329815D01*
X121269641Y-79277011D01*
X121259697Y-79207853D01*
X121288722Y-79144297D01*
X121334983Y-79110939D01*
X121391014Y-79087729D01*
X121415228Y-79077700D01*
X121415229Y-79077700D01*
X121415229Y-79077699D01*
X121415233Y-79077698D01*
X121535451Y-78985451D01*
X121627698Y-78865233D01*
X121685687Y-78725236D01*
X121700500Y-78612720D01*
X121700500Y-78387280D01*
X121685687Y-78274764D01*
X121685686Y-78274763D01*
X121684626Y-78266705D01*
X121687689Y-78266301D01*
X121687689Y-78233698D01*
X121684626Y-78233295D01*
X121690079Y-78191873D01*
X121700500Y-78112720D01*
X121700500Y-77887280D01*
X121685687Y-77774764D01*
X121685686Y-77774763D01*
X121684626Y-77766705D01*
X121687689Y-77766301D01*
X121687689Y-77733698D01*
X121684626Y-77733295D01*
X121694077Y-77661505D01*
X121700500Y-77612720D01*
X121700500Y-77387280D01*
X121685687Y-77274764D01*
X121685686Y-77274763D01*
X121684626Y-77266705D01*
X121687689Y-77266301D01*
X121687689Y-77233698D01*
X121684626Y-77233295D01*
X121689207Y-77198498D01*
X121700500Y-77112720D01*
X121700500Y-76887280D01*
X121685687Y-76774764D01*
X121685686Y-76774763D01*
X121684626Y-76766705D01*
X121687689Y-76766301D01*
X121687689Y-76733698D01*
X121684626Y-76733295D01*
X121685687Y-76725236D01*
X121700500Y-76612720D01*
X121700500Y-76387280D01*
X121685687Y-76274764D01*
X121627698Y-76134767D01*
X121535451Y-76014549D01*
X121504084Y-75990480D01*
X121447908Y-75947374D01*
X121406706Y-75890946D01*
X121402551Y-75821200D01*
X121436764Y-75760280D01*
X121498481Y-75727528D01*
X121523394Y-75724999D01*
X121625000Y-75724998D01*
X121625000Y-74624000D01*
X121644685Y-74556961D01*
X121697489Y-74511206D01*
X121749000Y-74500000D01*
X123776000Y-74500000D01*
X123843039Y-74519685D01*
G37*
G04 #@! TD.AperFunction*
G04 #@! TA.AperFunction,Conductor*
G36*
X130706231Y-72250185D02*
G01*
X130726873Y-72266819D01*
X131652290Y-73192236D01*
X131685775Y-73253559D01*
X131684384Y-73312008D01*
X131664937Y-73384589D01*
X131664937Y-73384590D01*
X131644341Y-73619999D01*
X131644341Y-73620000D01*
X131664936Y-73855403D01*
X131664938Y-73855413D01*
X131726094Y-74083655D01*
X131726096Y-74083659D01*
X131726097Y-74083663D01*
X131768005Y-74173535D01*
X131825965Y-74297830D01*
X131825967Y-74297834D01*
X131871070Y-74362247D01*
X131941849Y-74463330D01*
X131961501Y-74491395D01*
X131961506Y-74491402D01*
X132128597Y-74658493D01*
X132128603Y-74658498D01*
X132314158Y-74788425D01*
X132357783Y-74843002D01*
X132364977Y-74912500D01*
X132333454Y-74974855D01*
X132314158Y-74991575D01*
X132128597Y-75121505D01*
X131961505Y-75288597D01*
X131825965Y-75482169D01*
X131825964Y-75482171D01*
X131726098Y-75696335D01*
X131726094Y-75696344D01*
X131664938Y-75924586D01*
X131664936Y-75924596D01*
X131645809Y-76143217D01*
X131620356Y-76208285D01*
X131609962Y-76220090D01*
X128516873Y-79313181D01*
X128455550Y-79346666D01*
X128429192Y-79349500D01*
X127025559Y-79349500D01*
X126958520Y-79329815D01*
X126912765Y-79277011D01*
X126902821Y-79207853D01*
X126908517Y-79184546D01*
X126910367Y-79179257D01*
X126910368Y-79179255D01*
X126916425Y-79125501D01*
X126930565Y-79000003D01*
X126930565Y-78999997D01*
X126916643Y-78876440D01*
X126928697Y-78807618D01*
X126976046Y-78756239D01*
X126998906Y-78745515D01*
X127055283Y-78725789D01*
X127208023Y-78629816D01*
X127335577Y-78502262D01*
X127431550Y-78349522D01*
X127491129Y-78179255D01*
X127496057Y-78135519D01*
X127511326Y-78000003D01*
X127511326Y-77999996D01*
X127491130Y-77820750D01*
X127491129Y-77820745D01*
X127431550Y-77650478D01*
X127335577Y-77497738D01*
X127208023Y-77370184D01*
X127168174Y-77345145D01*
X127055282Y-77274210D01*
X127047966Y-77271650D01*
X126991191Y-77230926D01*
X126965445Y-77165973D01*
X126978903Y-77097412D01*
X127027291Y-77047010D01*
X127047969Y-77037567D01*
X127054252Y-77035368D01*
X127054255Y-77035368D01*
X127224522Y-76975789D01*
X127377262Y-76879816D01*
X127504816Y-76752262D01*
X127600789Y-76599522D01*
X127660368Y-76429255D01*
X127665097Y-76387286D01*
X127680565Y-76250003D01*
X127680565Y-76249996D01*
X127660369Y-76070750D01*
X127660368Y-76070745D01*
X127640703Y-76014547D01*
X127600789Y-75900478D01*
X127504816Y-75747738D01*
X127377262Y-75620184D01*
X127297936Y-75570340D01*
X127224523Y-75524211D01*
X127054254Y-75464631D01*
X127054249Y-75464630D01*
X126875004Y-75444435D01*
X126874996Y-75444435D01*
X126695750Y-75464630D01*
X126695742Y-75464632D01*
X126600449Y-75497977D01*
X126530671Y-75501538D01*
X126470043Y-75466809D01*
X126455368Y-75446594D01*
X126454851Y-75446940D01*
X126433289Y-75414671D01*
X126433287Y-75414667D01*
X126385145Y-75342616D01*
X126364267Y-75275939D01*
X126370541Y-75234722D01*
X126402674Y-75137753D01*
X126413000Y-75036677D01*
X126412999Y-74463324D01*
X126402674Y-74362247D01*
X126348408Y-74198484D01*
X126257840Y-74051650D01*
X126181371Y-73975181D01*
X126147886Y-73913858D01*
X126152870Y-73844166D01*
X126181371Y-73799819D01*
X126205512Y-73775678D01*
X126282840Y-73698350D01*
X126373408Y-73551516D01*
X126427674Y-73387753D01*
X126438000Y-73286677D01*
X126437999Y-72713324D01*
X126427674Y-72612247D01*
X126373408Y-72448484D01*
X126371854Y-72445965D01*
X126355590Y-72419596D01*
X126337150Y-72352204D01*
X126358073Y-72285541D01*
X126411715Y-72240771D01*
X126461129Y-72230500D01*
X130639192Y-72230500D01*
X130706231Y-72250185D01*
G37*
G04 #@! TD.AperFunction*
G04 #@! TA.AperFunction,Conductor*
G36*
X134692539Y-64270185D02*
G01*
X134738294Y-64322989D01*
X134749500Y-64374500D01*
X134749500Y-85375500D01*
X134729815Y-85442539D01*
X134677011Y-85488294D01*
X134625500Y-85499500D01*
X101874500Y-85499500D01*
X101807461Y-85479815D01*
X101761706Y-85427011D01*
X101750500Y-85375500D01*
X101750500Y-71935928D01*
X116474500Y-71935928D01*
X116474500Y-76271176D01*
X116490129Y-76349743D01*
X116490129Y-76349745D01*
X116499497Y-76396843D01*
X116499499Y-76396850D01*
X116548535Y-76515233D01*
X116604855Y-76599523D01*
X116619726Y-76621779D01*
X116619727Y-76621780D01*
X117912618Y-77914669D01*
X118003225Y-78005276D01*
X118017642Y-78014909D01*
X118062448Y-78068522D01*
X118071155Y-78137846D01*
X118051860Y-78186894D01*
X118048540Y-78191862D01*
X118048533Y-78191875D01*
X117999499Y-78310255D01*
X117999497Y-78310261D01*
X117974500Y-78435928D01*
X117974500Y-78435931D01*
X117974500Y-79564069D01*
X117974500Y-79564071D01*
X117974499Y-79564071D01*
X117994511Y-79664669D01*
X117999499Y-79689744D01*
X118019694Y-79738498D01*
X118048534Y-79808125D01*
X118119726Y-79914673D01*
X118710325Y-80505272D01*
X118710332Y-80505278D01*
X118800417Y-80565470D01*
X118811412Y-80572816D01*
X118816873Y-80576465D01*
X118935256Y-80625501D01*
X118935260Y-80625501D01*
X118935261Y-80625502D01*
X119060928Y-80650500D01*
X119060931Y-80650500D01*
X119474441Y-80650500D01*
X119541480Y-80670185D01*
X119587235Y-80722989D01*
X119597179Y-80792147D01*
X119591483Y-80815454D01*
X119589632Y-80820742D01*
X119589630Y-80820750D01*
X119569435Y-80999996D01*
X119569435Y-81000003D01*
X119589630Y-81179249D01*
X119589631Y-81179254D01*
X119649211Y-81349523D01*
X119701659Y-81432993D01*
X119745184Y-81502262D01*
X119872738Y-81629816D01*
X119935904Y-81669506D01*
X119993864Y-81705925D01*
X120025478Y-81725789D01*
X120066091Y-81740000D01*
X120195745Y-81785368D01*
X120195750Y-81785369D01*
X120374996Y-81805565D01*
X120375000Y-81805565D01*
X120375004Y-81805565D01*
X120554249Y-81785369D01*
X120554251Y-81785368D01*
X120554255Y-81785368D01*
X120554258Y-81785366D01*
X120554262Y-81785366D01*
X120683909Y-81740000D01*
X120724522Y-81725789D01*
X120814096Y-81669505D01*
X120880068Y-81650500D01*
X130764071Y-81650500D01*
X130848615Y-81633682D01*
X130889744Y-81625501D01*
X131008127Y-81576465D01*
X131114669Y-81505277D01*
X131593627Y-81026318D01*
X131654949Y-80992834D01*
X131681307Y-80990000D01*
X132566988Y-80990000D01*
X132534075Y-81047007D01*
X132500000Y-81174174D01*
X132500000Y-81305826D01*
X132534075Y-81432993D01*
X132566988Y-81490000D01*
X131669364Y-81490000D01*
X131726567Y-81703486D01*
X131726570Y-81703492D01*
X131826399Y-81917578D01*
X131961894Y-82111082D01*
X132128917Y-82278105D01*
X132314595Y-82408119D01*
X132358219Y-82462696D01*
X132365412Y-82532195D01*
X132333890Y-82594549D01*
X132314595Y-82611269D01*
X132128594Y-82741508D01*
X131961506Y-82908596D01*
X131843854Y-83076623D01*
X131789277Y-83120248D01*
X131742279Y-83129500D01*
X130255068Y-83129500D01*
X130189096Y-83110494D01*
X130099522Y-83054210D01*
X130099518Y-83054209D01*
X129929262Y-82994633D01*
X129929249Y-82994630D01*
X129750004Y-82974435D01*
X129749996Y-82974435D01*
X129570750Y-82994630D01*
X129570745Y-82994631D01*
X129400476Y-83054211D01*
X129247737Y-83150184D01*
X129120184Y-83277737D01*
X129024211Y-83430476D01*
X128964631Y-83600745D01*
X128964630Y-83600750D01*
X128944435Y-83779996D01*
X128944435Y-83780003D01*
X128964630Y-83959249D01*
X128964631Y-83959254D01*
X129024211Y-84129523D01*
X129095931Y-84243664D01*
X129120184Y-84282262D01*
X129247738Y-84409816D01*
X129310904Y-84449506D01*
X129364809Y-84483377D01*
X129400478Y-84505789D01*
X129570739Y-84565366D01*
X129570745Y-84565368D01*
X129570750Y-84565369D01*
X129749996Y-84585565D01*
X129750000Y-84585565D01*
X129750004Y-84585565D01*
X129929249Y-84565369D01*
X129929251Y-84565368D01*
X129929255Y-84565368D01*
X129929258Y-84565366D01*
X129929262Y-84565366D01*
X130019377Y-84533832D01*
X130099522Y-84505789D01*
X130189096Y-84449505D01*
X130255068Y-84430500D01*
X131742278Y-84430500D01*
X131809317Y-84450185D01*
X131843853Y-84483377D01*
X131961500Y-84651395D01*
X131961505Y-84651401D01*
X132128599Y-84818495D01*
X132225384Y-84886265D01*
X132322165Y-84954032D01*
X132322167Y-84954033D01*
X132322170Y-84954035D01*
X132536337Y-85053903D01*
X132764592Y-85115063D01*
X132952918Y-85131539D01*
X132999999Y-85135659D01*
X133000000Y-85135659D01*
X133000001Y-85135659D01*
X133039234Y-85132226D01*
X133235408Y-85115063D01*
X133463663Y-85053903D01*
X133677830Y-84954035D01*
X133871401Y-84818495D01*
X134038495Y-84651401D01*
X134174035Y-84457830D01*
X134273903Y-84243663D01*
X134335063Y-84015408D01*
X134355659Y-83780000D01*
X134335063Y-83544592D01*
X134273903Y-83316337D01*
X134174035Y-83102171D01*
X134156147Y-83076623D01*
X134038494Y-82908597D01*
X133871402Y-82741506D01*
X133871401Y-82741505D01*
X133685405Y-82611269D01*
X133641781Y-82556692D01*
X133634588Y-82487193D01*
X133666110Y-82424839D01*
X133685405Y-82408119D01*
X133871082Y-82278105D01*
X134038105Y-82111082D01*
X134173600Y-81917578D01*
X134273429Y-81703492D01*
X134273432Y-81703486D01*
X134330636Y-81490000D01*
X133433012Y-81490000D01*
X133465925Y-81432993D01*
X133500000Y-81305826D01*
X133500000Y-81174174D01*
X133465925Y-81047007D01*
X133433012Y-80990000D01*
X134330636Y-80990000D01*
X134330635Y-80989999D01*
X134273432Y-80776513D01*
X134273429Y-80776507D01*
X134173600Y-80562422D01*
X134173599Y-80562420D01*
X134038113Y-80368926D01*
X134038108Y-80368920D01*
X133871078Y-80201890D01*
X133685405Y-80071879D01*
X133641780Y-80017302D01*
X133634588Y-79947804D01*
X133666110Y-79885449D01*
X133685406Y-79868730D01*
X133771959Y-79808125D01*
X133871401Y-79738495D01*
X134038495Y-79571401D01*
X134174035Y-79377830D01*
X134273903Y-79163663D01*
X134335063Y-78935408D01*
X134355659Y-78700000D01*
X134335063Y-78464592D01*
X134277564Y-78250000D01*
X134273905Y-78236344D01*
X134273904Y-78236343D01*
X134273903Y-78236337D01*
X134174035Y-78022171D01*
X134168951Y-78014909D01*
X134038494Y-77828597D01*
X133871402Y-77661506D01*
X133871396Y-77661501D01*
X133685842Y-77531575D01*
X133642217Y-77476998D01*
X133635023Y-77407500D01*
X133666546Y-77345145D01*
X133685842Y-77328425D01*
X133708026Y-77312891D01*
X133871401Y-77198495D01*
X134038495Y-77031401D01*
X134174035Y-76837830D01*
X134273903Y-76623663D01*
X134335063Y-76395408D01*
X134355659Y-76160000D01*
X134335063Y-75924592D01*
X134273903Y-75696337D01*
X134174035Y-75482171D01*
X134163279Y-75466809D01*
X134038494Y-75288597D01*
X133871402Y-75121506D01*
X133871396Y-75121501D01*
X133685842Y-74991575D01*
X133642217Y-74936998D01*
X133635023Y-74867500D01*
X133666546Y-74805145D01*
X133685842Y-74788425D01*
X133823732Y-74691873D01*
X133871401Y-74658495D01*
X134038495Y-74491401D01*
X134174035Y-74297830D01*
X134273903Y-74083663D01*
X134335063Y-73855408D01*
X134355659Y-73620000D01*
X134335063Y-73384592D01*
X134273903Y-73156337D01*
X134174035Y-72942171D01*
X134038495Y-72748599D01*
X134038494Y-72748597D01*
X133871402Y-72581506D01*
X133871396Y-72581501D01*
X133685842Y-72451575D01*
X133642217Y-72396998D01*
X133635023Y-72327500D01*
X133666546Y-72265145D01*
X133685842Y-72248425D01*
X133711441Y-72230500D01*
X133871401Y-72118495D01*
X134038495Y-71951401D01*
X134174035Y-71757830D01*
X134273903Y-71543663D01*
X134335063Y-71315408D01*
X134355659Y-71080000D01*
X134335063Y-70844592D01*
X134273903Y-70616337D01*
X134174035Y-70402171D01*
X134156147Y-70376623D01*
X134038494Y-70208597D01*
X133871402Y-70041506D01*
X133871396Y-70041501D01*
X133685842Y-69911575D01*
X133642217Y-69856998D01*
X133635023Y-69787500D01*
X133666546Y-69725145D01*
X133685842Y-69708425D01*
X133708026Y-69692891D01*
X133871401Y-69578495D01*
X134038495Y-69411401D01*
X134174035Y-69217830D01*
X134273903Y-69003663D01*
X134335063Y-68775408D01*
X134355659Y-68540000D01*
X134335063Y-68304592D01*
X134273903Y-68076337D01*
X134174035Y-67862171D01*
X134158685Y-67840248D01*
X134038494Y-67668597D01*
X133871402Y-67501506D01*
X133871396Y-67501501D01*
X133685842Y-67371575D01*
X133642217Y-67316998D01*
X133635023Y-67247500D01*
X133666546Y-67185145D01*
X133685842Y-67168425D01*
X133708026Y-67152891D01*
X133871401Y-67038495D01*
X134038495Y-66871401D01*
X134174035Y-66677830D01*
X134273903Y-66463663D01*
X134335063Y-66235408D01*
X134355659Y-66000000D01*
X134335063Y-65764592D01*
X134273903Y-65536337D01*
X134174035Y-65322171D01*
X134156147Y-65296623D01*
X134038494Y-65128597D01*
X133871402Y-64961506D01*
X133871395Y-64961501D01*
X133677834Y-64825967D01*
X133677830Y-64825965D01*
X133677828Y-64825964D01*
X133463663Y-64726097D01*
X133463659Y-64726096D01*
X133463655Y-64726094D01*
X133235413Y-64664938D01*
X133235403Y-64664936D01*
X133000001Y-64644341D01*
X132999999Y-64644341D01*
X132764596Y-64664936D01*
X132764586Y-64664938D01*
X132536344Y-64726094D01*
X132536335Y-64726098D01*
X132322171Y-64825964D01*
X132322169Y-64825965D01*
X132128597Y-64961505D01*
X131961506Y-65128596D01*
X131843854Y-65296623D01*
X131789277Y-65340248D01*
X131742279Y-65349500D01*
X130007721Y-65349500D01*
X129940682Y-65329815D01*
X129906146Y-65296623D01*
X129788494Y-65128597D01*
X129621402Y-64961506D01*
X129621395Y-64961501D01*
X129427834Y-64825967D01*
X129427830Y-64825965D01*
X129427828Y-64825964D01*
X129213663Y-64726097D01*
X129213659Y-64726096D01*
X129213655Y-64726094D01*
X128985413Y-64664938D01*
X128985403Y-64664936D01*
X128750001Y-64644341D01*
X128749999Y-64644341D01*
X128514596Y-64664936D01*
X128514586Y-64664938D01*
X128286344Y-64726094D01*
X128286335Y-64726098D01*
X128072171Y-64825964D01*
X128072169Y-64825965D01*
X127878597Y-64961505D01*
X127711505Y-65128597D01*
X127575965Y-65322169D01*
X127575964Y-65322171D01*
X127476098Y-65536335D01*
X127476094Y-65536344D01*
X127414938Y-65764586D01*
X127414936Y-65764596D01*
X127394341Y-65999999D01*
X127394341Y-66000000D01*
X127414936Y-66235403D01*
X127414938Y-66235413D01*
X127476094Y-66463655D01*
X127476096Y-66463659D01*
X127476097Y-66463663D01*
X127563221Y-66650500D01*
X127575965Y-66677830D01*
X127575967Y-66677834D01*
X127593853Y-66703377D01*
X127711501Y-66871396D01*
X127711506Y-66871402D01*
X127878597Y-67038493D01*
X127878603Y-67038498D01*
X128064158Y-67168425D01*
X128107783Y-67223002D01*
X128114977Y-67292500D01*
X128083454Y-67354855D01*
X128064158Y-67371575D01*
X127878597Y-67501505D01*
X127711505Y-67668597D01*
X127575965Y-67862169D01*
X127575964Y-67862171D01*
X127476098Y-68076335D01*
X127476094Y-68076344D01*
X127414938Y-68304586D01*
X127414936Y-68304596D01*
X127394341Y-68539999D01*
X127394341Y-68540000D01*
X127414936Y-68775403D01*
X127414938Y-68775413D01*
X127476094Y-69003655D01*
X127476096Y-69003659D01*
X127476097Y-69003663D01*
X127553748Y-69170185D01*
X127575965Y-69217830D01*
X127575967Y-69217834D01*
X127652573Y-69327238D01*
X127711505Y-69411401D01*
X127878599Y-69578495D01*
X127975384Y-69646265D01*
X128072165Y-69714032D01*
X128072167Y-69714033D01*
X128072170Y-69714035D01*
X128286337Y-69813903D01*
X128514592Y-69875063D01*
X128702918Y-69891539D01*
X128749999Y-69895659D01*
X128750000Y-69895659D01*
X128750001Y-69895659D01*
X128789234Y-69892226D01*
X128985408Y-69875063D01*
X129213663Y-69813903D01*
X129427830Y-69714035D01*
X129621401Y-69578495D01*
X129788495Y-69411401D01*
X129924035Y-69217830D01*
X129924036Y-69217826D01*
X129926743Y-69213140D01*
X129928866Y-69214366D01*
X129968169Y-69169687D01*
X130034428Y-69150500D01*
X131715572Y-69150500D01*
X131782611Y-69170185D01*
X131821167Y-69214346D01*
X131823257Y-69213140D01*
X131825965Y-69217831D01*
X131961501Y-69411395D01*
X131961506Y-69411402D01*
X132128597Y-69578493D01*
X132128603Y-69578498D01*
X132314158Y-69708425D01*
X132357783Y-69763002D01*
X132364977Y-69832500D01*
X132333454Y-69894855D01*
X132314158Y-69911575D01*
X132128597Y-70041505D01*
X131961506Y-70208596D01*
X131843854Y-70376623D01*
X131789277Y-70420248D01*
X131742279Y-70429500D01*
X119883275Y-70429500D01*
X119816236Y-70409815D01*
X119770481Y-70357011D01*
X119760055Y-70291617D01*
X119780224Y-70112610D01*
X119780224Y-70112603D01*
X119760028Y-69933357D01*
X119760027Y-69933352D01*
X119739630Y-69875061D01*
X119700448Y-69763085D01*
X119604475Y-69610345D01*
X119476921Y-69482791D01*
X119324182Y-69386818D01*
X119153913Y-69327238D01*
X119153908Y-69327237D01*
X118974663Y-69307042D01*
X118974655Y-69307042D01*
X118795409Y-69327237D01*
X118795404Y-69327238D01*
X118625135Y-69386818D01*
X118472396Y-69482791D01*
X118344843Y-69610344D01*
X118248869Y-69763085D01*
X118189289Y-69933357D01*
X118183683Y-69983112D01*
X118156615Y-70047526D01*
X118148144Y-70056908D01*
X117630330Y-70574724D01*
X116619722Y-71585331D01*
X116619718Y-71585336D01*
X116572195Y-71656463D01*
X116572194Y-71656464D01*
X116548536Y-71691870D01*
X116548534Y-71691874D01*
X116499499Y-71810255D01*
X116499497Y-71810261D01*
X116474500Y-71935928D01*
X101750500Y-71935928D01*
X101750500Y-64374500D01*
X101770185Y-64307461D01*
X101822989Y-64261706D01*
X101874500Y-64250500D01*
X134625500Y-64250500D01*
X134692539Y-64270185D01*
G37*
G04 #@! TD.AperFunction*
M02*
