G04 #@! TF.GenerationSoftware,KiCad,Pcbnew,8.0.5*
G04 #@! TF.CreationDate,2024-10-05T11:22:00+02:00*
G04 #@! TF.ProjectId,DRV2605-breakout,44525632-3630-4352-9d62-7265616b6f75,rev?*
G04 #@! TF.SameCoordinates,Original*
G04 #@! TF.FileFunction,Legend,Bot*
G04 #@! TF.FilePolarity,Positive*
%FSLAX46Y46*%
G04 Gerber Fmt 4.6, Leading zero omitted, Abs format (unit mm)*
G04 Created by KiCad (PCBNEW 8.0.5) date 2024-10-05 11:22:00*
%MOMM*%
%LPD*%
G01*
G04 APERTURE LIST*
%ADD10C,0.100000*%
%ADD11C,0.200000*%
%ADD12C,1.700000*%
%ADD13O,1.700000X1.700000*%
G04 APERTURE END LIST*
D10*
X122853259Y-84372419D02*
X122853259Y-85086704D01*
X122853259Y-85086704D02*
X122900878Y-85229561D01*
X122900878Y-85229561D02*
X122996116Y-85324800D01*
X122996116Y-85324800D02*
X123138973Y-85372419D01*
X123138973Y-85372419D02*
X123234211Y-85372419D01*
X121900878Y-85372419D02*
X122377068Y-85372419D01*
X122377068Y-85372419D02*
X122377068Y-84372419D01*
X120996116Y-85277180D02*
X121043735Y-85324800D01*
X121043735Y-85324800D02*
X121186592Y-85372419D01*
X121186592Y-85372419D02*
X121281830Y-85372419D01*
X121281830Y-85372419D02*
X121424687Y-85324800D01*
X121424687Y-85324800D02*
X121519925Y-85229561D01*
X121519925Y-85229561D02*
X121567544Y-85134323D01*
X121567544Y-85134323D02*
X121615163Y-84943847D01*
X121615163Y-84943847D02*
X121615163Y-84800990D01*
X121615163Y-84800990D02*
X121567544Y-84610514D01*
X121567544Y-84610514D02*
X121519925Y-84515276D01*
X121519925Y-84515276D02*
X121424687Y-84420038D01*
X121424687Y-84420038D02*
X121281830Y-84372419D01*
X121281830Y-84372419D02*
X121186592Y-84372419D01*
X121186592Y-84372419D02*
X121043735Y-84420038D01*
X121043735Y-84420038D02*
X120996116Y-84467657D01*
X120281830Y-84372419D02*
X120281830Y-85086704D01*
X120281830Y-85086704D02*
X120329449Y-85229561D01*
X120329449Y-85229561D02*
X120424687Y-85324800D01*
X120424687Y-85324800D02*
X120567544Y-85372419D01*
X120567544Y-85372419D02*
X120662782Y-85372419D01*
X119329449Y-85372419D02*
X119805639Y-85372419D01*
X119805639Y-85372419D02*
X119805639Y-84372419D01*
X118424687Y-85277180D02*
X118472306Y-85324800D01*
X118472306Y-85324800D02*
X118615163Y-85372419D01*
X118615163Y-85372419D02*
X118710401Y-85372419D01*
X118710401Y-85372419D02*
X118853258Y-85324800D01*
X118853258Y-85324800D02*
X118948496Y-85229561D01*
X118948496Y-85229561D02*
X118996115Y-85134323D01*
X118996115Y-85134323D02*
X119043734Y-84943847D01*
X119043734Y-84943847D02*
X119043734Y-84800990D01*
X119043734Y-84800990D02*
X118996115Y-84610514D01*
X118996115Y-84610514D02*
X118948496Y-84515276D01*
X118948496Y-84515276D02*
X118853258Y-84420038D01*
X118853258Y-84420038D02*
X118710401Y-84372419D01*
X118710401Y-84372419D02*
X118615163Y-84372419D01*
X118615163Y-84372419D02*
X118472306Y-84420038D01*
X118472306Y-84420038D02*
X118424687Y-84467657D01*
X117710401Y-84372419D02*
X117710401Y-85086704D01*
X117710401Y-85086704D02*
X117758020Y-85229561D01*
X117758020Y-85229561D02*
X117853258Y-85324800D01*
X117853258Y-85324800D02*
X117996115Y-85372419D01*
X117996115Y-85372419D02*
X118091353Y-85372419D01*
X116758020Y-85372419D02*
X117234210Y-85372419D01*
X117234210Y-85372419D02*
X117234210Y-84372419D01*
X115853258Y-85277180D02*
X115900877Y-85324800D01*
X115900877Y-85324800D02*
X116043734Y-85372419D01*
X116043734Y-85372419D02*
X116138972Y-85372419D01*
X116138972Y-85372419D02*
X116281829Y-85324800D01*
X116281829Y-85324800D02*
X116377067Y-85229561D01*
X116377067Y-85229561D02*
X116424686Y-85134323D01*
X116424686Y-85134323D02*
X116472305Y-84943847D01*
X116472305Y-84943847D02*
X116472305Y-84800990D01*
X116472305Y-84800990D02*
X116424686Y-84610514D01*
X116424686Y-84610514D02*
X116377067Y-84515276D01*
X116377067Y-84515276D02*
X116281829Y-84420038D01*
X116281829Y-84420038D02*
X116138972Y-84372419D01*
X116138972Y-84372419D02*
X116043734Y-84372419D01*
X116043734Y-84372419D02*
X115900877Y-84420038D01*
X115900877Y-84420038D02*
X115853258Y-84467657D01*
X115138972Y-84372419D02*
X115138972Y-85086704D01*
X115138972Y-85086704D02*
X115186591Y-85229561D01*
X115186591Y-85229561D02*
X115281829Y-85324800D01*
X115281829Y-85324800D02*
X115424686Y-85372419D01*
X115424686Y-85372419D02*
X115519924Y-85372419D01*
X114186591Y-85372419D02*
X114662781Y-85372419D01*
X114662781Y-85372419D02*
X114662781Y-84372419D01*
X113281829Y-85277180D02*
X113329448Y-85324800D01*
X113329448Y-85324800D02*
X113472305Y-85372419D01*
X113472305Y-85372419D02*
X113567543Y-85372419D01*
X113567543Y-85372419D02*
X113710400Y-85324800D01*
X113710400Y-85324800D02*
X113805638Y-85229561D01*
X113805638Y-85229561D02*
X113853257Y-85134323D01*
X113853257Y-85134323D02*
X113900876Y-84943847D01*
X113900876Y-84943847D02*
X113900876Y-84800990D01*
X113900876Y-84800990D02*
X113853257Y-84610514D01*
X113853257Y-84610514D02*
X113805638Y-84515276D01*
X113805638Y-84515276D02*
X113710400Y-84420038D01*
X113710400Y-84420038D02*
X113567543Y-84372419D01*
X113567543Y-84372419D02*
X113472305Y-84372419D01*
X113472305Y-84372419D02*
X113329448Y-84420038D01*
X113329448Y-84420038D02*
X113281829Y-84467657D01*
D11*
G36*
X116839124Y-75666679D02*
G01*
X116861279Y-75710988D01*
X116861279Y-75755876D01*
X116589793Y-75701579D01*
X116607244Y-75666678D01*
X116651553Y-75644524D01*
X116794815Y-75644524D01*
X116839124Y-75666679D01*
G37*
G36*
X117711567Y-75674329D02*
G01*
X117736236Y-75698997D01*
X117766041Y-75758607D01*
X117766041Y-75997107D01*
X117736236Y-76056715D01*
X117711567Y-76081385D01*
X117651958Y-76111191D01*
X117556315Y-76111191D01*
X117496705Y-76081386D01*
X117472038Y-76056718D01*
X117442232Y-75997106D01*
X117442232Y-75758607D01*
X117472037Y-75698997D01*
X117496705Y-75674328D01*
X117556315Y-75644524D01*
X117651958Y-75644524D01*
X117711567Y-75674329D01*
G37*
G36*
X121854425Y-75674329D02*
G01*
X121879094Y-75698997D01*
X121908899Y-75758607D01*
X121908899Y-75997107D01*
X121879094Y-76056715D01*
X121854425Y-76081385D01*
X121794816Y-76111191D01*
X121699173Y-76111191D01*
X121639563Y-76081386D01*
X121614896Y-76056718D01*
X121585090Y-75997106D01*
X121585090Y-75758607D01*
X121614895Y-75698997D01*
X121639563Y-75674328D01*
X121699173Y-75644524D01*
X121794816Y-75644524D01*
X121854425Y-75674329D01*
G37*
G36*
X124124839Y-75666679D02*
G01*
X124146994Y-75710988D01*
X124146994Y-75755876D01*
X123875508Y-75701579D01*
X123892959Y-75666678D01*
X123937268Y-75644524D01*
X124080530Y-75644524D01*
X124124839Y-75666679D01*
G37*
G36*
X127527947Y-75653946D02*
G01*
X127527947Y-76101768D01*
X127509102Y-76111191D01*
X127365840Y-76111191D01*
X127306230Y-76081386D01*
X127281563Y-76056718D01*
X127251757Y-75997106D01*
X127251757Y-75758607D01*
X127281562Y-75698997D01*
X127306230Y-75674328D01*
X127365840Y-75644524D01*
X127509102Y-75644524D01*
X127527947Y-75653946D01*
G37*
G36*
X118718422Y-75635000D02*
G01*
X118461077Y-75635000D01*
X118401467Y-75605195D01*
X118376799Y-75580526D01*
X118346994Y-75520916D01*
X118346994Y-75425274D01*
X118376799Y-75365664D01*
X118401467Y-75340995D01*
X118461077Y-75311191D01*
X118718422Y-75311191D01*
X118718422Y-75635000D01*
G37*
G36*
X125099375Y-75635000D02*
G01*
X124842030Y-75635000D01*
X124782420Y-75605195D01*
X124757752Y-75580526D01*
X124727947Y-75520916D01*
X124727947Y-75425274D01*
X124757752Y-75365664D01*
X124782420Y-75340995D01*
X124842030Y-75311191D01*
X125099375Y-75311191D01*
X125099375Y-75635000D01*
G37*
G36*
X109330613Y-74064385D02*
G01*
X109355282Y-74089053D01*
X109385087Y-74148663D01*
X109385087Y-74387163D01*
X109355282Y-74446771D01*
X109330613Y-74471441D01*
X109271004Y-74501247D01*
X109127742Y-74501247D01*
X109108897Y-74491824D01*
X109108897Y-74044002D01*
X109127742Y-74034580D01*
X109271004Y-74034580D01*
X109330613Y-74064385D01*
G37*
G36*
X110886742Y-74342449D02*
G01*
X110908897Y-74386758D01*
X110908897Y-74434782D01*
X110886742Y-74479091D01*
X110842433Y-74501247D01*
X110651552Y-74501247D01*
X110632707Y-74491824D01*
X110632707Y-74320294D01*
X110842433Y-74320294D01*
X110886742Y-74342449D01*
G37*
G36*
X111759185Y-74064385D02*
G01*
X111783854Y-74089053D01*
X111813659Y-74148663D01*
X111813659Y-74387163D01*
X111783854Y-74446771D01*
X111759185Y-74471441D01*
X111699576Y-74501247D01*
X111603933Y-74501247D01*
X111544323Y-74471442D01*
X111519656Y-74446774D01*
X111489850Y-74387162D01*
X111489850Y-74148663D01*
X111519655Y-74089053D01*
X111544323Y-74064384D01*
X111603933Y-74034580D01*
X111699576Y-74034580D01*
X111759185Y-74064385D01*
G37*
G36*
X112766040Y-74501247D02*
G01*
X112508695Y-74501247D01*
X112449085Y-74471442D01*
X112424418Y-74446774D01*
X112394612Y-74387162D01*
X112394612Y-74291520D01*
X112424417Y-74231910D01*
X112443868Y-74212458D01*
X112548933Y-74177437D01*
X112766040Y-74177437D01*
X112766040Y-74501247D01*
G37*
G36*
X112766040Y-73977437D02*
G01*
X112556314Y-73977437D01*
X112496704Y-73947632D01*
X112472036Y-73922963D01*
X112442231Y-73863353D01*
X112442231Y-73815330D01*
X112472036Y-73755720D01*
X112496704Y-73731051D01*
X112556314Y-73701247D01*
X112766040Y-73701247D01*
X112766040Y-73977437D01*
G37*
G36*
X115902043Y-74064385D02*
G01*
X115926712Y-74089053D01*
X115956517Y-74148663D01*
X115956517Y-74387163D01*
X115926712Y-74446771D01*
X115902043Y-74471441D01*
X115842434Y-74501247D01*
X115746791Y-74501247D01*
X115687181Y-74471442D01*
X115662514Y-74446774D01*
X115632708Y-74387162D01*
X115632708Y-74148663D01*
X115662513Y-74089053D01*
X115687181Y-74064384D01*
X115746791Y-74034580D01*
X115842434Y-74034580D01*
X115902043Y-74064385D01*
G37*
G36*
X117648648Y-74342449D02*
G01*
X117670803Y-74386758D01*
X117670803Y-74434782D01*
X117648648Y-74479091D01*
X117604339Y-74501247D01*
X117413458Y-74501247D01*
X117394613Y-74491824D01*
X117394613Y-74320294D01*
X117604339Y-74320294D01*
X117648648Y-74342449D01*
G37*
G36*
X118505791Y-74056735D02*
G01*
X118527946Y-74101044D01*
X118527946Y-74145932D01*
X118256460Y-74091635D01*
X118273911Y-74056734D01*
X118318220Y-74034580D01*
X118461482Y-74034580D01*
X118505791Y-74056735D01*
G37*
G36*
X120099375Y-74501247D02*
G01*
X119842030Y-74501247D01*
X119782420Y-74471442D01*
X119757753Y-74446774D01*
X119727947Y-74387162D01*
X119727947Y-74291520D01*
X119757752Y-74231910D01*
X119777203Y-74212458D01*
X119882268Y-74177437D01*
X120099375Y-74177437D01*
X120099375Y-74501247D01*
G37*
G36*
X120099375Y-73977437D02*
G01*
X119889649Y-73977437D01*
X119830039Y-73947632D01*
X119805371Y-73922963D01*
X119775566Y-73863353D01*
X119775566Y-73815330D01*
X119805371Y-73755720D01*
X119830039Y-73731051D01*
X119889649Y-73701247D01*
X120099375Y-73701247D01*
X120099375Y-73977437D01*
G37*
G36*
X122711568Y-73731052D02*
G01*
X122736237Y-73755720D01*
X122771690Y-73826627D01*
X122813661Y-73994508D01*
X122813661Y-74207984D01*
X122771690Y-74375865D01*
X122736237Y-74446771D01*
X122711568Y-74471441D01*
X122651959Y-74501247D01*
X122603935Y-74501247D01*
X122544325Y-74471442D01*
X122519658Y-74446774D01*
X122484203Y-74375865D01*
X122442233Y-74207984D01*
X122442233Y-73994509D01*
X122484203Y-73826627D01*
X122519657Y-73755720D01*
X122544325Y-73731051D01*
X122603935Y-73701247D01*
X122651959Y-73701247D01*
X122711568Y-73731052D01*
G37*
G36*
X123711568Y-74112004D02*
G01*
X123736237Y-74136672D01*
X123766042Y-74196282D01*
X123766042Y-74387163D01*
X123736237Y-74446771D01*
X123711568Y-74471441D01*
X123651959Y-74501247D01*
X123508697Y-74501247D01*
X123449087Y-74471442D01*
X123424420Y-74446774D01*
X123394614Y-74387162D01*
X123394614Y-74196282D01*
X123424419Y-74136672D01*
X123449087Y-74112003D01*
X123508697Y-74082199D01*
X123651959Y-74082199D01*
X123711568Y-74112004D01*
G37*
G36*
X127527947Y-74501247D02*
G01*
X127406078Y-74501247D01*
X127301013Y-74466225D01*
X127233943Y-74399155D01*
X127198489Y-74328246D01*
X127156519Y-74160365D01*
X127156519Y-74042128D01*
X127198489Y-73874246D01*
X127233942Y-73803340D01*
X127301014Y-73736268D01*
X127406078Y-73701247D01*
X127527947Y-73701247D01*
X127527947Y-74501247D01*
G37*
G36*
X126527947Y-74025056D02*
G01*
X126270602Y-74025056D01*
X126210992Y-73995251D01*
X126186324Y-73970582D01*
X126156519Y-73910972D01*
X126156519Y-73815330D01*
X126186324Y-73755720D01*
X126210992Y-73731051D01*
X126270602Y-73701247D01*
X126527947Y-73701247D01*
X126527947Y-74025056D01*
G37*
G36*
X127839058Y-76754850D02*
G01*
X108797786Y-76754850D01*
X108797786Y-76020714D01*
X115051755Y-76020714D01*
X115051755Y-76068333D01*
X115053676Y-76087842D01*
X115055051Y-76091162D01*
X115055306Y-76094745D01*
X115062312Y-76113054D01*
X115109931Y-76208293D01*
X115111984Y-76211556D01*
X115112498Y-76213095D01*
X115114160Y-76215011D01*
X115120374Y-76224883D01*
X115129845Y-76233097D01*
X115138062Y-76242572D01*
X115147932Y-76248784D01*
X115149850Y-76250448D01*
X115151390Y-76250961D01*
X115154653Y-76253015D01*
X115249890Y-76300634D01*
X115268199Y-76307640D01*
X115271782Y-76307894D01*
X115275103Y-76309270D01*
X115294612Y-76311191D01*
X115485088Y-76311191D01*
X115504597Y-76309270D01*
X115507917Y-76307894D01*
X115511501Y-76307640D01*
X115529809Y-76300634D01*
X115625047Y-76253015D01*
X115641637Y-76242572D01*
X115667202Y-76213095D01*
X115672005Y-76198684D01*
X115814445Y-76198684D01*
X115817211Y-76237604D01*
X115834660Y-76272503D01*
X115864137Y-76298067D01*
X115901153Y-76310406D01*
X115940073Y-76307640D01*
X115958381Y-76300634D01*
X116053619Y-76253015D01*
X116056881Y-76250961D01*
X116058421Y-76250448D01*
X116060337Y-76248785D01*
X116070209Y-76242572D01*
X116078424Y-76233098D01*
X116087898Y-76224883D01*
X116094111Y-76215011D01*
X116095774Y-76213095D01*
X116096286Y-76211556D01*
X116098341Y-76208293D01*
X116145960Y-76113054D01*
X116152966Y-76094746D01*
X116153220Y-76091162D01*
X116154596Y-76087842D01*
X116156517Y-76068333D01*
X116156517Y-75687381D01*
X116385089Y-75687381D01*
X116385089Y-75782619D01*
X116387010Y-75802128D01*
X116390759Y-75811180D01*
X116392661Y-75820791D01*
X116398152Y-75829027D01*
X116401942Y-75838176D01*
X116408868Y-75845102D01*
X116414304Y-75853256D01*
X116422532Y-75858766D01*
X116429532Y-75865766D01*
X116438583Y-75869515D01*
X116446724Y-75874967D01*
X116465477Y-75880677D01*
X116465578Y-75880697D01*
X116465580Y-75880698D01*
X116465582Y-75880698D01*
X116861279Y-75959837D01*
X116861279Y-76044726D01*
X116839124Y-76089035D01*
X116794815Y-76111191D01*
X116651553Y-76111191D01*
X116577429Y-76074129D01*
X116559121Y-76067123D01*
X116520201Y-76064357D01*
X116483185Y-76076696D01*
X116453708Y-76102260D01*
X116436259Y-76137159D01*
X116433493Y-76176079D01*
X116445832Y-76213095D01*
X116471396Y-76242572D01*
X116487987Y-76253015D01*
X116583224Y-76300634D01*
X116601533Y-76307640D01*
X116605116Y-76307894D01*
X116608437Y-76309270D01*
X116627946Y-76311191D01*
X116818422Y-76311191D01*
X116837931Y-76309270D01*
X116841251Y-76307894D01*
X116844835Y-76307640D01*
X116863143Y-76300634D01*
X116958381Y-76253015D01*
X116961643Y-76250961D01*
X116963183Y-76250448D01*
X116965099Y-76248785D01*
X116974971Y-76242572D01*
X116983186Y-76233098D01*
X116992660Y-76224883D01*
X116998873Y-76215011D01*
X117000536Y-76213095D01*
X117001048Y-76211556D01*
X117003103Y-76208293D01*
X117050722Y-76113054D01*
X117057728Y-76094746D01*
X117057982Y-76091162D01*
X117059358Y-76087842D01*
X117061279Y-76068333D01*
X117061279Y-75735000D01*
X117242232Y-75735000D01*
X117242232Y-76020714D01*
X117244153Y-76040223D01*
X117245528Y-76043543D01*
X117245783Y-76047127D01*
X117252789Y-76065435D01*
X117300408Y-76160673D01*
X117305691Y-76169065D01*
X117306703Y-76171509D01*
X117308959Y-76174258D01*
X117310851Y-76177263D01*
X117312845Y-76178992D01*
X117319140Y-76186662D01*
X117366758Y-76234282D01*
X117374426Y-76240575D01*
X117376158Y-76242572D01*
X117379166Y-76244465D01*
X117381912Y-76246719D01*
X117384352Y-76247729D01*
X117392749Y-76253015D01*
X117487986Y-76300634D01*
X117506295Y-76307640D01*
X117509878Y-76307894D01*
X117513199Y-76309270D01*
X117532708Y-76311191D01*
X117675565Y-76311191D01*
X117695074Y-76309270D01*
X117698394Y-76307894D01*
X117701978Y-76307640D01*
X117720286Y-76300634D01*
X117815524Y-76253015D01*
X117823919Y-76247730D01*
X117826361Y-76246719D01*
X117829108Y-76244463D01*
X117832114Y-76242572D01*
X117833844Y-76240577D01*
X117841514Y-76234282D01*
X117889133Y-76186662D01*
X117895425Y-76178995D01*
X117897422Y-76177264D01*
X117899315Y-76174256D01*
X117901570Y-76171509D01*
X117902581Y-76169067D01*
X117907865Y-76160673D01*
X117955484Y-76065436D01*
X117962490Y-76047127D01*
X117962744Y-76043543D01*
X117964120Y-76040223D01*
X117966041Y-76020714D01*
X117966041Y-75735000D01*
X117964120Y-75715491D01*
X117962744Y-75712170D01*
X117962490Y-75708587D01*
X117955484Y-75690278D01*
X117907865Y-75595041D01*
X117902579Y-75586644D01*
X117901569Y-75584204D01*
X117899315Y-75581458D01*
X117897422Y-75578450D01*
X117895424Y-75576717D01*
X117889132Y-75569051D01*
X117841514Y-75521432D01*
X117833843Y-75515137D01*
X117832114Y-75513143D01*
X117829106Y-75511249D01*
X117826360Y-75508996D01*
X117823920Y-75507985D01*
X117815524Y-75502700D01*
X117720286Y-75455081D01*
X117701978Y-75448075D01*
X117698394Y-75447820D01*
X117695074Y-75446445D01*
X117675565Y-75444524D01*
X117532708Y-75444524D01*
X117513199Y-75446445D01*
X117509878Y-75447820D01*
X117506295Y-75448075D01*
X117487986Y-75455081D01*
X117392749Y-75502700D01*
X117384352Y-75507985D01*
X117381912Y-75508996D01*
X117379166Y-75511249D01*
X117376158Y-75513143D01*
X117374425Y-75515140D01*
X117366759Y-75521433D01*
X117319140Y-75569051D01*
X117312845Y-75576721D01*
X117310851Y-75578451D01*
X117308957Y-75581458D01*
X117306704Y-75584205D01*
X117305693Y-75586644D01*
X117300408Y-75595041D01*
X117252789Y-75690279D01*
X117245783Y-75708587D01*
X117245528Y-75712170D01*
X117244153Y-75715491D01*
X117242232Y-75735000D01*
X117061279Y-75735000D01*
X117061279Y-75687381D01*
X117059358Y-75667872D01*
X117057982Y-75664551D01*
X117057728Y-75660968D01*
X117050722Y-75642659D01*
X117003103Y-75547422D01*
X117001048Y-75544158D01*
X117000536Y-75542620D01*
X116998874Y-75540704D01*
X116992660Y-75530831D01*
X116983184Y-75522613D01*
X116974971Y-75513143D01*
X116965099Y-75506929D01*
X116963183Y-75505267D01*
X116961644Y-75504753D01*
X116958381Y-75502700D01*
X116863143Y-75455081D01*
X116844835Y-75448075D01*
X116841251Y-75447820D01*
X116837931Y-75446445D01*
X116818422Y-75444524D01*
X116627946Y-75444524D01*
X116608437Y-75446445D01*
X116605116Y-75447820D01*
X116601533Y-75448075D01*
X116583224Y-75455081D01*
X116487987Y-75502700D01*
X116484723Y-75504754D01*
X116483185Y-75505267D01*
X116481269Y-75506928D01*
X116471396Y-75513143D01*
X116463178Y-75522618D01*
X116453708Y-75530832D01*
X116447494Y-75540703D01*
X116445832Y-75542620D01*
X116445318Y-75544158D01*
X116443265Y-75547422D01*
X116395646Y-75642660D01*
X116388640Y-75660968D01*
X116388385Y-75664551D01*
X116387010Y-75667872D01*
X116385089Y-75687381D01*
X116156517Y-75687381D01*
X116156517Y-75401667D01*
X118146994Y-75401667D01*
X118146994Y-75544524D01*
X118148915Y-75564033D01*
X118150290Y-75567353D01*
X118150545Y-75570937D01*
X118157551Y-75589245D01*
X118205170Y-75684483D01*
X118210455Y-75692879D01*
X118211466Y-75695319D01*
X118213719Y-75698065D01*
X118215613Y-75701073D01*
X118217607Y-75702802D01*
X118223902Y-75710473D01*
X118271521Y-75758091D01*
X118279187Y-75764383D01*
X118280920Y-75766381D01*
X118283928Y-75768274D01*
X118286674Y-75770528D01*
X118289114Y-75771538D01*
X118297511Y-75776824D01*
X118392748Y-75824443D01*
X118395038Y-75825319D01*
X118165071Y-76153845D01*
X118155457Y-76170929D01*
X118147017Y-76209023D01*
X118153798Y-76247448D01*
X118174767Y-76280353D01*
X118206732Y-76302728D01*
X118244826Y-76311168D01*
X118283251Y-76304387D01*
X118316156Y-76283418D01*
X118328917Y-76268537D01*
X118632392Y-75835000D01*
X118718422Y-75835000D01*
X118718422Y-76211191D01*
X118720343Y-76230700D01*
X118735275Y-76266748D01*
X118762865Y-76294338D01*
X118798913Y-76309270D01*
X118837931Y-76309270D01*
X118873979Y-76294338D01*
X118901569Y-76266748D01*
X118916501Y-76230700D01*
X118918422Y-76211191D01*
X118918422Y-75525015D01*
X119815582Y-75525015D01*
X119815582Y-75564033D01*
X119830514Y-75600081D01*
X119858104Y-75627671D01*
X119894152Y-75642603D01*
X119913661Y-75644524D01*
X120051756Y-75644524D01*
X120051756Y-76044726D01*
X120029601Y-76089035D01*
X119985292Y-76111191D01*
X119913661Y-76111191D01*
X119894152Y-76113112D01*
X119858104Y-76128044D01*
X119830514Y-76155634D01*
X119815582Y-76191682D01*
X119815582Y-76230700D01*
X119830514Y-76266748D01*
X119858104Y-76294338D01*
X119894152Y-76309270D01*
X119913661Y-76311191D01*
X120008899Y-76311191D01*
X120028408Y-76309270D01*
X120031728Y-76307894D01*
X120035312Y-76307640D01*
X120053620Y-76300634D01*
X120148858Y-76253015D01*
X120152120Y-76250961D01*
X120153660Y-76250448D01*
X120155576Y-76248785D01*
X120165448Y-76242572D01*
X120173663Y-76233098D01*
X120183137Y-76224883D01*
X120189350Y-76215011D01*
X120191013Y-76213095D01*
X120191525Y-76211556D01*
X120193580Y-76208293D01*
X120241199Y-76113054D01*
X120248205Y-76094746D01*
X120248459Y-76091162D01*
X120249835Y-76087842D01*
X120251756Y-76068333D01*
X120251756Y-75644524D01*
X120294613Y-75644524D01*
X120314122Y-75642603D01*
X120350170Y-75627671D01*
X120377760Y-75600081D01*
X120392692Y-75564033D01*
X120392692Y-75544524D01*
X120527947Y-75544524D01*
X120527947Y-76211191D01*
X120529868Y-76230700D01*
X120544800Y-76266748D01*
X120572390Y-76294338D01*
X120608438Y-76309270D01*
X120647456Y-76309270D01*
X120683504Y-76294338D01*
X120693499Y-76284342D01*
X120726082Y-76300634D01*
X120744391Y-76307640D01*
X120747974Y-76307894D01*
X120751295Y-76309270D01*
X120770804Y-76311191D01*
X120913661Y-76311191D01*
X120933170Y-76309270D01*
X120936490Y-76307894D01*
X120940074Y-76307640D01*
X120958382Y-76300634D01*
X121053620Y-76253015D01*
X121056882Y-76250961D01*
X121058422Y-76250448D01*
X121060338Y-76248785D01*
X121070210Y-76242572D01*
X121078425Y-76233098D01*
X121087899Y-76224883D01*
X121094112Y-76215011D01*
X121095775Y-76213095D01*
X121096287Y-76211556D01*
X121098342Y-76208293D01*
X121145961Y-76113054D01*
X121152967Y-76094746D01*
X121153221Y-76091162D01*
X121154597Y-76087842D01*
X121156518Y-76068333D01*
X121156518Y-75735000D01*
X121385090Y-75735000D01*
X121385090Y-76020714D01*
X121387011Y-76040223D01*
X121388386Y-76043543D01*
X121388641Y-76047127D01*
X121395647Y-76065435D01*
X121443266Y-76160673D01*
X121448549Y-76169065D01*
X121449561Y-76171509D01*
X121451817Y-76174258D01*
X121453709Y-76177263D01*
X121455703Y-76178992D01*
X121461998Y-76186662D01*
X121509616Y-76234282D01*
X121517284Y-76240575D01*
X121519016Y-76242572D01*
X121522024Y-76244465D01*
X121524770Y-76246719D01*
X121527210Y-76247729D01*
X121535607Y-76253015D01*
X121630844Y-76300634D01*
X121649153Y-76307640D01*
X121652736Y-76307894D01*
X121656057Y-76309270D01*
X121675566Y-76311191D01*
X121818423Y-76311191D01*
X121837932Y-76309270D01*
X121841252Y-76307894D01*
X121844836Y-76307640D01*
X121863144Y-76300634D01*
X121958382Y-76253015D01*
X121966777Y-76247730D01*
X121969219Y-76246719D01*
X121971966Y-76244463D01*
X121974972Y-76242572D01*
X121976702Y-76240577D01*
X121984372Y-76234282D01*
X122031991Y-76186662D01*
X122038283Y-76178995D01*
X122040280Y-76177264D01*
X122042173Y-76174256D01*
X122044428Y-76171509D01*
X122045439Y-76169067D01*
X122050723Y-76160673D01*
X122098342Y-76065436D01*
X122105348Y-76047127D01*
X122105602Y-76043543D01*
X122106978Y-76040223D01*
X122108899Y-76020714D01*
X122108899Y-75735000D01*
X122106978Y-75715491D01*
X122105602Y-75712170D01*
X122105348Y-75708587D01*
X122098342Y-75690278D01*
X122096893Y-75687381D01*
X122337471Y-75687381D01*
X122337471Y-76211191D01*
X122339392Y-76230700D01*
X122354324Y-76266748D01*
X122381914Y-76294338D01*
X122417962Y-76309270D01*
X122456980Y-76309270D01*
X122493028Y-76294338D01*
X122520618Y-76266748D01*
X122535550Y-76230700D01*
X122537471Y-76211191D01*
X122537471Y-75710988D01*
X122559626Y-75666678D01*
X122603935Y-75644524D01*
X122699578Y-75644524D01*
X122759187Y-75674329D01*
X122766042Y-75681183D01*
X122766042Y-76211191D01*
X122767963Y-76230700D01*
X122782895Y-76266748D01*
X122810485Y-76294338D01*
X122846533Y-76309270D01*
X122885551Y-76309270D01*
X122921599Y-76294338D01*
X122949189Y-76266748D01*
X122964121Y-76230700D01*
X122966042Y-76211191D01*
X122966042Y-75544524D01*
X123242232Y-75544524D01*
X123242232Y-76211191D01*
X123244153Y-76230700D01*
X123259085Y-76266748D01*
X123286675Y-76294338D01*
X123322723Y-76309270D01*
X123361741Y-76309270D01*
X123397789Y-76294338D01*
X123425379Y-76266748D01*
X123440311Y-76230700D01*
X123442232Y-76211191D01*
X123442232Y-75687381D01*
X123670804Y-75687381D01*
X123670804Y-75782619D01*
X123672725Y-75802128D01*
X123676474Y-75811180D01*
X123678376Y-75820791D01*
X123683867Y-75829027D01*
X123687657Y-75838176D01*
X123694583Y-75845102D01*
X123700019Y-75853256D01*
X123708247Y-75858766D01*
X123715247Y-75865766D01*
X123724298Y-75869515D01*
X123732439Y-75874967D01*
X123751192Y-75880677D01*
X123751293Y-75880697D01*
X123751295Y-75880698D01*
X123751297Y-75880698D01*
X124146994Y-75959837D01*
X124146994Y-76044726D01*
X124124839Y-76089035D01*
X124080530Y-76111191D01*
X123937268Y-76111191D01*
X123863144Y-76074129D01*
X123844836Y-76067123D01*
X123805916Y-76064357D01*
X123768900Y-76076696D01*
X123739423Y-76102260D01*
X123721974Y-76137159D01*
X123719208Y-76176079D01*
X123731547Y-76213095D01*
X123757111Y-76242572D01*
X123773702Y-76253015D01*
X123868939Y-76300634D01*
X123887248Y-76307640D01*
X123890831Y-76307894D01*
X123894152Y-76309270D01*
X123913661Y-76311191D01*
X124104137Y-76311191D01*
X124123646Y-76309270D01*
X124126966Y-76307894D01*
X124130550Y-76307640D01*
X124148858Y-76300634D01*
X124244096Y-76253015D01*
X124247358Y-76250961D01*
X124248898Y-76250448D01*
X124250814Y-76248785D01*
X124260686Y-76242572D01*
X124268901Y-76233098D01*
X124278375Y-76224883D01*
X124284588Y-76215011D01*
X124286251Y-76213095D01*
X124286763Y-76211556D01*
X124288818Y-76208293D01*
X124336437Y-76113054D01*
X124343443Y-76094746D01*
X124343697Y-76091162D01*
X124345073Y-76087842D01*
X124346994Y-76068333D01*
X124346994Y-75687381D01*
X124345073Y-75667872D01*
X124343697Y-75664551D01*
X124343443Y-75660968D01*
X124336437Y-75642659D01*
X124288818Y-75547422D01*
X124286763Y-75544158D01*
X124286251Y-75542620D01*
X124284589Y-75540704D01*
X124278375Y-75530831D01*
X124268899Y-75522613D01*
X124260686Y-75513143D01*
X124250814Y-75506929D01*
X124248898Y-75505267D01*
X124247359Y-75504753D01*
X124244096Y-75502700D01*
X124148858Y-75455081D01*
X124130550Y-75448075D01*
X124126966Y-75447820D01*
X124123646Y-75446445D01*
X124104137Y-75444524D01*
X123913661Y-75444524D01*
X123894152Y-75446445D01*
X123890831Y-75447820D01*
X123887248Y-75448075D01*
X123868939Y-75455081D01*
X123773702Y-75502700D01*
X123770438Y-75504754D01*
X123768900Y-75505267D01*
X123766984Y-75506928D01*
X123757111Y-75513143D01*
X123748893Y-75522618D01*
X123739423Y-75530832D01*
X123733209Y-75540703D01*
X123731547Y-75542620D01*
X123731033Y-75544158D01*
X123728980Y-75547422D01*
X123681361Y-75642660D01*
X123674355Y-75660968D01*
X123674100Y-75664551D01*
X123672725Y-75667872D01*
X123670804Y-75687381D01*
X123442232Y-75687381D01*
X123442232Y-75544524D01*
X123440311Y-75525015D01*
X123425379Y-75488967D01*
X123397789Y-75461377D01*
X123361741Y-75446445D01*
X123322723Y-75446445D01*
X123286675Y-75461377D01*
X123259085Y-75488967D01*
X123244153Y-75525015D01*
X123242232Y-75544524D01*
X122966042Y-75544524D01*
X122964121Y-75525015D01*
X122949189Y-75488967D01*
X122921599Y-75461377D01*
X122885551Y-75446445D01*
X122846533Y-75446445D01*
X122810485Y-75461377D01*
X122800489Y-75471372D01*
X122767906Y-75455081D01*
X122749598Y-75448075D01*
X122746014Y-75447820D01*
X122742694Y-75446445D01*
X122723185Y-75444524D01*
X122580328Y-75444524D01*
X122560819Y-75446445D01*
X122557498Y-75447820D01*
X122553915Y-75448075D01*
X122535606Y-75455081D01*
X122440369Y-75502700D01*
X122437105Y-75504754D01*
X122435567Y-75505267D01*
X122433651Y-75506928D01*
X122423778Y-75513143D01*
X122415560Y-75522618D01*
X122406090Y-75530832D01*
X122399876Y-75540703D01*
X122398214Y-75542620D01*
X122397700Y-75544158D01*
X122395647Y-75547422D01*
X122348028Y-75642660D01*
X122341022Y-75660968D01*
X122340767Y-75664551D01*
X122339392Y-75667872D01*
X122337471Y-75687381D01*
X122096893Y-75687381D01*
X122050723Y-75595041D01*
X122045437Y-75586644D01*
X122044427Y-75584204D01*
X122042173Y-75581458D01*
X122040280Y-75578450D01*
X122038282Y-75576717D01*
X122031990Y-75569051D01*
X121984372Y-75521432D01*
X121976701Y-75515137D01*
X121974972Y-75513143D01*
X121971964Y-75511249D01*
X121969218Y-75508996D01*
X121966778Y-75507985D01*
X121958382Y-75502700D01*
X121863144Y-75455081D01*
X121844836Y-75448075D01*
X121841252Y-75447820D01*
X121837932Y-75446445D01*
X121818423Y-75444524D01*
X121675566Y-75444524D01*
X121656057Y-75446445D01*
X121652736Y-75447820D01*
X121649153Y-75448075D01*
X121630844Y-75455081D01*
X121535607Y-75502700D01*
X121527210Y-75507985D01*
X121524770Y-75508996D01*
X121522024Y-75511249D01*
X121519016Y-75513143D01*
X121517283Y-75515140D01*
X121509617Y-75521433D01*
X121461998Y-75569051D01*
X121455703Y-75576721D01*
X121453709Y-75578451D01*
X121451815Y-75581458D01*
X121449562Y-75584205D01*
X121448551Y-75586644D01*
X121443266Y-75595041D01*
X121395647Y-75690279D01*
X121388641Y-75708587D01*
X121388386Y-75712170D01*
X121387011Y-75715491D01*
X121385090Y-75735000D01*
X121156518Y-75735000D01*
X121156518Y-75544524D01*
X121154597Y-75525015D01*
X121139665Y-75488967D01*
X121112075Y-75461377D01*
X121076027Y-75446445D01*
X121037009Y-75446445D01*
X121000961Y-75461377D01*
X120973371Y-75488967D01*
X120958439Y-75525015D01*
X120956518Y-75544524D01*
X120956518Y-76044726D01*
X120934363Y-76089035D01*
X120890054Y-76111191D01*
X120794411Y-76111191D01*
X120734801Y-76081386D01*
X120727947Y-76074531D01*
X120727947Y-75544524D01*
X120726026Y-75525015D01*
X120711094Y-75488967D01*
X120683504Y-75461377D01*
X120647456Y-75446445D01*
X120608438Y-75446445D01*
X120572390Y-75461377D01*
X120544800Y-75488967D01*
X120529868Y-75525015D01*
X120527947Y-75544524D01*
X120392692Y-75544524D01*
X120392692Y-75525015D01*
X120377760Y-75488967D01*
X120350170Y-75461377D01*
X120314122Y-75446445D01*
X120294613Y-75444524D01*
X120251756Y-75444524D01*
X120251756Y-75239301D01*
X123196534Y-75239301D01*
X123196534Y-75278319D01*
X123211466Y-75314367D01*
X123223902Y-75329521D01*
X123271521Y-75377139D01*
X123286674Y-75389576D01*
X123297232Y-75393949D01*
X123322723Y-75404508D01*
X123361741Y-75404508D01*
X123368600Y-75401667D01*
X124527947Y-75401667D01*
X124527947Y-75544524D01*
X124529868Y-75564033D01*
X124531243Y-75567353D01*
X124531498Y-75570937D01*
X124538504Y-75589245D01*
X124586123Y-75684483D01*
X124591408Y-75692879D01*
X124592419Y-75695319D01*
X124594672Y-75698065D01*
X124596566Y-75701073D01*
X124598560Y-75702802D01*
X124604855Y-75710473D01*
X124652474Y-75758091D01*
X124660140Y-75764383D01*
X124661873Y-75766381D01*
X124664881Y-75768274D01*
X124667627Y-75770528D01*
X124670067Y-75771538D01*
X124678464Y-75776824D01*
X124773701Y-75824443D01*
X124775991Y-75825319D01*
X124546024Y-76153845D01*
X124536410Y-76170929D01*
X124527970Y-76209023D01*
X124534751Y-76247448D01*
X124555720Y-76280353D01*
X124587685Y-76302728D01*
X124625779Y-76311168D01*
X124664204Y-76304387D01*
X124697109Y-76283418D01*
X124709870Y-76268537D01*
X125013345Y-75835000D01*
X125099375Y-75835000D01*
X125099375Y-76211191D01*
X125101296Y-76230700D01*
X125116228Y-76266748D01*
X125143818Y-76294338D01*
X125179866Y-76309270D01*
X125218884Y-76309270D01*
X125254932Y-76294338D01*
X125282522Y-76266748D01*
X125297454Y-76230700D01*
X125299375Y-76211191D01*
X125299375Y-75559139D01*
X126243306Y-75559139D01*
X126248059Y-75578158D01*
X126486154Y-76244824D01*
X126486955Y-76246520D01*
X126487480Y-76248330D01*
X126582718Y-76486425D01*
X126591747Y-76503825D01*
X126592181Y-76504270D01*
X126592419Y-76504843D01*
X126604855Y-76519997D01*
X126652474Y-76567615D01*
X126660140Y-76573907D01*
X126661873Y-76575905D01*
X126664881Y-76577798D01*
X126667627Y-76580052D01*
X126670067Y-76581062D01*
X126678464Y-76586348D01*
X126773701Y-76633967D01*
X126792010Y-76640973D01*
X126830930Y-76643739D01*
X126867946Y-76631400D01*
X126897423Y-76605835D01*
X126914872Y-76570937D01*
X126917637Y-76532017D01*
X126905299Y-76495001D01*
X126879734Y-76465524D01*
X126863144Y-76455081D01*
X126782420Y-76414719D01*
X126760790Y-76393089D01*
X126687229Y-76209186D01*
X126856582Y-75735000D01*
X127051757Y-75735000D01*
X127051757Y-76020714D01*
X127053678Y-76040223D01*
X127055053Y-76043543D01*
X127055308Y-76047127D01*
X127062314Y-76065435D01*
X127109933Y-76160673D01*
X127115216Y-76169065D01*
X127116228Y-76171509D01*
X127118484Y-76174258D01*
X127120376Y-76177263D01*
X127122370Y-76178992D01*
X127128665Y-76186662D01*
X127176283Y-76234282D01*
X127183951Y-76240575D01*
X127185683Y-76242572D01*
X127188691Y-76244465D01*
X127191437Y-76246719D01*
X127193877Y-76247729D01*
X127202274Y-76253015D01*
X127297511Y-76300634D01*
X127315820Y-76307640D01*
X127319403Y-76307894D01*
X127322724Y-76309270D01*
X127342233Y-76311191D01*
X127532709Y-76311191D01*
X127552218Y-76309270D01*
X127555538Y-76307894D01*
X127559122Y-76307640D01*
X127577430Y-76300634D01*
X127582033Y-76298332D01*
X127608438Y-76309270D01*
X127647456Y-76309270D01*
X127683504Y-76294338D01*
X127711094Y-76266748D01*
X127726026Y-76230700D01*
X127727947Y-76211191D01*
X127727947Y-75211191D01*
X127726026Y-75191682D01*
X127711094Y-75155634D01*
X127683504Y-75128044D01*
X127647456Y-75113112D01*
X127608438Y-75113112D01*
X127572390Y-75128044D01*
X127544800Y-75155634D01*
X127529868Y-75191682D01*
X127527947Y-75211191D01*
X127527947Y-75444524D01*
X127342233Y-75444524D01*
X127322724Y-75446445D01*
X127319403Y-75447820D01*
X127315820Y-75448075D01*
X127297511Y-75455081D01*
X127202274Y-75502700D01*
X127193877Y-75507985D01*
X127191437Y-75508996D01*
X127188691Y-75511249D01*
X127185683Y-75513143D01*
X127183950Y-75515140D01*
X127176284Y-75521433D01*
X127128665Y-75569051D01*
X127122370Y-75576721D01*
X127120376Y-75578451D01*
X127118482Y-75581458D01*
X127116229Y-75584205D01*
X127115218Y-75586644D01*
X127109933Y-75595041D01*
X127062314Y-75690279D01*
X127055308Y-75708587D01*
X127055053Y-75712170D01*
X127053678Y-75715491D01*
X127051757Y-75735000D01*
X126856582Y-75735000D01*
X126912597Y-75578158D01*
X126917350Y-75559139D01*
X126915412Y-75520169D01*
X126898709Y-75484907D01*
X126869783Y-75458721D01*
X126833038Y-75445598D01*
X126794068Y-75447535D01*
X126758806Y-75464239D01*
X126732619Y-75493164D01*
X126724249Y-75510891D01*
X126580328Y-75913869D01*
X126436407Y-75510890D01*
X126428037Y-75493164D01*
X126401850Y-75464238D01*
X126366588Y-75447535D01*
X126327618Y-75445597D01*
X126290873Y-75458720D01*
X126261947Y-75484907D01*
X126245244Y-75520169D01*
X126243306Y-75559139D01*
X125299375Y-75559139D01*
X125299375Y-75211191D01*
X125297454Y-75191682D01*
X125282522Y-75155634D01*
X125254932Y-75128044D01*
X125218884Y-75113112D01*
X125199375Y-75111191D01*
X124818423Y-75111191D01*
X124798914Y-75113112D01*
X124795593Y-75114487D01*
X124792010Y-75114742D01*
X124773701Y-75121748D01*
X124678464Y-75169367D01*
X124670067Y-75174652D01*
X124667627Y-75175663D01*
X124664881Y-75177916D01*
X124661873Y-75179810D01*
X124660140Y-75181807D01*
X124652474Y-75188100D01*
X124604855Y-75235718D01*
X124598560Y-75243388D01*
X124596566Y-75245118D01*
X124594672Y-75248125D01*
X124592419Y-75250872D01*
X124591408Y-75253311D01*
X124586123Y-75261708D01*
X124538504Y-75356946D01*
X124531498Y-75375254D01*
X124531243Y-75378837D01*
X124529868Y-75382158D01*
X124527947Y-75401667D01*
X123368600Y-75401667D01*
X123397789Y-75389576D01*
X123412943Y-75377140D01*
X123460561Y-75329521D01*
X123472998Y-75314368D01*
X123487929Y-75278319D01*
X123487929Y-75239301D01*
X123486445Y-75235718D01*
X123472998Y-75203252D01*
X123460561Y-75188099D01*
X123412943Y-75140480D01*
X123397789Y-75128044D01*
X123361741Y-75113112D01*
X123322723Y-75113112D01*
X123297232Y-75123670D01*
X123286674Y-75128044D01*
X123271521Y-75140481D01*
X123223902Y-75188099D01*
X123211467Y-75203252D01*
X123211466Y-75203253D01*
X123196534Y-75239301D01*
X120251756Y-75239301D01*
X120251756Y-75211191D01*
X120249835Y-75191682D01*
X120234903Y-75155634D01*
X120207313Y-75128044D01*
X120171265Y-75113112D01*
X120132247Y-75113112D01*
X120096199Y-75128044D01*
X120068609Y-75155634D01*
X120053677Y-75191682D01*
X120051756Y-75211191D01*
X120051756Y-75444524D01*
X119913661Y-75444524D01*
X119894152Y-75446445D01*
X119858104Y-75461377D01*
X119830514Y-75488967D01*
X119815582Y-75525015D01*
X118918422Y-75525015D01*
X118918422Y-75211191D01*
X118916501Y-75191682D01*
X118901569Y-75155634D01*
X118873979Y-75128044D01*
X118837931Y-75113112D01*
X118818422Y-75111191D01*
X118437470Y-75111191D01*
X118417961Y-75113112D01*
X118414640Y-75114487D01*
X118411057Y-75114742D01*
X118392748Y-75121748D01*
X118297511Y-75169367D01*
X118289114Y-75174652D01*
X118286674Y-75175663D01*
X118283928Y-75177916D01*
X118280920Y-75179810D01*
X118279187Y-75181807D01*
X118271521Y-75188100D01*
X118223902Y-75235718D01*
X118217607Y-75243388D01*
X118215613Y-75245118D01*
X118213719Y-75248125D01*
X118211466Y-75250872D01*
X118210455Y-75253311D01*
X118205170Y-75261708D01*
X118157551Y-75356946D01*
X118150545Y-75375254D01*
X118150290Y-75378837D01*
X118148915Y-75382158D01*
X118146994Y-75401667D01*
X116156517Y-75401667D01*
X116156517Y-75211191D01*
X116154596Y-75191682D01*
X116139664Y-75155634D01*
X116112074Y-75128044D01*
X116076026Y-75113112D01*
X116037008Y-75113112D01*
X116000960Y-75128044D01*
X115973370Y-75155634D01*
X115958438Y-75191682D01*
X115956517Y-75211191D01*
X115956517Y-76044726D01*
X115934362Y-76089035D01*
X115868939Y-76121748D01*
X115852348Y-76132191D01*
X115826784Y-76161668D01*
X115814445Y-76198684D01*
X115672005Y-76198684D01*
X115679540Y-76176079D01*
X115676775Y-76137159D01*
X115659326Y-76102261D01*
X115629849Y-76076696D01*
X115592833Y-76064357D01*
X115553913Y-76067123D01*
X115535604Y-76074129D01*
X115461481Y-76111191D01*
X115318219Y-76111191D01*
X115273909Y-76089036D01*
X115251755Y-76044726D01*
X115251755Y-76044321D01*
X115273910Y-76000011D01*
X115318219Y-75977857D01*
X115437469Y-75977857D01*
X115456978Y-75975936D01*
X115460298Y-75974560D01*
X115463882Y-75974306D01*
X115482190Y-75967300D01*
X115577428Y-75919681D01*
X115580691Y-75917627D01*
X115582230Y-75917114D01*
X115584146Y-75915451D01*
X115594018Y-75909238D01*
X115602231Y-75899767D01*
X115611707Y-75891550D01*
X115617921Y-75881676D01*
X115619583Y-75879761D01*
X115620095Y-75878222D01*
X115622150Y-75874959D01*
X115669769Y-75779722D01*
X115676775Y-75761413D01*
X115677029Y-75757829D01*
X115678405Y-75754509D01*
X115680326Y-75735000D01*
X115680326Y-75687381D01*
X115678405Y-75667872D01*
X115677029Y-75664551D01*
X115676775Y-75660968D01*
X115669769Y-75642659D01*
X115622150Y-75547422D01*
X115620095Y-75544158D01*
X115619583Y-75542620D01*
X115617921Y-75540704D01*
X115611707Y-75530831D01*
X115602231Y-75522613D01*
X115594018Y-75513143D01*
X115584146Y-75506929D01*
X115582230Y-75505267D01*
X115580691Y-75504753D01*
X115577428Y-75502700D01*
X115482190Y-75455081D01*
X115463882Y-75448075D01*
X115460298Y-75447820D01*
X115456978Y-75446445D01*
X115437469Y-75444524D01*
X115294612Y-75444524D01*
X115275103Y-75446445D01*
X115271782Y-75447820D01*
X115268199Y-75448075D01*
X115249890Y-75455081D01*
X115154653Y-75502700D01*
X115138062Y-75513143D01*
X115112498Y-75542620D01*
X115100159Y-75579636D01*
X115102925Y-75618556D01*
X115120374Y-75653455D01*
X115149851Y-75679019D01*
X115186867Y-75691358D01*
X115225787Y-75688592D01*
X115244095Y-75681586D01*
X115318219Y-75644524D01*
X115413862Y-75644524D01*
X115458171Y-75666679D01*
X115480326Y-75710988D01*
X115480326Y-75711393D01*
X115458171Y-75755701D01*
X115413862Y-75777857D01*
X115294612Y-75777857D01*
X115275103Y-75779778D01*
X115271782Y-75781153D01*
X115268199Y-75781408D01*
X115249890Y-75788414D01*
X115154653Y-75836033D01*
X115151389Y-75838087D01*
X115149851Y-75838600D01*
X115147935Y-75840261D01*
X115138062Y-75846476D01*
X115129844Y-75855951D01*
X115120374Y-75864165D01*
X115114160Y-75874036D01*
X115112498Y-75875953D01*
X115111984Y-75877491D01*
X115109931Y-75880755D01*
X115062312Y-75975993D01*
X115055306Y-75994301D01*
X115055051Y-75997884D01*
X115053676Y-76001205D01*
X115051755Y-76020714D01*
X108797786Y-76020714D01*
X108797786Y-73601247D01*
X108908897Y-73601247D01*
X108908897Y-74601247D01*
X108910818Y-74620756D01*
X108925750Y-74656804D01*
X108953340Y-74684394D01*
X108989388Y-74699326D01*
X109028406Y-74699326D01*
X109054810Y-74688388D01*
X109059413Y-74690690D01*
X109077722Y-74697696D01*
X109081305Y-74697950D01*
X109084626Y-74699326D01*
X109104135Y-74701247D01*
X109294611Y-74701247D01*
X109314120Y-74699326D01*
X109317440Y-74697950D01*
X109321024Y-74697696D01*
X109339332Y-74690690D01*
X109434570Y-74643071D01*
X109442965Y-74637786D01*
X109445407Y-74636775D01*
X109448154Y-74634519D01*
X109451160Y-74632628D01*
X109452890Y-74630633D01*
X109460560Y-74624338D01*
X109508179Y-74576718D01*
X109514471Y-74569051D01*
X109516468Y-74567320D01*
X109518361Y-74564312D01*
X109520616Y-74561565D01*
X109521627Y-74559123D01*
X109526911Y-74550729D01*
X109574530Y-74455492D01*
X109581536Y-74437183D01*
X109581790Y-74433599D01*
X109583166Y-74430279D01*
X109585087Y-74410770D01*
X109585087Y-74125056D01*
X109583166Y-74105547D01*
X109581790Y-74102226D01*
X109581536Y-74098643D01*
X109574530Y-74080334D01*
X109526911Y-73985097D01*
X109521625Y-73976700D01*
X109520615Y-73974260D01*
X109518361Y-73971514D01*
X109516468Y-73968506D01*
X109514470Y-73966773D01*
X109508178Y-73959107D01*
X109464143Y-73915071D01*
X109672723Y-73915071D01*
X109672723Y-73954089D01*
X109687655Y-73990137D01*
X109715245Y-74017727D01*
X109751293Y-74032659D01*
X109770802Y-74034580D01*
X109842433Y-74034580D01*
X109902042Y-74064385D01*
X109926711Y-74089053D01*
X109956516Y-74148663D01*
X109956516Y-74601247D01*
X109958437Y-74620756D01*
X109973369Y-74656804D01*
X110000959Y-74684394D01*
X110037007Y-74699326D01*
X110076025Y-74699326D01*
X110112073Y-74684394D01*
X110139663Y-74656804D01*
X110154595Y-74620756D01*
X110156516Y-74601247D01*
X110156516Y-74077437D01*
X110432707Y-74077437D01*
X110432707Y-74601247D01*
X110434628Y-74620756D01*
X110449560Y-74656804D01*
X110477150Y-74684394D01*
X110513198Y-74699326D01*
X110552216Y-74699326D01*
X110578620Y-74688388D01*
X110583223Y-74690690D01*
X110601532Y-74697696D01*
X110605115Y-74697950D01*
X110608436Y-74699326D01*
X110627945Y-74701247D01*
X110866040Y-74701247D01*
X110885549Y-74699326D01*
X110888869Y-74697950D01*
X110892453Y-74697696D01*
X110910761Y-74690690D01*
X111005999Y-74643071D01*
X111009261Y-74641017D01*
X111010801Y-74640504D01*
X111012717Y-74638841D01*
X111022589Y-74632628D01*
X111030804Y-74623154D01*
X111040278Y-74614939D01*
X111046491Y-74605067D01*
X111048154Y-74603151D01*
X111048666Y-74601612D01*
X111050721Y-74598349D01*
X111098340Y-74503110D01*
X111105346Y-74484802D01*
X111105600Y-74481218D01*
X111106976Y-74477898D01*
X111108897Y-74458389D01*
X111108897Y-74363151D01*
X111106976Y-74343642D01*
X111105600Y-74340321D01*
X111105346Y-74336738D01*
X111098340Y-74318429D01*
X111050721Y-74223192D01*
X111048666Y-74219928D01*
X111048154Y-74218390D01*
X111046492Y-74216474D01*
X111040278Y-74206601D01*
X111030802Y-74198383D01*
X111022589Y-74188913D01*
X111012717Y-74182699D01*
X111010801Y-74181037D01*
X111009262Y-74180523D01*
X111005999Y-74178470D01*
X110910761Y-74130851D01*
X110895618Y-74125056D01*
X111289850Y-74125056D01*
X111289850Y-74410770D01*
X111291771Y-74430279D01*
X111293146Y-74433599D01*
X111293401Y-74437183D01*
X111300407Y-74455491D01*
X111348026Y-74550729D01*
X111353309Y-74559121D01*
X111354321Y-74561565D01*
X111356577Y-74564314D01*
X111358469Y-74567319D01*
X111360463Y-74569048D01*
X111366758Y-74576718D01*
X111414376Y-74624338D01*
X111422044Y-74630631D01*
X111423776Y-74632628D01*
X111426784Y-74634521D01*
X111429530Y-74636775D01*
X111431970Y-74637785D01*
X111440367Y-74643071D01*
X111535604Y-74690690D01*
X111553913Y-74697696D01*
X111557496Y-74697950D01*
X111560817Y-74699326D01*
X111580326Y-74701247D01*
X111723183Y-74701247D01*
X111742692Y-74699326D01*
X111746012Y-74697950D01*
X111749596Y-74697696D01*
X111767904Y-74690690D01*
X111863142Y-74643071D01*
X111871537Y-74637786D01*
X111873979Y-74636775D01*
X111876726Y-74634519D01*
X111879732Y-74632628D01*
X111881462Y-74630633D01*
X111889132Y-74624338D01*
X111936751Y-74576718D01*
X111943043Y-74569051D01*
X111945040Y-74567320D01*
X111946933Y-74564312D01*
X111949188Y-74561565D01*
X111950199Y-74559123D01*
X111955483Y-74550729D01*
X112003102Y-74455492D01*
X112010108Y-74437183D01*
X112010362Y-74433599D01*
X112011738Y-74430279D01*
X112013659Y-74410770D01*
X112013659Y-74267913D01*
X112194612Y-74267913D01*
X112194612Y-74410770D01*
X112196533Y-74430279D01*
X112197908Y-74433599D01*
X112198163Y-74437183D01*
X112205169Y-74455491D01*
X112252788Y-74550729D01*
X112258071Y-74559121D01*
X112259083Y-74561565D01*
X112261339Y-74564314D01*
X112263231Y-74567319D01*
X112265225Y-74569048D01*
X112271520Y-74576718D01*
X112319138Y-74624338D01*
X112326806Y-74630631D01*
X112328538Y-74632628D01*
X112331546Y-74634521D01*
X112334292Y-74636775D01*
X112336732Y-74637785D01*
X112345129Y-74643071D01*
X112440366Y-74690690D01*
X112458675Y-74697696D01*
X112462258Y-74697950D01*
X112465579Y-74699326D01*
X112485088Y-74701247D01*
X112866040Y-74701247D01*
X112885549Y-74699326D01*
X112921597Y-74684394D01*
X112949187Y-74656804D01*
X112964119Y-74620756D01*
X112966040Y-74601247D01*
X112966040Y-73915071D01*
X113863200Y-73915071D01*
X113863200Y-73954089D01*
X113878132Y-73990137D01*
X113905722Y-74017727D01*
X113941770Y-74032659D01*
X113961279Y-74034580D01*
X114099374Y-74034580D01*
X114099374Y-74434782D01*
X114077219Y-74479091D01*
X114032910Y-74501247D01*
X113961279Y-74501247D01*
X113941770Y-74503168D01*
X113905722Y-74518100D01*
X113878132Y-74545690D01*
X113863200Y-74581738D01*
X113863200Y-74620756D01*
X113878132Y-74656804D01*
X113905722Y-74684394D01*
X113941770Y-74699326D01*
X113961279Y-74701247D01*
X114056517Y-74701247D01*
X114076026Y-74699326D01*
X114079346Y-74697950D01*
X114082930Y-74697696D01*
X114101238Y-74690690D01*
X114196476Y-74643071D01*
X114199738Y-74641017D01*
X114201278Y-74640504D01*
X114203194Y-74638841D01*
X114213066Y-74632628D01*
X114221281Y-74623154D01*
X114230755Y-74614939D01*
X114236968Y-74605067D01*
X114238631Y-74603151D01*
X114239143Y-74601612D01*
X114241198Y-74598349D01*
X114288817Y-74503110D01*
X114295823Y-74484802D01*
X114296077Y-74481218D01*
X114297453Y-74477898D01*
X114299374Y-74458389D01*
X114299374Y-74034580D01*
X114342231Y-74034580D01*
X114361740Y-74032659D01*
X114397788Y-74017727D01*
X114425378Y-73990137D01*
X114440310Y-73954089D01*
X114440310Y-73934580D01*
X114575565Y-73934580D01*
X114575565Y-74601247D01*
X114577486Y-74620756D01*
X114592418Y-74656804D01*
X114620008Y-74684394D01*
X114656056Y-74699326D01*
X114695074Y-74699326D01*
X114731122Y-74684394D01*
X114741117Y-74674398D01*
X114773700Y-74690690D01*
X114792009Y-74697696D01*
X114795592Y-74697950D01*
X114798913Y-74699326D01*
X114818422Y-74701247D01*
X114961279Y-74701247D01*
X114980788Y-74699326D01*
X114984108Y-74697950D01*
X114987692Y-74697696D01*
X115006000Y-74690690D01*
X115101238Y-74643071D01*
X115104500Y-74641017D01*
X115106040Y-74640504D01*
X115107956Y-74638841D01*
X115117828Y-74632628D01*
X115126043Y-74623154D01*
X115135517Y-74614939D01*
X115141730Y-74605067D01*
X115143393Y-74603151D01*
X115143905Y-74601612D01*
X115145960Y-74598349D01*
X115193579Y-74503110D01*
X115200585Y-74484802D01*
X115200839Y-74481218D01*
X115202215Y-74477898D01*
X115204136Y-74458389D01*
X115204136Y-74125056D01*
X115432708Y-74125056D01*
X115432708Y-74410770D01*
X115434629Y-74430279D01*
X115436004Y-74433599D01*
X115436259Y-74437183D01*
X115443265Y-74455491D01*
X115490884Y-74550729D01*
X115496167Y-74559121D01*
X115497179Y-74561565D01*
X115499435Y-74564314D01*
X115501327Y-74567319D01*
X115503321Y-74569048D01*
X115509616Y-74576718D01*
X115557234Y-74624338D01*
X115564902Y-74630631D01*
X115566634Y-74632628D01*
X115569642Y-74634521D01*
X115572388Y-74636775D01*
X115574828Y-74637785D01*
X115583225Y-74643071D01*
X115678462Y-74690690D01*
X115696771Y-74697696D01*
X115700354Y-74697950D01*
X115703675Y-74699326D01*
X115723184Y-74701247D01*
X115866041Y-74701247D01*
X115885550Y-74699326D01*
X115888870Y-74697950D01*
X115892454Y-74697696D01*
X115910762Y-74690690D01*
X116006000Y-74643071D01*
X116014395Y-74637786D01*
X116016837Y-74636775D01*
X116019584Y-74634519D01*
X116022590Y-74632628D01*
X116024320Y-74630633D01*
X116031990Y-74624338D01*
X116060522Y-74595805D01*
X116337618Y-74595805D01*
X116343136Y-74634431D01*
X116363015Y-74668005D01*
X116394230Y-74691416D01*
X116432028Y-74701099D01*
X116470654Y-74695581D01*
X116504228Y-74675702D01*
X116517470Y-74661247D01*
X116718422Y-74393310D01*
X116718422Y-74601247D01*
X116720343Y-74620756D01*
X116735275Y-74656804D01*
X116762865Y-74684394D01*
X116798913Y-74699326D01*
X116837931Y-74699326D01*
X116873979Y-74684394D01*
X116901569Y-74656804D01*
X116916501Y-74620756D01*
X116918422Y-74601247D01*
X116918422Y-74077437D01*
X117194613Y-74077437D01*
X117194613Y-74601247D01*
X117196534Y-74620756D01*
X117211466Y-74656804D01*
X117239056Y-74684394D01*
X117275104Y-74699326D01*
X117314122Y-74699326D01*
X117340526Y-74688388D01*
X117345129Y-74690690D01*
X117363438Y-74697696D01*
X117367021Y-74697950D01*
X117370342Y-74699326D01*
X117389851Y-74701247D01*
X117627946Y-74701247D01*
X117647455Y-74699326D01*
X117650775Y-74697950D01*
X117654359Y-74697696D01*
X117672667Y-74690690D01*
X117767905Y-74643071D01*
X117771167Y-74641017D01*
X117772707Y-74640504D01*
X117774623Y-74638841D01*
X117784495Y-74632628D01*
X117792710Y-74623154D01*
X117802184Y-74614939D01*
X117808397Y-74605067D01*
X117810060Y-74603151D01*
X117810572Y-74601612D01*
X117812627Y-74598349D01*
X117860246Y-74503110D01*
X117867252Y-74484802D01*
X117867506Y-74481218D01*
X117868882Y-74477898D01*
X117870803Y-74458389D01*
X117870803Y-74363151D01*
X117868882Y-74343642D01*
X117867506Y-74340321D01*
X117867252Y-74336738D01*
X117860246Y-74318429D01*
X117812627Y-74223192D01*
X117810572Y-74219928D01*
X117810060Y-74218390D01*
X117808398Y-74216474D01*
X117802184Y-74206601D01*
X117792708Y-74198383D01*
X117784495Y-74188913D01*
X117774623Y-74182699D01*
X117772707Y-74181037D01*
X117771168Y-74180523D01*
X117767905Y-74178470D01*
X117672667Y-74130851D01*
X117654359Y-74123845D01*
X117650775Y-74123590D01*
X117647455Y-74122215D01*
X117627946Y-74120294D01*
X117413458Y-74120294D01*
X117394613Y-74110871D01*
X117394613Y-74101044D01*
X117416768Y-74056734D01*
X117461077Y-74034580D01*
X117604339Y-74034580D01*
X117678462Y-74071642D01*
X117696771Y-74078648D01*
X117735691Y-74081414D01*
X117747622Y-74077437D01*
X118051756Y-74077437D01*
X118051756Y-74172675D01*
X118053677Y-74192184D01*
X118057426Y-74201236D01*
X118059328Y-74210847D01*
X118064820Y-74219085D01*
X118068609Y-74228232D01*
X118075535Y-74235158D01*
X118080971Y-74243312D01*
X118089199Y-74248822D01*
X118096199Y-74255822D01*
X118105250Y-74259571D01*
X118113391Y-74265023D01*
X118132144Y-74270733D01*
X118132245Y-74270753D01*
X118132247Y-74270754D01*
X118132249Y-74270754D01*
X118527946Y-74349893D01*
X118527946Y-74434782D01*
X118505791Y-74479091D01*
X118461482Y-74501247D01*
X118318220Y-74501247D01*
X118244096Y-74464185D01*
X118225788Y-74457179D01*
X118186868Y-74454413D01*
X118149852Y-74466752D01*
X118120375Y-74492316D01*
X118102926Y-74527215D01*
X118100160Y-74566135D01*
X118112499Y-74603151D01*
X118138063Y-74632628D01*
X118154654Y-74643071D01*
X118249891Y-74690690D01*
X118268200Y-74697696D01*
X118271783Y-74697950D01*
X118275104Y-74699326D01*
X118294613Y-74701247D01*
X118485089Y-74701247D01*
X118504598Y-74699326D01*
X118507918Y-74697950D01*
X118511502Y-74697696D01*
X118529810Y-74690690D01*
X118625048Y-74643071D01*
X118628310Y-74641017D01*
X118629850Y-74640504D01*
X118631766Y-74638841D01*
X118641638Y-74632628D01*
X118649853Y-74623154D01*
X118659327Y-74614939D01*
X118665540Y-74605067D01*
X118667203Y-74603151D01*
X118667715Y-74601612D01*
X118669770Y-74598349D01*
X118717389Y-74503110D01*
X118724395Y-74484802D01*
X118724649Y-74481218D01*
X118726025Y-74477898D01*
X118727946Y-74458389D01*
X118727946Y-74077437D01*
X118726025Y-74057928D01*
X118724649Y-74054607D01*
X118724395Y-74051024D01*
X118717389Y-74032715D01*
X118669770Y-73937478D01*
X118667715Y-73934214D01*
X118667203Y-73932676D01*
X118665541Y-73930760D01*
X118659327Y-73920887D01*
X118652621Y-73915071D01*
X118815582Y-73915071D01*
X118815582Y-73954089D01*
X118830514Y-73990137D01*
X118858104Y-74017727D01*
X118894152Y-74032659D01*
X118913661Y-74034580D01*
X118985292Y-74034580D01*
X119044901Y-74064385D01*
X119069570Y-74089053D01*
X119099375Y-74148663D01*
X119099375Y-74601247D01*
X119101296Y-74620756D01*
X119116228Y-74656804D01*
X119143818Y-74684394D01*
X119179866Y-74699326D01*
X119218884Y-74699326D01*
X119254932Y-74684394D01*
X119282522Y-74656804D01*
X119297454Y-74620756D01*
X119299375Y-74601247D01*
X119299375Y-74267913D01*
X119527947Y-74267913D01*
X119527947Y-74410770D01*
X119529868Y-74430279D01*
X119531243Y-74433599D01*
X119531498Y-74437183D01*
X119538504Y-74455491D01*
X119586123Y-74550729D01*
X119591406Y-74559121D01*
X119592418Y-74561565D01*
X119594674Y-74564314D01*
X119596566Y-74567319D01*
X119598560Y-74569048D01*
X119604855Y-74576718D01*
X119652473Y-74624338D01*
X119660141Y-74630631D01*
X119661873Y-74632628D01*
X119664881Y-74634521D01*
X119667627Y-74636775D01*
X119670067Y-74637785D01*
X119678464Y-74643071D01*
X119773701Y-74690690D01*
X119792010Y-74697696D01*
X119795593Y-74697950D01*
X119798914Y-74699326D01*
X119818423Y-74701247D01*
X120199375Y-74701247D01*
X120218884Y-74699326D01*
X120254932Y-74684394D01*
X120282522Y-74656804D01*
X120297454Y-74620756D01*
X120299375Y-74601247D01*
X120299375Y-74172675D01*
X121289852Y-74172675D01*
X121289852Y-74410770D01*
X121291773Y-74430279D01*
X121293148Y-74433599D01*
X121293403Y-74437183D01*
X121300409Y-74455491D01*
X121348028Y-74550729D01*
X121353311Y-74559121D01*
X121354323Y-74561565D01*
X121356579Y-74564314D01*
X121358471Y-74567319D01*
X121360465Y-74569048D01*
X121366760Y-74576718D01*
X121414378Y-74624338D01*
X121422046Y-74630631D01*
X121423778Y-74632628D01*
X121426786Y-74634521D01*
X121429532Y-74636775D01*
X121431972Y-74637785D01*
X121440369Y-74643071D01*
X121535606Y-74690690D01*
X121553915Y-74697696D01*
X121557498Y-74697950D01*
X121560819Y-74699326D01*
X121580328Y-74701247D01*
X121818423Y-74701247D01*
X121837932Y-74699326D01*
X121841252Y-74697950D01*
X121844836Y-74697696D01*
X121863144Y-74690690D01*
X121958382Y-74643071D01*
X121966777Y-74637786D01*
X121969219Y-74636775D01*
X121971966Y-74634519D01*
X121974972Y-74632628D01*
X121976702Y-74630633D01*
X121984372Y-74624338D01*
X122031991Y-74576718D01*
X122044428Y-74561565D01*
X122059359Y-74525516D01*
X122059358Y-74486498D01*
X122044427Y-74450450D01*
X122016836Y-74422860D01*
X121980788Y-74407929D01*
X121941770Y-74407930D01*
X121905722Y-74422861D01*
X121890568Y-74435298D01*
X121854425Y-74471441D01*
X121794816Y-74501247D01*
X121603935Y-74501247D01*
X121544325Y-74471442D01*
X121519658Y-74446774D01*
X121489852Y-74387162D01*
X121489852Y-74196282D01*
X121519657Y-74136672D01*
X121544325Y-74112003D01*
X121603935Y-74082199D01*
X121794816Y-74082199D01*
X121854425Y-74112004D01*
X121890569Y-74148147D01*
X121905722Y-74160584D01*
X121910376Y-74162511D01*
X121914272Y-74165699D01*
X121928265Y-74169921D01*
X121941771Y-74175515D01*
X121946805Y-74175515D01*
X121951627Y-74176970D01*
X121966178Y-74175515D01*
X121980789Y-74175515D01*
X121985438Y-74173589D01*
X121990451Y-74173088D01*
X122003334Y-74166176D01*
X122016837Y-74160584D01*
X122020397Y-74157023D01*
X122024835Y-74154643D01*
X122034090Y-74143330D01*
X122044427Y-74132994D01*
X122046354Y-74128341D01*
X122049542Y-74124445D01*
X122053764Y-74110450D01*
X122059358Y-74096946D01*
X122059358Y-74091912D01*
X122060813Y-74087090D01*
X122060784Y-74067487D01*
X122052255Y-73982199D01*
X122242233Y-73982199D01*
X122242233Y-74220294D01*
X122242568Y-74223696D01*
X122242351Y-74225155D01*
X122243430Y-74232452D01*
X122244154Y-74239803D01*
X122244718Y-74241166D01*
X122245219Y-74244548D01*
X122292838Y-74435023D01*
X122293351Y-74436460D01*
X122293403Y-74437183D01*
X122296511Y-74445307D01*
X122299433Y-74453484D01*
X122299863Y-74454064D01*
X122300409Y-74455491D01*
X122348028Y-74550729D01*
X122353311Y-74559121D01*
X122354323Y-74561565D01*
X122356579Y-74564314D01*
X122358471Y-74567319D01*
X122360465Y-74569048D01*
X122366760Y-74576718D01*
X122414378Y-74624338D01*
X122422046Y-74630631D01*
X122423778Y-74632628D01*
X122426786Y-74634521D01*
X122429532Y-74636775D01*
X122431972Y-74637785D01*
X122440369Y-74643071D01*
X122535606Y-74690690D01*
X122553915Y-74697696D01*
X122557498Y-74697950D01*
X122560819Y-74699326D01*
X122580328Y-74701247D01*
X122675566Y-74701247D01*
X122695075Y-74699326D01*
X122698395Y-74697950D01*
X122701979Y-74697696D01*
X122720287Y-74690690D01*
X122815525Y-74643071D01*
X122823920Y-74637786D01*
X122826362Y-74636775D01*
X122829109Y-74634519D01*
X122832115Y-74632628D01*
X122833845Y-74630633D01*
X122841515Y-74624338D01*
X122889134Y-74576718D01*
X122895426Y-74569051D01*
X122897423Y-74567320D01*
X122899316Y-74564312D01*
X122901571Y-74561565D01*
X122902582Y-74559123D01*
X122907866Y-74550729D01*
X122955485Y-74455492D01*
X122956031Y-74454063D01*
X122956461Y-74453484D01*
X122959382Y-74445307D01*
X122962491Y-74437183D01*
X122962542Y-74436462D01*
X122963056Y-74435024D01*
X123010675Y-74244548D01*
X123011175Y-74241166D01*
X123011740Y-74239803D01*
X123012463Y-74232452D01*
X123013543Y-74225155D01*
X123013325Y-74223696D01*
X123013661Y-74220294D01*
X123013661Y-74172675D01*
X123194614Y-74172675D01*
X123194614Y-74410770D01*
X123196535Y-74430279D01*
X123197910Y-74433599D01*
X123198165Y-74437183D01*
X123205171Y-74455491D01*
X123252790Y-74550729D01*
X123258073Y-74559121D01*
X123259085Y-74561565D01*
X123261341Y-74564314D01*
X123263233Y-74567319D01*
X123265227Y-74569048D01*
X123271522Y-74576718D01*
X123319140Y-74624338D01*
X123326808Y-74630631D01*
X123328540Y-74632628D01*
X123331548Y-74634521D01*
X123334294Y-74636775D01*
X123336734Y-74637785D01*
X123345131Y-74643071D01*
X123440368Y-74690690D01*
X123458677Y-74697696D01*
X123462260Y-74697950D01*
X123465581Y-74699326D01*
X123485090Y-74701247D01*
X123675566Y-74701247D01*
X123695075Y-74699326D01*
X123698395Y-74697950D01*
X123701979Y-74697696D01*
X123720287Y-74690690D01*
X123815525Y-74643071D01*
X123823920Y-74637786D01*
X123826362Y-74636775D01*
X123829109Y-74634519D01*
X123832115Y-74632628D01*
X123833845Y-74630633D01*
X123841515Y-74624338D01*
X123889134Y-74576718D01*
X123895426Y-74569051D01*
X123897423Y-74567320D01*
X123899316Y-74564312D01*
X123901571Y-74561565D01*
X123902582Y-74559123D01*
X123907866Y-74550729D01*
X123955485Y-74455492D01*
X123962491Y-74437183D01*
X123962745Y-74433599D01*
X123964121Y-74430279D01*
X123966042Y-74410770D01*
X123966042Y-74029818D01*
X123965706Y-74026415D01*
X123965924Y-74024957D01*
X123964844Y-74017659D01*
X123964121Y-74010309D01*
X123963556Y-74008945D01*
X123963056Y-74005564D01*
X123915437Y-73815088D01*
X123911330Y-73803593D01*
X123910851Y-73801170D01*
X123909680Y-73798973D01*
X123908842Y-73796628D01*
X123907370Y-73794641D01*
X123905814Y-73791723D01*
X124146995Y-73791723D01*
X124146995Y-73886961D01*
X124147967Y-73896834D01*
X124147780Y-73899468D01*
X124148567Y-73902931D01*
X124148916Y-73906470D01*
X124149927Y-73908912D01*
X124152127Y-73918584D01*
X124199746Y-74061440D01*
X124207737Y-74079341D01*
X124210092Y-74082056D01*
X124211467Y-74085375D01*
X124223903Y-74100529D01*
X124624620Y-74501247D01*
X124246995Y-74501247D01*
X124227486Y-74503168D01*
X124191438Y-74518100D01*
X124163848Y-74545690D01*
X124148916Y-74581738D01*
X124148916Y-74620756D01*
X124163848Y-74656804D01*
X124191438Y-74684394D01*
X124227486Y-74699326D01*
X124246995Y-74701247D01*
X124866042Y-74701247D01*
X124885551Y-74699326D01*
X124921599Y-74684394D01*
X124949189Y-74656804D01*
X124964121Y-74620756D01*
X124964121Y-74581738D01*
X124949189Y-74545690D01*
X124936753Y-74530536D01*
X124382016Y-73975798D01*
X124346995Y-73870734D01*
X124346995Y-73815330D01*
X124376800Y-73755720D01*
X124401468Y-73731051D01*
X124461078Y-73701247D01*
X124651959Y-73701247D01*
X124711568Y-73731052D01*
X124747712Y-73767195D01*
X124762865Y-73779632D01*
X124798914Y-73794563D01*
X124837932Y-73794563D01*
X124873980Y-73779632D01*
X124901570Y-73752042D01*
X124916501Y-73715994D01*
X124916501Y-73676976D01*
X124901570Y-73640927D01*
X124889133Y-73625774D01*
X124877113Y-73613754D01*
X125004923Y-73613754D01*
X125009270Y-73632870D01*
X125342603Y-74632869D01*
X125350594Y-74650770D01*
X125355277Y-74656169D01*
X125358472Y-74662559D01*
X125367943Y-74670774D01*
X125376159Y-74680246D01*
X125382547Y-74683440D01*
X125387948Y-74688124D01*
X125399849Y-74692091D01*
X125411058Y-74697695D01*
X125418182Y-74698201D01*
X125424964Y-74700462D01*
X125437473Y-74699572D01*
X125449978Y-74700462D01*
X125456756Y-74698202D01*
X125463884Y-74697696D01*
X125475100Y-74692087D01*
X125486994Y-74688123D01*
X125492391Y-74683442D01*
X125498783Y-74680246D01*
X125507001Y-74670770D01*
X125516470Y-74662558D01*
X125519663Y-74656171D01*
X125524348Y-74650770D01*
X125532339Y-74632870D01*
X125812721Y-73791723D01*
X125956519Y-73791723D01*
X125956519Y-73934580D01*
X125958440Y-73954089D01*
X125959815Y-73957409D01*
X125960070Y-73960993D01*
X125967076Y-73979301D01*
X126014695Y-74074539D01*
X126019980Y-74082935D01*
X126020991Y-74085375D01*
X126023244Y-74088121D01*
X126025138Y-74091129D01*
X126027132Y-74092858D01*
X126033427Y-74100529D01*
X126081046Y-74148147D01*
X126088712Y-74154439D01*
X126090445Y-74156437D01*
X126093453Y-74158330D01*
X126096199Y-74160584D01*
X126098639Y-74161594D01*
X126107036Y-74166880D01*
X126202273Y-74214499D01*
X126204563Y-74215375D01*
X125974596Y-74543901D01*
X125964982Y-74560985D01*
X125956542Y-74599079D01*
X125963323Y-74637504D01*
X125984292Y-74670409D01*
X126016257Y-74692784D01*
X126054351Y-74701224D01*
X126092776Y-74694443D01*
X126125681Y-74673474D01*
X126138442Y-74658593D01*
X126441917Y-74225056D01*
X126527947Y-74225056D01*
X126527947Y-74601247D01*
X126529868Y-74620756D01*
X126544800Y-74656804D01*
X126572390Y-74684394D01*
X126608438Y-74699326D01*
X126647456Y-74699326D01*
X126683504Y-74684394D01*
X126711094Y-74656804D01*
X126726026Y-74620756D01*
X126727947Y-74601247D01*
X126727947Y-74029818D01*
X126956519Y-74029818D01*
X126956519Y-74172675D01*
X126956854Y-74176077D01*
X126956637Y-74177536D01*
X126957716Y-74184833D01*
X126958440Y-74192184D01*
X126959004Y-74193547D01*
X126959505Y-74196929D01*
X127007124Y-74387404D01*
X127007637Y-74388841D01*
X127007689Y-74389564D01*
X127010797Y-74397688D01*
X127013719Y-74405865D01*
X127014149Y-74406445D01*
X127014695Y-74407872D01*
X127062314Y-74503110D01*
X127067596Y-74511502D01*
X127068609Y-74513946D01*
X127070865Y-74516695D01*
X127072757Y-74519700D01*
X127074751Y-74521429D01*
X127081046Y-74529099D01*
X127176284Y-74624339D01*
X127191437Y-74636775D01*
X127194756Y-74638150D01*
X127197472Y-74640505D01*
X127215372Y-74648496D01*
X127358229Y-74696115D01*
X127367901Y-74698314D01*
X127370343Y-74699326D01*
X127373880Y-74699674D01*
X127377344Y-74700462D01*
X127379978Y-74700274D01*
X127389852Y-74701247D01*
X127627947Y-74701247D01*
X127647456Y-74699326D01*
X127683504Y-74684394D01*
X127711094Y-74656804D01*
X127726026Y-74620756D01*
X127727947Y-74601247D01*
X127727947Y-73601247D01*
X127726026Y-73581738D01*
X127711094Y-73545690D01*
X127683504Y-73518100D01*
X127647456Y-73503168D01*
X127627947Y-73501247D01*
X127389852Y-73501247D01*
X127379978Y-73502219D01*
X127377344Y-73502032D01*
X127373880Y-73502819D01*
X127370343Y-73503168D01*
X127367901Y-73504179D01*
X127358229Y-73506379D01*
X127215372Y-73553998D01*
X127197472Y-73561989D01*
X127194756Y-73564344D01*
X127191438Y-73565719D01*
X127176284Y-73578155D01*
X127081046Y-73673393D01*
X127074751Y-73681063D01*
X127072757Y-73682793D01*
X127070863Y-73685800D01*
X127068610Y-73688547D01*
X127067599Y-73690986D01*
X127062314Y-73699383D01*
X127014695Y-73794621D01*
X127014149Y-73796047D01*
X127013719Y-73796628D01*
X127010797Y-73804804D01*
X127007689Y-73812929D01*
X127007637Y-73813651D01*
X127007124Y-73815089D01*
X126959505Y-74005564D01*
X126959004Y-74008945D01*
X126958440Y-74010309D01*
X126957716Y-74017659D01*
X126956637Y-74024957D01*
X126956854Y-74026415D01*
X126956519Y-74029818D01*
X126727947Y-74029818D01*
X126727947Y-73601247D01*
X126726026Y-73581738D01*
X126711094Y-73545690D01*
X126683504Y-73518100D01*
X126647456Y-73503168D01*
X126627947Y-73501247D01*
X126246995Y-73501247D01*
X126227486Y-73503168D01*
X126224165Y-73504543D01*
X126220582Y-73504798D01*
X126202273Y-73511804D01*
X126107036Y-73559423D01*
X126098639Y-73564708D01*
X126096199Y-73565719D01*
X126093453Y-73567972D01*
X126090445Y-73569866D01*
X126088712Y-73571863D01*
X126081046Y-73578156D01*
X126033427Y-73625774D01*
X126027132Y-73633444D01*
X126025138Y-73635174D01*
X126023244Y-73638181D01*
X126020991Y-73640928D01*
X126019980Y-73643367D01*
X126014695Y-73651764D01*
X125967076Y-73747002D01*
X125960070Y-73765310D01*
X125959815Y-73768893D01*
X125958440Y-73772214D01*
X125956519Y-73791723D01*
X125812721Y-73791723D01*
X125865672Y-73632870D01*
X125870019Y-73613755D01*
X125867253Y-73574835D01*
X125849803Y-73539936D01*
X125820327Y-73514371D01*
X125783311Y-73502032D01*
X125744391Y-73504799D01*
X125709492Y-73522248D01*
X125683927Y-73551724D01*
X125675936Y-73569625D01*
X125437471Y-74285019D01*
X125199006Y-73569624D01*
X125191015Y-73551724D01*
X125165450Y-73522248D01*
X125130551Y-73504798D01*
X125091631Y-73502032D01*
X125054615Y-73514370D01*
X125025139Y-73539935D01*
X125007689Y-73574834D01*
X125004923Y-73613754D01*
X124877113Y-73613754D01*
X124841515Y-73578155D01*
X124833844Y-73571860D01*
X124832115Y-73569866D01*
X124829107Y-73567972D01*
X124826361Y-73565719D01*
X124823921Y-73564708D01*
X124815525Y-73559423D01*
X124720287Y-73511804D01*
X124701979Y-73504798D01*
X124698395Y-73504543D01*
X124695075Y-73503168D01*
X124675566Y-73501247D01*
X124437471Y-73501247D01*
X124417962Y-73503168D01*
X124414641Y-73504543D01*
X124411058Y-73504798D01*
X124392749Y-73511804D01*
X124297512Y-73559423D01*
X124289115Y-73564708D01*
X124286675Y-73565719D01*
X124283929Y-73567972D01*
X124280921Y-73569866D01*
X124279188Y-73571863D01*
X124271522Y-73578156D01*
X124223903Y-73625774D01*
X124217608Y-73633444D01*
X124215614Y-73635174D01*
X124213720Y-73638181D01*
X124211467Y-73640928D01*
X124210456Y-73643367D01*
X124205171Y-73651764D01*
X124157552Y-73747002D01*
X124150546Y-73765310D01*
X124150291Y-73768893D01*
X124148916Y-73772214D01*
X124146995Y-73791723D01*
X123905814Y-73791723D01*
X123901628Y-73783872D01*
X123806390Y-73641015D01*
X123806346Y-73640961D01*
X123806332Y-73640927D01*
X123800187Y-73633441D01*
X123793970Y-73625848D01*
X123793938Y-73625826D01*
X123793895Y-73625774D01*
X123746277Y-73578155D01*
X123738606Y-73571860D01*
X123736877Y-73569866D01*
X123733869Y-73567972D01*
X123731123Y-73565719D01*
X123728683Y-73564708D01*
X123720287Y-73559423D01*
X123625049Y-73511804D01*
X123606741Y-73504798D01*
X123603157Y-73504543D01*
X123599837Y-73503168D01*
X123580328Y-73501247D01*
X123389852Y-73501247D01*
X123370343Y-73503168D01*
X123334295Y-73518100D01*
X123306705Y-73545690D01*
X123291773Y-73581738D01*
X123291773Y-73620756D01*
X123306705Y-73656804D01*
X123334295Y-73684394D01*
X123370343Y-73699326D01*
X123389852Y-73701247D01*
X123556721Y-73701247D01*
X123616330Y-73731052D01*
X123645472Y-73760193D01*
X123725610Y-73880400D01*
X123729900Y-73897562D01*
X123720287Y-73892756D01*
X123701979Y-73885750D01*
X123698395Y-73885495D01*
X123695075Y-73884120D01*
X123675566Y-73882199D01*
X123485090Y-73882199D01*
X123465581Y-73884120D01*
X123462260Y-73885495D01*
X123458677Y-73885750D01*
X123440368Y-73892756D01*
X123345131Y-73940375D01*
X123336734Y-73945660D01*
X123334294Y-73946671D01*
X123331548Y-73948924D01*
X123328540Y-73950818D01*
X123326807Y-73952815D01*
X123319141Y-73959108D01*
X123271522Y-74006726D01*
X123265227Y-74014396D01*
X123263233Y-74016126D01*
X123261339Y-74019133D01*
X123259086Y-74021880D01*
X123258075Y-74024319D01*
X123252790Y-74032716D01*
X123205171Y-74127954D01*
X123198165Y-74146262D01*
X123197910Y-74149845D01*
X123196535Y-74153166D01*
X123194614Y-74172675D01*
X123013661Y-74172675D01*
X123013661Y-73982199D01*
X123013325Y-73978796D01*
X123013543Y-73977338D01*
X123012463Y-73970040D01*
X123011740Y-73962690D01*
X123011175Y-73961326D01*
X123010675Y-73957945D01*
X122963056Y-73767469D01*
X122962542Y-73766030D01*
X122962491Y-73765310D01*
X122959382Y-73757185D01*
X122956461Y-73749009D01*
X122956031Y-73748429D01*
X122955485Y-73747001D01*
X122907866Y-73651764D01*
X122902580Y-73643367D01*
X122901570Y-73640927D01*
X122899316Y-73638181D01*
X122897423Y-73635173D01*
X122895425Y-73633440D01*
X122889133Y-73625774D01*
X122841515Y-73578155D01*
X122833844Y-73571860D01*
X122832115Y-73569866D01*
X122829107Y-73567972D01*
X122826361Y-73565719D01*
X122823921Y-73564708D01*
X122815525Y-73559423D01*
X122720287Y-73511804D01*
X122701979Y-73504798D01*
X122698395Y-73504543D01*
X122695075Y-73503168D01*
X122675566Y-73501247D01*
X122580328Y-73501247D01*
X122560819Y-73503168D01*
X122557498Y-73504543D01*
X122553915Y-73504798D01*
X122535606Y-73511804D01*
X122440369Y-73559423D01*
X122431972Y-73564708D01*
X122429532Y-73565719D01*
X122426786Y-73567972D01*
X122423778Y-73569866D01*
X122422045Y-73571863D01*
X122414379Y-73578156D01*
X122366760Y-73625774D01*
X122360465Y-73633444D01*
X122358471Y-73635174D01*
X122356577Y-73638181D01*
X122354324Y-73640928D01*
X122353313Y-73643367D01*
X122348028Y-73651764D01*
X122300409Y-73747002D01*
X122299863Y-73748428D01*
X122299433Y-73749009D01*
X122296511Y-73757185D01*
X122293403Y-73765310D01*
X122293351Y-73766032D01*
X122292838Y-73767470D01*
X122245219Y-73957945D01*
X122244718Y-73961326D01*
X122244154Y-73962690D01*
X122243430Y-73970040D01*
X122242351Y-73977338D01*
X122242568Y-73978796D01*
X122242233Y-73982199D01*
X122052255Y-73982199D01*
X122013165Y-73591297D01*
X122011740Y-73584188D01*
X122011740Y-73581738D01*
X122010788Y-73579440D01*
X122009312Y-73572076D01*
X122002402Y-73559195D01*
X121996808Y-73545690D01*
X121993247Y-73542129D01*
X121990867Y-73537692D01*
X121979554Y-73528436D01*
X121969218Y-73518100D01*
X121964565Y-73516172D01*
X121960669Y-73512985D01*
X121946679Y-73508764D01*
X121933170Y-73503168D01*
X121925692Y-73502431D01*
X121923314Y-73501714D01*
X121920877Y-73501957D01*
X121913661Y-73501247D01*
X121437471Y-73501247D01*
X121417962Y-73503168D01*
X121381914Y-73518100D01*
X121354324Y-73545690D01*
X121339392Y-73581738D01*
X121339392Y-73620756D01*
X121354324Y-73656804D01*
X121381914Y-73684394D01*
X121417962Y-73699326D01*
X121437471Y-73701247D01*
X121823162Y-73701247D01*
X121841589Y-73885519D01*
X121841252Y-73885495D01*
X121837932Y-73884120D01*
X121818423Y-73882199D01*
X121580328Y-73882199D01*
X121560819Y-73884120D01*
X121557498Y-73885495D01*
X121553915Y-73885750D01*
X121535606Y-73892756D01*
X121440369Y-73940375D01*
X121431972Y-73945660D01*
X121429532Y-73946671D01*
X121426786Y-73948924D01*
X121423778Y-73950818D01*
X121422045Y-73952815D01*
X121414379Y-73959108D01*
X121366760Y-74006726D01*
X121360465Y-74014396D01*
X121358471Y-74016126D01*
X121356577Y-74019133D01*
X121354324Y-74021880D01*
X121353313Y-74024319D01*
X121348028Y-74032716D01*
X121300409Y-74127954D01*
X121293403Y-74146262D01*
X121293148Y-74149845D01*
X121291773Y-74153166D01*
X121289852Y-74172675D01*
X120299375Y-74172675D01*
X120299375Y-73601247D01*
X120297454Y-73581738D01*
X120282522Y-73545690D01*
X120254932Y-73518100D01*
X120218884Y-73503168D01*
X120199375Y-73501247D01*
X119866042Y-73501247D01*
X119846533Y-73503168D01*
X119843212Y-73504543D01*
X119839629Y-73504798D01*
X119821320Y-73511804D01*
X119726083Y-73559423D01*
X119717686Y-73564708D01*
X119715246Y-73565719D01*
X119712500Y-73567972D01*
X119709492Y-73569866D01*
X119707759Y-73571863D01*
X119700093Y-73578156D01*
X119652474Y-73625774D01*
X119646179Y-73633444D01*
X119644185Y-73635174D01*
X119642291Y-73638181D01*
X119640038Y-73640928D01*
X119639027Y-73643367D01*
X119633742Y-73651764D01*
X119586123Y-73747002D01*
X119579117Y-73765310D01*
X119578862Y-73768893D01*
X119577487Y-73772214D01*
X119575566Y-73791723D01*
X119575566Y-73886961D01*
X119577487Y-73906470D01*
X119578862Y-73909790D01*
X119579117Y-73913374D01*
X119586123Y-73931682D01*
X119633742Y-74026920D01*
X119639027Y-74035316D01*
X119640038Y-74037756D01*
X119642291Y-74040502D01*
X119644185Y-74043510D01*
X119646179Y-74045239D01*
X119652474Y-74052910D01*
X119653262Y-74053698D01*
X119652474Y-74054346D01*
X119604855Y-74101964D01*
X119598560Y-74109634D01*
X119596566Y-74111364D01*
X119594672Y-74114371D01*
X119592419Y-74117118D01*
X119591408Y-74119557D01*
X119586123Y-74127954D01*
X119538504Y-74223192D01*
X119531498Y-74241500D01*
X119531243Y-74245083D01*
X119529868Y-74248404D01*
X119527947Y-74267913D01*
X119299375Y-74267913D01*
X119299375Y-73934580D01*
X119297454Y-73915071D01*
X119282522Y-73879023D01*
X119254932Y-73851433D01*
X119218884Y-73836501D01*
X119179866Y-73836501D01*
X119143818Y-73851433D01*
X119117949Y-73877301D01*
X119053620Y-73845137D01*
X119035312Y-73838131D01*
X119031728Y-73837876D01*
X119028408Y-73836501D01*
X119008899Y-73834580D01*
X118913661Y-73834580D01*
X118894152Y-73836501D01*
X118858104Y-73851433D01*
X118830514Y-73879023D01*
X118815582Y-73915071D01*
X118652621Y-73915071D01*
X118649851Y-73912669D01*
X118641638Y-73903199D01*
X118631766Y-73896985D01*
X118629850Y-73895323D01*
X118628311Y-73894809D01*
X118625048Y-73892756D01*
X118529810Y-73845137D01*
X118511502Y-73838131D01*
X118507918Y-73837876D01*
X118504598Y-73836501D01*
X118485089Y-73834580D01*
X118294613Y-73834580D01*
X118275104Y-73836501D01*
X118271783Y-73837876D01*
X118268200Y-73838131D01*
X118249891Y-73845137D01*
X118154654Y-73892756D01*
X118151390Y-73894810D01*
X118149852Y-73895323D01*
X118147936Y-73896984D01*
X118138063Y-73903199D01*
X118129845Y-73912674D01*
X118120375Y-73920888D01*
X118114161Y-73930759D01*
X118112499Y-73932676D01*
X118111985Y-73934214D01*
X118109932Y-73937478D01*
X118062313Y-74032716D01*
X118055307Y-74051024D01*
X118055052Y-74054607D01*
X118053677Y-74057928D01*
X118051756Y-74077437D01*
X117747622Y-74077437D01*
X117772707Y-74069075D01*
X117802184Y-74043510D01*
X117819633Y-74008612D01*
X117822398Y-73969692D01*
X117810060Y-73932676D01*
X117784495Y-73903199D01*
X117767905Y-73892756D01*
X117672667Y-73845137D01*
X117654359Y-73838131D01*
X117650775Y-73837876D01*
X117647455Y-73836501D01*
X117627946Y-73834580D01*
X117437470Y-73834580D01*
X117417961Y-73836501D01*
X117414640Y-73837876D01*
X117411057Y-73838131D01*
X117392748Y-73845137D01*
X117297511Y-73892756D01*
X117294247Y-73894810D01*
X117292709Y-73895323D01*
X117290793Y-73896984D01*
X117280920Y-73903199D01*
X117272702Y-73912674D01*
X117263232Y-73920888D01*
X117257018Y-73930759D01*
X117255356Y-73932676D01*
X117254842Y-73934214D01*
X117252789Y-73937478D01*
X117205170Y-74032716D01*
X117198164Y-74051024D01*
X117197909Y-74054607D01*
X117196534Y-74057928D01*
X117194613Y-74077437D01*
X116918422Y-74077437D01*
X116918422Y-73601247D01*
X116916501Y-73581738D01*
X116901569Y-73545690D01*
X116873979Y-73518100D01*
X116837931Y-73503168D01*
X116798913Y-73503168D01*
X116762865Y-73518100D01*
X116735275Y-73545690D01*
X116720343Y-73581738D01*
X116718422Y-73601247D01*
X116718422Y-74074110D01*
X116508181Y-73863869D01*
X116493027Y-73851433D01*
X116456979Y-73836501D01*
X116417961Y-73836501D01*
X116381913Y-73851433D01*
X116354323Y-73879023D01*
X116339391Y-73915071D01*
X116339391Y-73954089D01*
X116354323Y-73990137D01*
X116366759Y-74005291D01*
X116591146Y-74229677D01*
X116357470Y-74541247D01*
X116347301Y-74558007D01*
X116337618Y-74595805D01*
X116060522Y-74595805D01*
X116079609Y-74576718D01*
X116085901Y-74569051D01*
X116087898Y-74567320D01*
X116089791Y-74564312D01*
X116092046Y-74561565D01*
X116093057Y-74559123D01*
X116098341Y-74550729D01*
X116145960Y-74455492D01*
X116152966Y-74437183D01*
X116153220Y-74433599D01*
X116154596Y-74430279D01*
X116156517Y-74410770D01*
X116156517Y-74125056D01*
X116154596Y-74105547D01*
X116153220Y-74102226D01*
X116152966Y-74098643D01*
X116145960Y-74080334D01*
X116098341Y-73985097D01*
X116093055Y-73976700D01*
X116092045Y-73974260D01*
X116089791Y-73971514D01*
X116087898Y-73968506D01*
X116085900Y-73966773D01*
X116079608Y-73959107D01*
X116031990Y-73911488D01*
X116024319Y-73905193D01*
X116022590Y-73903199D01*
X116019582Y-73901305D01*
X116016836Y-73899052D01*
X116014396Y-73898041D01*
X116006000Y-73892756D01*
X115910762Y-73845137D01*
X115892454Y-73838131D01*
X115888870Y-73837876D01*
X115885550Y-73836501D01*
X115866041Y-73834580D01*
X115723184Y-73834580D01*
X115703675Y-73836501D01*
X115700354Y-73837876D01*
X115696771Y-73838131D01*
X115678462Y-73845137D01*
X115583225Y-73892756D01*
X115574828Y-73898041D01*
X115572388Y-73899052D01*
X115569642Y-73901305D01*
X115566634Y-73903199D01*
X115564901Y-73905196D01*
X115557235Y-73911489D01*
X115509616Y-73959107D01*
X115503321Y-73966777D01*
X115501327Y-73968507D01*
X115499433Y-73971514D01*
X115497180Y-73974261D01*
X115496169Y-73976700D01*
X115490884Y-73985097D01*
X115443265Y-74080335D01*
X115436259Y-74098643D01*
X115436004Y-74102226D01*
X115434629Y-74105547D01*
X115432708Y-74125056D01*
X115204136Y-74125056D01*
X115204136Y-73934580D01*
X115202215Y-73915071D01*
X115187283Y-73879023D01*
X115159693Y-73851433D01*
X115123645Y-73836501D01*
X115084627Y-73836501D01*
X115048579Y-73851433D01*
X115020989Y-73879023D01*
X115006057Y-73915071D01*
X115004136Y-73934580D01*
X115004136Y-74434782D01*
X114981981Y-74479091D01*
X114937672Y-74501247D01*
X114842029Y-74501247D01*
X114782419Y-74471442D01*
X114775565Y-74464587D01*
X114775565Y-73934580D01*
X114773644Y-73915071D01*
X114758712Y-73879023D01*
X114731122Y-73851433D01*
X114695074Y-73836501D01*
X114656056Y-73836501D01*
X114620008Y-73851433D01*
X114592418Y-73879023D01*
X114577486Y-73915071D01*
X114575565Y-73934580D01*
X114440310Y-73934580D01*
X114440310Y-73915071D01*
X114425378Y-73879023D01*
X114397788Y-73851433D01*
X114361740Y-73836501D01*
X114342231Y-73834580D01*
X114299374Y-73834580D01*
X114299374Y-73601247D01*
X114297453Y-73581738D01*
X114282521Y-73545690D01*
X114254931Y-73518100D01*
X114218883Y-73503168D01*
X114179865Y-73503168D01*
X114143817Y-73518100D01*
X114116227Y-73545690D01*
X114101295Y-73581738D01*
X114099374Y-73601247D01*
X114099374Y-73834580D01*
X113961279Y-73834580D01*
X113941770Y-73836501D01*
X113905722Y-73851433D01*
X113878132Y-73879023D01*
X113863200Y-73915071D01*
X112966040Y-73915071D01*
X112966040Y-73601247D01*
X112964119Y-73581738D01*
X112949187Y-73545690D01*
X112921597Y-73518100D01*
X112885549Y-73503168D01*
X112866040Y-73501247D01*
X112532707Y-73501247D01*
X112513198Y-73503168D01*
X112509877Y-73504543D01*
X112506294Y-73504798D01*
X112487985Y-73511804D01*
X112392748Y-73559423D01*
X112384351Y-73564708D01*
X112381911Y-73565719D01*
X112379165Y-73567972D01*
X112376157Y-73569866D01*
X112374424Y-73571863D01*
X112366758Y-73578156D01*
X112319139Y-73625774D01*
X112312844Y-73633444D01*
X112310850Y-73635174D01*
X112308956Y-73638181D01*
X112306703Y-73640928D01*
X112305692Y-73643367D01*
X112300407Y-73651764D01*
X112252788Y-73747002D01*
X112245782Y-73765310D01*
X112245527Y-73768893D01*
X112244152Y-73772214D01*
X112242231Y-73791723D01*
X112242231Y-73886961D01*
X112244152Y-73906470D01*
X112245527Y-73909790D01*
X112245782Y-73913374D01*
X112252788Y-73931682D01*
X112300407Y-74026920D01*
X112305692Y-74035316D01*
X112306703Y-74037756D01*
X112308956Y-74040502D01*
X112310850Y-74043510D01*
X112312844Y-74045239D01*
X112319139Y-74052910D01*
X112319927Y-74053698D01*
X112319139Y-74054346D01*
X112271520Y-74101964D01*
X112265225Y-74109634D01*
X112263231Y-74111364D01*
X112261337Y-74114371D01*
X112259084Y-74117118D01*
X112258073Y-74119557D01*
X112252788Y-74127954D01*
X112205169Y-74223192D01*
X112198163Y-74241500D01*
X112197908Y-74245083D01*
X112196533Y-74248404D01*
X112194612Y-74267913D01*
X112013659Y-74267913D01*
X112013659Y-74125056D01*
X112011738Y-74105547D01*
X112010362Y-74102226D01*
X112010108Y-74098643D01*
X112003102Y-74080334D01*
X111955483Y-73985097D01*
X111950197Y-73976700D01*
X111949187Y-73974260D01*
X111946933Y-73971514D01*
X111945040Y-73968506D01*
X111943042Y-73966773D01*
X111936750Y-73959107D01*
X111889132Y-73911488D01*
X111881461Y-73905193D01*
X111879732Y-73903199D01*
X111876724Y-73901305D01*
X111873978Y-73899052D01*
X111871538Y-73898041D01*
X111863142Y-73892756D01*
X111767904Y-73845137D01*
X111749596Y-73838131D01*
X111746012Y-73837876D01*
X111742692Y-73836501D01*
X111723183Y-73834580D01*
X111580326Y-73834580D01*
X111560817Y-73836501D01*
X111557496Y-73837876D01*
X111553913Y-73838131D01*
X111535604Y-73845137D01*
X111440367Y-73892756D01*
X111431970Y-73898041D01*
X111429530Y-73899052D01*
X111426784Y-73901305D01*
X111423776Y-73903199D01*
X111422043Y-73905196D01*
X111414377Y-73911489D01*
X111366758Y-73959107D01*
X111360463Y-73966777D01*
X111358469Y-73968507D01*
X111356575Y-73971514D01*
X111354322Y-73974261D01*
X111353311Y-73976700D01*
X111348026Y-73985097D01*
X111300407Y-74080335D01*
X111293401Y-74098643D01*
X111293146Y-74102226D01*
X111291771Y-74105547D01*
X111289850Y-74125056D01*
X110895618Y-74125056D01*
X110892453Y-74123845D01*
X110888869Y-74123590D01*
X110885549Y-74122215D01*
X110866040Y-74120294D01*
X110651552Y-74120294D01*
X110632707Y-74110871D01*
X110632707Y-74101044D01*
X110654862Y-74056734D01*
X110699171Y-74034580D01*
X110842433Y-74034580D01*
X110916556Y-74071642D01*
X110934865Y-74078648D01*
X110973785Y-74081414D01*
X111010801Y-74069075D01*
X111040278Y-74043510D01*
X111057727Y-74008612D01*
X111060492Y-73969692D01*
X111048154Y-73932676D01*
X111022589Y-73903199D01*
X111005999Y-73892756D01*
X110910761Y-73845137D01*
X110892453Y-73838131D01*
X110888869Y-73837876D01*
X110885549Y-73836501D01*
X110866040Y-73834580D01*
X110675564Y-73834580D01*
X110656055Y-73836501D01*
X110652734Y-73837876D01*
X110649151Y-73838131D01*
X110630842Y-73845137D01*
X110535605Y-73892756D01*
X110532341Y-73894810D01*
X110530803Y-73895323D01*
X110528887Y-73896984D01*
X110519014Y-73903199D01*
X110510796Y-73912674D01*
X110501326Y-73920888D01*
X110495112Y-73930759D01*
X110493450Y-73932676D01*
X110492936Y-73934214D01*
X110490883Y-73937478D01*
X110443264Y-74032716D01*
X110436258Y-74051024D01*
X110436003Y-74054607D01*
X110434628Y-74057928D01*
X110432707Y-74077437D01*
X110156516Y-74077437D01*
X110156516Y-73934580D01*
X110154595Y-73915071D01*
X110139663Y-73879023D01*
X110112073Y-73851433D01*
X110076025Y-73836501D01*
X110037007Y-73836501D01*
X110000959Y-73851433D01*
X109975090Y-73877301D01*
X109910761Y-73845137D01*
X109892453Y-73838131D01*
X109888869Y-73837876D01*
X109885549Y-73836501D01*
X109866040Y-73834580D01*
X109770802Y-73834580D01*
X109751293Y-73836501D01*
X109715245Y-73851433D01*
X109687655Y-73879023D01*
X109672723Y-73915071D01*
X109464143Y-73915071D01*
X109460560Y-73911488D01*
X109452889Y-73905193D01*
X109451160Y-73903199D01*
X109448152Y-73901305D01*
X109445406Y-73899052D01*
X109442966Y-73898041D01*
X109434570Y-73892756D01*
X109339332Y-73845137D01*
X109321024Y-73838131D01*
X109317440Y-73837876D01*
X109314120Y-73836501D01*
X109294611Y-73834580D01*
X109108897Y-73834580D01*
X109108897Y-73601247D01*
X109106976Y-73581738D01*
X109092044Y-73545690D01*
X109064454Y-73518100D01*
X109028406Y-73503168D01*
X108989388Y-73503168D01*
X108953340Y-73518100D01*
X108925750Y-73545690D01*
X108910818Y-73581738D01*
X108908897Y-73601247D01*
X108797786Y-73601247D01*
X108797786Y-73390136D01*
X127839058Y-73390136D01*
X127839058Y-76754850D01*
G37*
%LPC*%
D12*
X133000000Y-66000000D03*
D13*
X133000000Y-68540000D03*
X133000000Y-71080000D03*
X133000000Y-73620000D03*
X133000000Y-76160000D03*
X133000000Y-78700000D03*
X133000000Y-81240000D03*
X133000000Y-83780000D03*
D12*
X128750000Y-66000000D03*
D13*
X128750000Y-68540000D03*
%LPD*%
M02*
